<?xml version="1.0" encoding="UTF-8"?>
<svg xmlns="http://www.w3.org/2000/svg" width="5in" height="1.5in" xmlns:xlink="http://www.w3.org/1999/xlink" version="1.1" viewBox="0 0 359.1 109.6">
  <!-- Generator: Adobe Illustrator 29.5.1, SVG Export Plug-In . SVG Version: 2.1.0 Build 141)  -->
  <defs>
    <style>
      .st0 {
        fill: none;
      }

      .st1 {
        stroke: #fff;
        stroke-linejoin: round;
        stroke-width: 4px;
      }

      .st1, .st2 {
        fill: #e59a24;
      }

      .st3 {
        fill: #517031;
      }

      .st4 {
        fill: #fff;
      }

      .st5 {
        fill: #eeaf1f;
      }

      .st6 {
        fill: #6f9243;
      }

      .st7 {
        clip-path: url(#clippath);
      }
    </style>
    <clipPath id="clippath">
      <path class="st0" d="M71.1,59.1c-15.3,0-30.2,1.2-44.4,2.5l-3.9,5.7.7,5.8c7.2,17.1,24.1,29.2,43.8,29.2s43.7-17.7,47-40.8c-13.9-1.1-28.3-2.4-43.2-2.4Z"/>
    </clipPath>
  </defs>
  <g id="Layer_3">
    <path class="st4" d="M67.4,1.9c-12.1,0-23.3,4.1-32.2,11,.8-2,1.6-4.1,2.3-5.8.2-.5.2-1.1-.2-1.6,0,0,0,0,0,0,.4-.6.4-1.4-.1-1.9-.3-.3-.7-.4-1.1-.4s-.6,0-.9.3c-4.4,3.1-10,7.7-11.7,11.6-1.4,3.2-1.1,5.9-.8,7.8,0,.5.1,1,.1,1.4-.6,1.4-1.2,3.3-1.7,5.1,0,.2-.2.3-.3.5,0-2.4-.4-4.9-.9-6.7-.1-.4-.3-.8-.4-1.2-.5-1.6-1.1-3.3-1.6-4.5-.1-.3-.4-.6-.7-.8,0,0,0,0,0,0,0-.7-.5-1.4-1.2-1.5,0,0-.2,0-.3,0-.6,0-1.2.4-1.4,1,0,.3-2.4,7-1.7,14.5.4,4.4,2,7.1,2.7,8.2v.2c.3.4.6,1.8.7,3.4-.2.7-.3,1.3-.4,2-3.4-5.8-10.5-11.7-10.8-11.9-.3-.2-.6-.3-1-.3s-.7.1-1,.4c-.5.5-.6,1.2-.3,1.8-.4.4-.6,1-.4,1.6.3.8.8,2,1.4,3.3,1.1,2.8,2.6,6.2,3.4,8.8,1,3.2,3.1,5.5,4.7,7.3,1,1.1,1.9,2.1,2.2,3,.3.7.6,1.5,1,2.4.2,1.9.5,3.8.9,5.6-3.8-3.1-7.6-5.1-9.8-6-.2,0-.4,0-.5,0-.3,0-.6,0-.8.2-.2-.2-.5-.2-.8-.2s-.5,0-.8.2c-.5.3-.8.9-.7,1.5.2,1.4,3.2,7.2,7.1,11.5,3.3,3.6,7.1,5,9.6,5.9.7.3,1.4.5,1.8.7h0c0,0,.2.1.3.2,1.2,2.2,2.6,4.4,4.1,6.4-1.4-.8-2.8-1.7-4.1-2.6-.2-.1-.4-.2-.6-.3-.8-.2-5.8-1.8-9-2.9-3.9-1.3-7.3,3-8.7,5.4-.5.9-.2,2,1.2,4.4,1,1.6,2.3,3.5,3.7,5.2,2.4,3.1,5.2,5.8,6.1,6.6.3.3.7.4,1,.4s0,0,0,0c.5,0,.9-.2,1.2-.6.4-.5.3-1.3,0-1.8h0c-3-3.6-5.7-7.6-8-11.7.5,0,1.4.1,3.1.9,3.1,1.3,6.4,3.3,9.3,5,2.1,1.2,3.9,2.3,5.3,2.9,2.2,1,3.8,1,5.8,1.1,1.3,0,2.7,0,4.7.4.1,0,1.7.3,3.3.6,8.1,5.1,17.7,8,27.9,8,29.2,0,52.8-23.6,52.8-52.8S96.6,1.9,67.4,1.9Z"/>
    <path class="st5" d="M67.7,7.1c-17.3,0-32.4,9.3-40.6,23.2l5.1.7-6.9,8.7h4.1l-3.1,8.3-.7.4-.4,3.6,1.4-.6v2.1c9.5-.9,28-2.6,39.9-2.6s34.8,3,48.1,6.7c0-1.2.1-2.3.1-3.5,0-26-21.1-47.1-47.1-47.1Z"/>
    <path class="st5" d="M67.7,7.1c17.3,0,13,43.9,1.2,43.9s-34.8,3-48.1,6.7c0-1.2-.1-2.3-.1-3.5,0-26,21.1-47.1,47.1-47.1Z"/>
    <polygon class="st4" points="50.8 55.1 85 55.1 111.5 48.4 84.5 49.3 108.5 37.3 82.7 43.9 102.8 27.4 80 39.3 94.7 19.3 76.5 35.8 84.7 13.5 72.3 33.6 73.6 10.5 67.9 32.8 62.2 10.5 63.5 33.6 51.1 13.5 59.3 35.8 41.1 19.3 55.8 39.3 33 27.4 53 43.9 27.3 37.3 51.3 49.3 24.3 48.4 50.8 55.1"/>
    <path class="st6" d="M100.3,60.8v-11.4h1.4v-1.3l-12.8-7v-1.9h1.7v-1.6l-6.3-8.9,1.2-7.3-19.2,5.2v-2.1l1.1-1-2.8-4.4-5.7,1.6-2.6,3.5,1.6.5v3.9l-12.9,3.3-10.9,11.5v.7h1.6v2.2l-6.9,3-2.3,3.8v9.1c.1,0-3.8,4.8-3.8,4.8l.7,5.8c7.2,17.1,24.1,29.2,43.8,29.2s43.7-17.7,47-40.8c-3-.2-11-.5-14-.7Z"/>
    <polygon class="st4" points="64.3 20.1 62.1 23.5 62.1 27.6 62.1 29.9 64.8 27.1 66.5 26.6 66.5 23.8 64.3 20.1"/>
    <path class="st4" d="M88.9,42.6v-4.5l-8.9-13-10.7,11.4v4.9l-21.4,6.2v11.9c1.6,0,3.1-.1,4.7-.2v-9.9l5.4-.2v9.9c2.3,0,4.6,0,7,0,3.5,0,6.9,0,10.3.2v-13.9l8.2.5v13.8c2.5.1,5,.3,7.4.5v-10.5l4.7.2v10.7c1.2,0,3.7.2,4.8.3v-12s-11.6-6.2-11.6-6.2ZM81.4,37l-3.8-.2v-4.7l3.8.3v4.7Z"/>
    <g class="st7">
      <polygon class="st4" points="96.8 94.4 55 68.7 23.5 68.7 23.5 66 55.8 66 56.2 66.2 98.3 92 96.8 94.4"/>
      <polygon class="st4" points="69.2 105.7 46.1 91.2 32.1 91.2 32.1 88.4 46.9 88.4 70.7 103.4 69.2 105.7"/>
      <path class="st4" d="M87.9,66l-6.3,3.9c-.6-.4-1.4-.7-2.2-.7-2.1,0-3.9,1.7-3.9,3.9s1.7,3.9,3.9,3.9,3.9-1.7,3.9-3.9,0-.6-.1-.9l5.5-3.4h24.7c.3-.9.5-1.8.8-2.8h-26.2ZM79.5,74.7c-.9,0-1.6-.7-1.6-1.6s.7-1.6,1.6-1.6,1.6.7,1.6,1.6-.7,1.6-1.6,1.6Z"/>
      <path class="st4" d="M111.7,73.4h-17.5l-9.2,5.4,2.7,1.6,7.2-4.2h15.5c.5-.9.9-1.8,1.3-2.8Z"/>
      <path class="st4" d="M107.6,80.9h-8.2l-5.5,3.1,2.8,1.6,3.5-1.9h5.5c.7-.9,1.4-1.8,2-2.8Z"/>
      <path class="st4" d="M64,80.2c0-.2,0-.4,0-.6,0-2.1-1.7-3.9-3.9-3.9s-1.6.3-2.3.8l-5-3h-30v2.8h29.2l4.3,2.6c0,.3,0,.5,0,.8,0,2.1,1.7,3.9,3.9,3.9s1.7-.3,2.4-.9l27.3,16.6,1.4-2.4-27.3-16.6ZM60.2,81.2c-.9,0-1.6-.7-1.6-1.6s.7-1.6,1.6-1.6,1.6.7,1.6,1.6-.7,1.6-1.6,1.6Z"/>
      <path class="st4" d="M81.1,100.5l-9.9-6.2c0-.2,0-.5,0-.7,0-2.1-1.7-3.9-3.9-3.9s-1.6.3-2.3.8l-15.2-9.6h-23.3v2.8h22.5l14.5,9.1c0,.3,0,.5,0,.8,0,2.1,1.7,3.9,3.9,3.9s1.7-.3,2.3-.8l9.8,6.2,1.5-2.4ZM67.4,95.3c-.9,0-1.6-.7-1.6-1.6s.7-1.6,1.6-1.6,1.6.7,1.6,1.6-.7,1.6-1.6,1.6Z"/>
    </g>
    <path class="st2" d="M42.6,100c0-.2-3.4-2-6.3-4.2-3-2.1-5.7-4.6-5.7-4.6-3.5-1.6-7-3.6-10.3-5.9,0,0-6-1.9-9.2-3-3.2-1-6.2,3.5-6.9,4.7-.4.6,2,4.5,4.8,7.9,2.7,3.5,6,6.4,5.9,6.4-3.3-4-6.2-8.3-8.6-12.8,0,0,0-2.8,5.5-.4,5.5,2.4,11.4,6.5,14.6,8,3.1,1.4,4.8.6,10.1,1.4,0,0-4.1-1.3-7.4-3.8-3.3-2.3-10.8-5.2-13-6.7,0,0,2.3,1.1,4.9,2.1,2.6,1,5.4,2,6.5,2.6,1.1.7,4.7,3.2,8.3,5.1,3.5,2,7,3.3,7,3.3Z"/>
    <path class="st1" d="M30.3,54.7s2.5-3.2,5-5.4c1.6-1.4,3.8-2.5,5.1-3.1,0,0,0,0,0,0,0,0-9.5,1.7-14.7,7.7-5.2,6-4.9,11.7-5,13.2,0,3.1,2.1,7.6,2.1,7.6,0,0-1.6-5.2-1.1-8.2s3-1.7,7.6-6,8.3-9.7,10.4-13.3c-3.5,1.6-9.4,7.5-9.4,7.5Z"/>
    <path class="st1" d="M34,33.1c1.7-1.4,5.4-2.9,5.4-2.9,0,0-7.3,1.2-11.7,4-4,2.5-5.9,7.2-6.5,8.5-2.5,5.3-2.7,12.4-2.7,12.4,0,0,1-5.7,2.3-8.6,1.3-2.9,3.6-2.5,8-5.2,3.6-2.3,8.5-8.3,10.1-10.3,0,0-2.2.8-4.8,2.2Z"/>
    <path class="st2" d="M33.2,33.5c2-1.7,6.1-3.3,6.1-3.3,0,0-7.3,1.2-11.7,4-4,2.5-5.9,7.2-6.5,8.5-2.5,5.3-2.7,12.4-2.7,12.4,0,0,1-5.7,2.3-8.6,1.3-2.9,3.6-2.5,8-5.2,3.6-2.3,8.3-8,9.9-10,0,0-2.4.9-5.3,2.3Z"/>
    <path class="st2" d="M30.3,54.7s2.5-3.2,5-5.4c1.6-1.4,3.8-2.5,5.1-3.1,0,0,0,0,0,0,0,0-9.5,1.7-14.7,7.7-5.2,6-4.9,11.7-5,13.2,0,3.1,2.1,7.6,2.1,7.6,0,0-1.6-5.2-1.1-8.2s3-1.7,7.6-6,8.3-9.7,10.4-13.3c-3.5,1.6-9.4,7.5-9.4,7.5Z"/>
    <path class="st2" d="M24.1,78.8c-2.4-3.3-3-6-7.8-10.2-4.2-3.6-8.4-6-10.8-6.9,3.2,3.2,5.1,6.2,5.1,6.2,0,0-4.5-4.5-6.7-6.2.2,1.1,2.9,6.6,6.7,10.7,4,4.3,8.8,5.2,10.9,6.3.7.4,2,1,3.3,3.2,0,0,0,0,0-.1,5.9,9.1,13.4,15.8,24.2,20.2.6.3,1.2.5,1.8.7l.8-1c-13.3-4.7-22.2-13.4-27.4-22.8Z"/>
    <path class="st2" d="M32,10.7c1.2-2.3,4.1-6.1,4.1-6.1-3.4,2.4-9.5,7.2-11.2,11-1.7,3.8-.6,6.6-.5,8.9-.9,2-2,5.5-2.3,7.6,1.5-3.9,3.1-7,3.1-7,0,0,3.1-2,5.1-4.6,1.4-1.9,3.7-9.2,5.9-14,0,0-1.5,1.2-4.1,4.2Z"/>
    <path class="st6" d="M67.4,3.9c-12.1,0-23.7,4.3-32.8,12.1-.4,1.1-.8,2.1-1.2,2.8,9.2-8.7,21.3-13.5,34-13.5,27.3,0,49.5,22.2,49.5,49.5s-22.2,49.5-49.5,49.5-9.3-.7-13.8-2l-.9,1.1h0c4.7,1.4,9.7,2.2,14.7,2.2,28,0,50.8-22.8,50.8-50.8S95.4,3.9,67.4,3.9Z"/>
    <path class="st2" d="M18.5,23.6c-.6-1.8-1.3-4.1-1.9-5.6,0,0-.2,2.7-.4,7.4-.6-2.7-.5-8.9-.5-8.9,0,0-2.3,6.7-1.6,13.8s2,6.8,2.6,7.8c.6,1,.9,5.2.9,5.2,0,0,1.5-6.4,1.6-9.4s0-7.7-.8-10.4Z"/>
    <path class="st2" d="M15.4,57.7c-1.1-2.7-5.4-5.3-7-10.2-1.3-3.9-3.9-9.8-4.8-12.2,0,0,1.9,1.4,4.6,5-1.6-3-4.3-6.8-4.3-6.8,0,0,8.5,7,11.3,13.1s1.1,10.2,1.4,10.9c.8,2.4,2.9,10.8,2.9,10.8,0,0-2.5-7-4-10.7Z"/>
  </g>
  <g id="Type">
    <g>
      <path class="st3" d="M132.8,30c0-9.5,7-17,17.2-17s17.1,5.6,17.1,17.3-9.1,17.1-17.1,17.1-17.2-5.4-17.2-17.4ZM162.3,34.1c-.7-10.2-6.5-19.9-14.8-19.9s-10.2,5.1-9.7,12.9c.7,9.6,6.8,18.9,14.9,18.9s10-5.5,9.6-11.9Z"/>
      <path class="st3" d="M183.5,45v-7.9c-1.3,5.6-4.8,10.3-9.8,10.3s-6.5-2.3-6.5-6.3,5-6.9,11-8.5l5.3-1.5c0-4.8-2.7-6.6-6.2-6.6s-5.3,1.2-7.8,4.1l-.5-.4c2.7-3.3,6.4-5.5,10.8-5.5s8.5,3.1,8.5,9v9.3c0,3.5.3,4.9,1.9,5.4v.7h-4.8c-1.2,0-1.9-.7-1.9-1.9ZM176.1,43.9c4.7,0,7.3-6.6,7.4-10.9v-1.2l-5.1,1.5c-2.3.6-6.7,2.3-6.7,6.2s2.3,4.5,4.5,4.5Z"/>
      <path class="st3" d="M205.7,46.3c1.6-.5,1.9-2,1.9-5.4v-11c0-2.8-.7-3.3-1.9-3.8v-.7l6.3-2.8.5.4v4c2.6-2.2,6.1-4.3,9.8-4.3s5.6,1.3,6.5,4.4c2.6-2.2,6.1-4.4,9.9-4.4s6.9,2.3,6.9,7.9v10.3c0,3.5.3,4.9,1.9,5.4v.7h-8.7v-.7c1.6-.5,1.9-2,1.9-5.4v-9.5c0-4.3-1.4-6.9-4.9-6.9s-4.3,1.1-6.9,3.1c.2.9.3,1.8.3,2.9v10.3c0,3.5.3,4.9,1.9,5.4v.7h-8.7v-.7c1.6-.5,1.9-2,1.9-5.4v-9.5c0-4.3-1.4-6.9-4.9-6.9s-4.3,1.1-6.9,3.2v13.1c0,3.5.3,4.9,1.9,5.4v.7h-8.7v-.7Z"/>
      <path class="st3" d="M247.9,35.8c0-8.2,6.4-13.2,12.6-13.2s9.9,4.5,9.9,8.6h-18.2v1.5c0,6.3,3.7,10.8,9.8,10.8s6.3-1.5,8.3-3.8l.4.5c-2.2,3.4-6,7.2-11.6,7.2s-11.4-3.8-11.4-11.6ZM265.6,30.6c-.6-3.9-3.3-7.1-6.6-7.1-4.1,0-6.1,3.4-6.7,7.1h13.3Z"/>
      <path class="st3" d="M288.4,45v-7.9c-1.3,5.6-4.8,10.3-9.8,10.3s-6.5-2.3-6.5-6.3,5-6.9,11-8.5l5.3-1.5c0-4.8-2.7-6.6-6.2-6.6s-5.3,1.2-7.8,4.1l-.5-.4c2.7-3.3,6.4-5.5,10.8-5.5s8.5,3.1,8.5,9v9.3c0,3.5.3,4.9,1.9,5.4v.7h-4.8c-1.2,0-1.9-.7-1.9-1.9ZM281,43.9c4.7,0,7.3-6.6,7.4-10.9v-1.2l-5.1,1.5c-2.3.6-6.7,2.3-6.7,6.2s2.3,4.5,4.5,4.5Z"/>
      <path class="st3" d="M296.6,46.3c1.6-.5,1.9-2,1.9-5.4V15.4c0-2.8-.7-3.3-1.9-3.8v-.7l6.3-2.8.5.4v32.4c0,3.5.3,4.9,1.9,5.4v.7h-8.7v-.7Z"/>
      <path class="st3" d="M134,78.4c1.2-.4,1.4-1.5,1.4-4.1v-16.1c0-2.6-.3-3.7-1.4-4.1v-.5h17.4l.3,4h-.5c-1.3-2.4-3-3.3-6.5-3.3h-5.4v10.4h2.9c4.4,0,5.7-.9,6.2-2.7h.5v6.1h-.5c-.6-1.9-1.8-2.7-6.2-2.7h-2.9v8.9c0,2.6.3,3.7,1.4,4.1v.5h-6.7v-.5Z"/>
      <path class="st3" d="M162.1,77.5v-5.9c-1,4.2-3.6,7.7-7.3,7.7s-4.9-1.7-4.9-4.7,3.8-5.1,8.2-6.4l4-1.2c0-3.6-2-4.9-4.7-4.9s-4,.9-5.8,3.1l-.4-.3c2-2.5,4.8-4.1,8.1-4.1s6.4,2.3,6.4,6.7v6.9c0,2.6.3,3.7,1.4,4.1v.5h-3.6c-.9,0-1.4-.5-1.4-1.4ZM156.5,76.7c3.5,0,5.5-5,5.5-8.2v-.9l-3.9,1.1c-1.7.5-5,1.7-5,4.7s1.7,3.3,3.3,3.3Z"/>
      <path class="st3" d="M167.9,78.4c1.2-.4,1.4-1.5,1.4-4.1v-8.3c0-2.1-.5-2.5-1.4-2.9v-.5l4.8-2.1.4.3v4.4c.5-1.3,1.5-2.4,2.6-3.2,1.3-.9,2.7-1.4,4.4-1.4s2.3.3,2.3,1.1-.8,2.3-2.4,2.3-2.4-.4-4.7-1.1c-.9.8-2.1,2.4-2.2,4.2v7.2c0,2.6.3,3.7,1.4,4.1v.5h-6.6v-.5Z"/>
      <path class="st3" d="M183.3,78.4c1.2-.4,1.4-1.5,1.4-4.1v-8.3c0-2.1-.5-2.5-1.4-2.9v-.5l4.8-2.1.4.3v3c2-1.6,4.6-3.2,7.4-3.2s4.2,1,4.9,3.3c2-1.6,4.6-3.3,7.5-3.3s5.2,1.7,5.2,5.9v7.7c0,2.6.3,3.7,1.4,4.1v.5h-6.6v-.5c1.2-.4,1.4-1.5,1.4-4.1v-7.1c0-3.2-1-5.1-3.7-5.1s-3.2.8-5.1,2.3c.1.6.2,1.4.2,2.2v7.7c0,2.6.3,3.7,1.4,4.1v.5h-6.6v-.5c1.2-.4,1.4-1.5,1.4-4.1v-7.1c0-3.2-1-5.1-3.7-5.1s-3.2.8-5.2,2.4v9.8c0,2.6.3,3.7,1.4,4.1v.5h-6.6v-.5Z"/>
      <path class="st3" d="M224.4,57.9v14.3c0,4.4.9,5.7,2.7,6.2v.5h-4.8v-.5c1.2-.4,1.4-1.5,1.4-4.1v-16.1c0-2.6-.3-3.7-1.9-4.1v-.5h4.1l15.1,18.9v-12.2c0-4.4-.9-5.7-2.7-6.2v-.5h4.9v.5c-1.2.4-1.4,1.5-1.4,4.1v20.9h-.5l-16.9-21.3Z"/>
      <path class="st3" d="M243.8,70.6c0-6.1,4.8-9.9,9.5-9.9s7.5,3.3,7.5,6.5h-13.6v1.2c0,4.7,2.8,8.1,7.4,8.1s4.7-1.2,6.2-2.8l.3.4c-1.7,2.5-4.5,5.4-8.7,5.4s-8.5-2.8-8.5-8.7ZM257,66.7c-.5-3-2.4-5.3-4.9-5.3-3.1,0-4.6,2.5-5,5.3h10Z"/>
      <path class="st3" d="M271.7,61.4v-.5h6.2v.5c-1.2.4-.9,1.4-.2,3.9l2.7,9.6,4.8-14h2.2l4.8,13.9,2.8-9.5c.7-2.5.3-3.6-.9-3.9v-.5h3.9v.5c-1,.4-1.6,1.4-2.3,3.9l-4.1,13.6h-1.8l-5-14.7-5.1,14.7h-1.8l-4-13.6c-.7-2.5-1.3-3.5-2.1-3.9Z"/>
      <path class="st3" d="M296.5,70.4c0-5.8,4.7-9.7,9.6-9.7s9.6,2.6,9.6,9-5.3,9.6-9.6,9.6-9.6-2.8-9.6-8.9ZM312.1,72.4c0-4.6-3.1-11.4-7.8-11-3.1.3-4.2,3.2-4.2,6.3s2.5,10.8,7.3,10.8,4.7-3.1,4.7-6.1Z"/>
      <path class="st3" d="M316.6,78.4c1.2-.4,1.4-1.5,1.4-4.1v-8.3c0-2.1-.5-2.5-1.4-2.9v-.5l4.8-2.1.4.3v4.4c.5-1.3,1.5-2.4,2.6-3.2,1.3-.9,2.7-1.4,4.4-1.4s2.3.3,2.3,1.1-.8,2.3-2.4,2.3-2.4-.4-4.7-1.1c-.9.8-2.1,2.4-2.2,4.2v7.2c0,2.6.3,3.7,1.4,4.1v.5h-6.6v-.5Z"/>
      <path class="st3" d="M331.3,78.4c1.2-.4,1.4-1.5,1.4-4.1v-19.1c0-2.1-.5-2.5-1.4-2.9v-.5l4.8-2.1.4.3v20.7l5.7-5.6c2.3-2.3,2.3-3.7,1.5-3.9v-.3h4.6v.5c-1.2.4-2.6.9-4.4,2.7l-2.3,2.3,4.3,7.7c1.4,2.5,2.5,4.2,4.2,4.2v.5h-2.9c-1.8,0-3.4-1.1-5.1-4.3l-3-5.7-2.6,2.6v2.8c0,2.6.3,3.7,1.4,4.1v.5h-6.6v-.5Z"/>
    </g>
    <path class="st3" d="M204.7,43.1c-1.6,2-3.2,2.4-4.3,2.4-2.1,0-3.2-1.3-3.2-4.3v-16.5h7.2l.2-.8h-7.4v-6.3h-.8l-4.1,3.6v2.7h-3.1v.8h3.1v16.5c0,5.2,1.7,7.2,5,7.2s5.3-1.9,7.9-4.8l-.5-.5Z"/>
    <path class="st3" d="M272.6,75.3c-1.2,1.5-2.4,1.8-3.2,1.8-1.6,0-2.4-1-2.4-3.2v-12.4h5.4v-.6c.1,0-5.4,0-5.4,0v-4.8h-.6l-3.1,2.7v2h-2.3v.6h2.3v12.3c0,3.9,1.3,5.4,3.7,5.4s4-1.4,5.9-3.6l-.4-.4Z"/>
    <g>
      <path class="st3" d="M134,101.5c.5-.1.6-.5.6-1.8v-7.1c0-1.3-.2-1.7-.6-1.8v-.2h3.2c3.3,0,4.4,1.6,4.4,3.2s-1.6,3.6-4.5,3.6h-1.1v2.4c0,1.3.1,1.7.6,1.8v.2h-2.6v-.2ZM140.2,94c0-1.7-1-3.3-3.6-3.3s-.5,0-.7,0v6.3h1.1c2,0,3.2-1.1,3.2-3Z"/>
      <path class="st3" d="M141.8,97.8c0-2.5,2-4.2,4.2-4.2s4.2,1.2,4.2,4.1-2.3,4.2-4.2,4.2-4.2-1.3-4.2-4ZM149,98.6c0-2.1-1.5-4.8-3.6-4.7-1.6,0-2.4,1.4-2.4,3s1.3,4.6,3.4,4.6,2.5-1.4,2.5-2.9Z"/>
      <path class="st3" d="M150.1,93.9v-.2h2.3v.2c-.5.1-.4.5,0,1.7l1.4,4.8,2.3-6.7h.6l2.3,6.7,1.4-4.7c.3-1.1.2-1.6-.4-1.7v-.2h1.6v.2c-.4.1-.7.5-1,1.7l-1.8,6.1h-.7l-2.3-6.6-2.3,6.6h-.7l-1.8-6.1c-.4-1.2-.6-1.6-.9-1.7Z"/>
      <path class="st3" d="M161.2,97.9c0-2.6,2-4.4,4.2-4.4s3.2,1.3,3.2,2.8h-6.3c0,.2,0,.5,0,.7,0,2.2,1.4,3.7,3.4,3.7s2.1-.6,2.8-1.4h.1c-.8,1.3-2.1,2.4-3.8,2.4s-3.8-1.3-3.8-3.9ZM167.4,96.2c-.2-1.1-1-2.3-2.5-2.3-1.4,0-2.2,1-2.4,2.3h4.9Z"/>
      <path class="st3" d="M169.8,101.5c.5-.1.6-.5.6-1.8v-3.7c0-1.1-.2-1.3-.6-1.5v-.2l1.7-.8h.1v2.1c.3-.6.7-1.2,1.2-1.5.5-.4,1.1-.6,1.8-.6s1,.2,1,.4-.4.9-.9.9-1.1-.2-2-.4c-.5.3-1,1.2-1.1,2h0v3.2c0,1.3.2,1.7.6,1.8v.2h-2.5v-.2Z"/>
      <path class="st3" d="M175.8,97.9c0-2.6,2-4.4,4.2-4.4s3.2,1.3,3.2,2.8h-6.3c0,.2,0,.5,0,.7,0,2.2,1.4,3.7,3.4,3.7s2.1-.6,2.8-1.4h.1c-.8,1.3-2.1,2.4-3.8,2.4s-3.8-1.3-3.8-3.9ZM181.9,96.2c-.2-1.1-1-2.3-2.5-2.3-1.4,0-2.2,1-2.4,2.3h4.9Z"/>
      <path class="st3" d="M184.4,97.9c0-2.2,1.5-4.3,4.3-4.3.9,0,1.6.3,2.2.6v-3c0-1.1-.2-1.3-.6-1.5v-.2l1.8-.8h.1v10.9c0,1.3.1,1.7.6,1.8v.2h-1.4c-.3,0-.5-.2-.5-.5v-.9c-.8.8-1.8,1.6-2.9,1.6-2,0-3.5-1.7-3.5-4ZM188.6,101.1c.8,0,1.6-.4,2.2-1.1v-3.9c-.1-1-1.3-2.2-2.7-2.2s-2.6,1.3-2.6,3,.9,4.2,3.1,4.2Z"/>
      <path class="st3" d="M198.2,100.7l-.5,1h-.2v-10.5c0-1.1-.2-1.3-.6-1.5v-.2l1.7-.8h.1v5.9c.8-.6,1.9-1.1,3-1.1,2,0,3.5,1.6,3.5,3.9s-1.5,4.3-4.2,4.4c-1.2,0-2.3-.6-2.9-1.2ZM201.6,101.5c1.7,0,2.5-1.2,2.5-3.1s-.8-4.3-3.1-4.3-1.6.4-2.2.8v4.1c0,1.2,1.4,2.5,2.8,2.5Z"/>
      <path class="st3" d="M205,104.3c0-.3.4-.9,1-.9s1.3.2,2,.4c.6-.5,1.1-1.3,1.5-2.1l-2.6-6.2c-.5-1.2-.9-1.5-1.2-1.7v-.2h2.4v.2c-.5.1-.4.5.2,1.7l2,4.6,2-4.6c.4-1,.4-1.6-.1-1.7v-.2h1.8v.2c-.4.1-.9.5-1.4,1.7l-2.5,5.7c-1.4,3.1-2.8,3.5-3.8,3.5-.6,0-1.1-.2-1.1-.4Z"/>
      <path class="st3" d="M218,95c0-3.8,2.8-6.7,6.8-6.7s6.8,2.2,6.8,6.9-3.6,6.8-6.8,6.8-6.8-2.1-6.8-6.9ZM229.7,96.6c-.3-4-2.6-7.9-5.9-7.9s-4,2-3.8,5.1c.3,3.8,2.7,7.5,5.9,7.5s4-2.2,3.8-4.7Z"/>
      <path class="st3" d="M238.8,100.9v-3.1c-.5,2.2-1.9,4.1-3.9,4.1s-2.6-.9-2.6-2.5,2-2.7,4.3-3.4l2.1-.6c0-1.9-1.1-2.6-2.5-2.6s-2.1.5-3.1,1.6l-.2-.2c1.1-1.3,2.5-2.2,4.3-2.2s3.4,1.2,3.4,3.6v3.7c0,1.4.1,1.9.8,2.1v.3h-1.9c-.5,0-.8-.3-.8-.8ZM235.9,100.5c1.9,0,2.9-2.6,2.9-4.3v-.5l-2,.6c-.9.2-2.7.9-2.7,2.5s.9,1.8,1.8,1.8Z"/>
      <path class="st3" d="M248.8,101.4c.6-.2.8-.8.8-2.1v-4.4c0-1.1-.3-1.3-.8-1.5v-.3l2.5-1.1.2.2v1.6c1-.9,2.4-1.7,3.9-1.7s2.2.5,2.6,1.7c1-.9,2.4-1.7,3.9-1.7s2.7.9,2.7,3.1v4.1c0,1.4.1,1.9.8,2.1v.3h-3.5v-.3c.6-.2.8-.8.8-2.1v-3.7c0-1.7-.6-2.7-2-2.7s-1.7.4-2.7,1.2c0,.3.1.7.1,1.1v4.1c0,1.4.1,1.9.8,2.1v.3h-3.5v-.3c.6-.2.8-.8.8-2.1v-3.7c0-1.7-.6-2.7-2-2.7s-1.7.4-2.7,1.3v5.2c0,1.4.1,1.9.8,2.1v.3h-3.5v-.3Z"/>
      <path class="st3" d="M265.9,97.3c0-3.2,2.5-5.2,5-5.2s3.9,1.8,3.9,3.4h-7.2v.6c0,2.5,1.5,4.3,3.9,4.3s2.5-.6,3.3-1.5l.2.2c-.9,1.3-2.4,2.8-4.6,2.8s-4.5-1.5-4.5-4.6ZM272.9,95.2c-.2-1.6-1.3-2.8-2.6-2.8-1.6,0-2.4,1.3-2.7,2.8h5.3Z"/>
      <path class="st3" d="M282.3,100.9v-3.1c-.5,2.2-1.9,4.1-3.9,4.1s-2.6-.9-2.6-2.5,2-2.7,4.3-3.4l2.1-.6c0-1.9-1.1-2.6-2.5-2.6s-2.1.5-3.1,1.6l-.2-.2c1.1-1.3,2.5-2.2,4.3-2.2s3.4,1.2,3.4,3.6v3.7c0,1.4.1,1.9.8,2.1v.3h-1.9c-.5,0-.8-.3-.8-.8ZM279.3,100.5c1.9,0,2.9-2.6,2.9-4.3v-.5l-2,.6c-.9.2-2.7.9-2.7,2.5s.9,1.8,1.8,1.8Z"/>
      <path class="st3" d="M285.9,101.4c.6-.2.8-.8.8-2.1v-10.1c0-1.1-.3-1.3-.8-1.5v-.3l2.5-1.1.2.2v12.8c0,1.4.1,1.9.8,2.1v.3h-3.5v-.3Z"/>
      <path class="st3" d="M293.4,101.4c.6-.2,1.1-.7,1.6-2l3.6-8.8c.2-.4.1-.7,0-1l-.2-.5,1.9-.8,4.7,11.2c.5,1.3,1,1.7,1.5,2v.3h-3.5v-.3c.6-.2.4-.7-.2-2l-1.1-2.7h-5.1l-1.1,2.7c-.5,1.3-.4,1.8.2,2v.3h-2.2v-.3ZM301.4,96.4l-2.5-5.9-2.4,5.9h4.8Z"/>
      <path class="st3" d="M306.9,101.4c.6-.2.8-.8.8-2.1v-8.5c0-1.4-.1-1.9-.8-2.1v-.3h3.5v.3c-.6.2-.8.8-.8,2.1v8.5c0,1.4.1,1.9.8,2.1v.3h-3.5v-.3Z"/>
      <path class="st3" d="M248,99.8c-.6.8-1.3,1-1.7,1-.8,0-1.3-.5-1.3-1.7v-6.5h2.9v-.3c0,0-2.9,0-2.9,0v-2.5h-.3l-1.6,1.4v1.1h-1.2v.3h1.2v6.5c0,2.1.7,2.9,2,2.9s2.1-.8,3.1-1.9l-.2-.2Z"/>
    </g>
  </g>
</svg>