<?xml version="1.0" encoding="utf-8"?>
<!-- Generator: Adobe Illustrator 27.6.1, SVG Export Plug-In . SVG Version: 6.00 Build 0)  -->
<svg version="1.1" id="Layer_1" xmlns="http://www.w3.org/2000/svg" xmlns:xlink="http://www.w3.org/1999/xlink" x="0px" y="0px"
	 viewBox="0 0 72 72" style="enable-background:new 0 0 72 72;" xml:space="preserve">
<style type="text/css">
	.st0{fill:#43AA96;}
	.st1{fill-rule:evenodd;clip-rule:evenodd;fill:#FFF8DF;}
	.st2{clip-path:url(#SVGID_00000023280235273501056330000015400607585499047560_);fill:#71624F;}
</style>
<g>
	<path class="st0" d="M63,72H9c-5,0-9-4-9-9V9c0-5,4-9,9-9h54c5,0,9,4,9,9v54C72,68,68,72,63,72z"/>
	<path class="st1" d="M33.3,9.1h5.4c1.5,0,2.7,1.2,2.7,2.7v18.8h18.9c1.5,0,2.7,1.2,2.7,2.7v5.4c0,1.5-1.2,2.7-2.7,2.7H41.4v18.8
		c0,1.5-1.2,2.7-2.7,2.7h-5.4c-1.5,0-2.7-1.2-2.7-2.7V41.4H11.8c-1.5,0-2.7-1.2-2.7-2.7v-5.4c0-1.5,1.2-2.7,2.7-2.7h18.9V11.8
		C30.6,10.3,31.8,9.1,33.3,9.1L33.3,9.1z"/>
	<g>
		<defs>
			<path id="SVGID_1_" d="M63,72H9c-5,0-9-4-9-9V9c0-5,4-9,9-9h54c5,0,9,4,9,9v54C72,68,68,72,63,72z"/>
		</defs>
		<clipPath id="SVGID_00000040534601478476001280000013993363497376752549_">
			<use xlink:href="#SVGID_1_"  style="overflow:visible;"/>
		</clipPath>
		<path style="clip-path:url(#SVGID_00000040534601478476001280000013993363497376752549_);fill:#71624F;" d="M26.8,45.7
			c-0.2-0.2-0.5-0.3-0.8-0.2l-22.4,5c-0.3,0.1-0.6,0.3-0.7,0.6c-0.1,0.3,0,0.6,0.2,0.9l3.1,3.1l-24.5,24.5l13.7,8.6l22-22l3.1,3.1
			c0.2,0.2,0.6,0.3,0.9,0.2c0.3-0.1,0.5-0.3,0.6-0.7l5-22.4C27.1,46.3,27,46,26.8,45.7z"/>
	</g>
</g>
</svg>
