<?xml version="1.0" encoding="UTF-8"?>
<svg id="Layer_1" data-name="Layer 1" xmlns="http://www.w3.org/2000/svg" width="1in" height="1in" version="1.1" viewBox="0 0 72 72">
  <defs>
    <style>
      .cls-1 {
        fill: #71624f;
      }

      .cls-1, .cls-2, .cls-3, .cls-4, .cls-5, .cls-6, .cls-7 {
        stroke-width: 0px;
      }

      .cls-2 {
        fill: #d7c593;
      }

      .cls-3 {
        fill: #43aa96;
      }

      .cls-4 {
        fill: #dc574b;
      }

      .cls-5 {
        fill: #fff8df;
      }

      .cls-6 {
        fill: #c04040;
      }

      .cls-7 {
        fill: #876430;
      }
    </style>
  </defs>
  <rect class="cls-2" x="0" y="0" width="72" height="72" rx="9" ry="9"/>
  <polygon class="cls-4" points="35.4 72 19.3 72 24.2 52.3 39.4 55.8 35.4 72"/>
  <polygon class="cls-6" points="39.4 55.8 35.9 55 32.3 55.8 35.9 70 39.4 55.8"/>
  <polygon class="cls-4" points="38.2 72 54.3 72 49.4 52.3 34.2 55.8 38.2 72"/>
  <g>
    <path class="cls-1" d="M51.5,55.4c-2.4.8-4.7,1.2-7.2,1.4-2.5.8-5.2,1.3-8,1.3s-5.2-.4-7.7-1.2c-.5,0-1.1-.2-1.6-.2-1.4-.2-3.2-.2-5-.5,0,0,0,.1.1.2h0c.9,1.5,2.5,2.3,4.2,2.1h0c1.2-.2,2.5.2,3.4,1.1h0c1.3,1.2,3.1,1.5,4.7.7h0c1.1-.5,2.5-.5,3.6,0h0c1.6.7,3.4.5,4.7-.7h0c.9-.9,2.2-1.3,3.4-1.1h0c1.7.2,3.4-.6,4.2-2h0c.2-.4.5-.7.7-.9,0,0,0,0,0,0Z"/>
    <path class="cls-1" d="M64.3,27.7h0c-.8-1-1.1-2.3-.8-3.5h0c.4-1.7-.3-3.4-1.7-4.4h0c-1-.8-1.7-1.9-1.8-3.1h0c-.2-1.8-1.3-3.2-2.9-3.7h0c-1.2-.4-2.2-1.3-2.6-2.5h0c-.7-1.6-2.2-2.7-3.9-2.7h0c-1.3,0-2.4-.6-3.2-1.6h0c-1.1-1.4-2.9-1.9-4.5-1.4h0c-1.2.4-2.5.2-3.6-.5h0c-1.4-1-3.3-1-4.7,0h0c-1,.7-2.3.9-3.6.6h0c-1.6-.5-3.4,0-4.5,1.4h0c-.8,1-2,1.6-3.2,1.6h0c-1.7,0-3.2,1.1-3.9,2.7h0c-.5,1.2-1.4,2.1-2.6,2.5h0c-1.6.5-2.8,2-2.9,3.7h0c-.1,1.3-.8,2.4-1.8,3.2h0c-1.4,1-2.1,2.7-1.7,4.4h0c.3,1.3,0,2.6-.8,3.6h0c-1,1.4-1.2,3.2-.4,4.7h0c.6,1.1.7,2.4.3,3.6h0c-.2.6-.3,1.1-.3,1.7.6.1,1.3.5,1.7.7,0,0,0,0,.1,0,.3,0,.7.2,1,.2-.6-2.1-.9-4.4-.9-6.7,0-14.3,11.6-26,26-26s26,11.6,26,26-.3,4.1-.7,6.1c1-.4,1.9-.9,2.9-1.3,0-.3-.1-.5-.2-.7h0c-.4-1.2-.3-2.5.3-3.6h0c.8-1.5.7-3.4-.4-4.7Z"/>
    <path class="cls-3" d="M36.2,7.1c-13.7,0-24.7,11.1-24.7,24.7s.4,5.3,1.2,7.6c.4.1.7,1.1,1.1,1.2,1.5.4,3,.7,4.4.4,0,0,0,0,0,0,0-.3,0-.7,0-1,0-.3.3-.7.6-.9.2.2.4.4.5.6.1.2.2.5.2.8,0,.2,0,.4,0,.6,0,0,0,.2,0,.2.2,0,.3,0,.5,0,.2,0,.3,0,.5.1.7-.3,1.3-.1,1.8.4.8.3,1.5,1,1.4,1.9,0,.1,0,.3,0,.4,1,.3,2,.6,3,.8-3.9-3-6.3-7.7-6.3-12.9,0-9,7.3-16.4,16.4-16.4s16.4,7.3,16.4,16.4-1,6.4-2.7,9c.3,0,.6,0,.8.2,0,0,0,0,0,0,.4-.2.8-.3,1.3-.3.6,0,1.3-.2,1.9-.3.1-.1.3-.2.4-.2.3,0,.5-.1.8-.2,0-.1,0-.3,0-.4,0-.5.1-1.1.4-1.5.1.2.3.3.4.5.2.3.4.6.5.9,0,0,0,0,0,0,1.1-.4,2.1-.8,3.2-1.1.6-2.2,1-4.5,1-6.9,0-13.7-11.1-24.7-24.7-24.7ZM58.2,26.6c.1.2.2.4.3.5,0,.2,0,.4,0,.6-.6,0-1.2-.2-1.6-.6-.2-.1-.3-.3-.5-.4-.2-.2-.3-.4-.4-.7,0-.1,0-.3,0-.4,0-.1,0-.3,0-.4.2,0,.4,0,.6.1.3,0,.7.2,1,.4.1.1.3.2.4.4.1.1.2.3.3.4ZM54.4,27.3c0-.2,0-.4.1-.6,0-.2.2-.5.4-.7.2-.2.4-.4.6-.5,0,.2.1.4.2.6,0,.3.1.7.1,1,0,.3-.1.7-.3,1-.2.3-.4.6-.8.7-.2-.2-.3-.5-.3-.7,0-.3,0-.5,0-.8ZM54,25.9c-.4-.4-.5-.9-.6-1.5,0-.2,0-.4,0-.6,0-.5.4-1,.8-1.3,0,.2.2.4.3.6.1.3.2.6.3,1,0,.3,0,.7-.1,1-.1.3-.3.7-.7.8ZM54.9,30.3c0-.2.1-.4.2-.6.2-.4.7-.8,1.2-1,0,.2,0,.4,0,.6,0,.3,0,.7,0,1,0,.2,0,.3-.2.5,0,.2-.2.3-.3.4-.2.3-.5.5-.9.6-.3-.5-.2-1.1,0-1.6ZM57.6,24.2c-.6.2-1.2,0-1.7-.3-.2-.1-.4-.2-.5-.4-.2-.2-.4-.4-.5-.6-.1-.2-.2-.5-.3-.7.2,0,.4,0,.7,0,.7,0,1.4.4,1.9.9.3.3.5.7.5,1.1ZM55.4,19.9c.3.2.6.6.7,1-.5.2-1.2.1-1.7,0-.2,0-.4-.1-.6-.3-.4-.3-.8-.7-1-1.2.2,0,.4,0,.6,0,.3,0,.7,0,1,0,.3.1.7.3,1,.5ZM32.2,10.9c.1-.3.3-.6.5-.9.2-.3.5-.5.9-.6.4-.2.8-.3,1.2-.2,0,.6-.4,1.1-.8,1.6-.2.2-.3.3-.5.4-.4.3-1,.4-1.5.4,0-.2.1-.4.2-.6ZM28.9,11.8c.1-.7.5-1.3,1.1-1.8.3-.2.7-.4,1.1-.4,0,.6-.2,1.2-.5,1.7-.1.2-.3.4-.4.5-.2.2-.4.3-.7.4-.2.1-.5.2-.8.2,0-.2,0-.4.1-.6ZM25.7,13.2c0-.4,0-.7.2-1,.1-.3.3-.6.6-.9.3-.3.7-.5,1.1-.5.2.6,0,1.2-.3,1.7,0,.2-.2.4-.3.6-.3.4-.8.7-1.3.8,0-.2,0-.4,0-.7ZM22.9,14.1c0-.3.2-.7.5-1,.2-.3.6-.6,1-.7.3.5.2,1.2,0,1.8,0,.2-.1.4-.2.6-.1.2-.3.4-.5.6-.2.2-.4.3-.7.4,0-.2,0-.4,0-.6,0-.3,0-.7,0-1ZM20.5,15.4c.2-.4.5-.7.8-.9.4.5.4,1.1.3,1.7,0,.2,0,.4-.1.6,0,.2-.2.5-.4.7-.2.2-.4.4-.6.5,0-.2-.1-.4-.2-.6-.2-.7-.1-1.4.2-2.1ZM18.1,18.1c.1-.4.3-.8.7-1,.2.2.3.5.4.8,0,.3.1.6.1.9,0,.2,0,.4,0,.7,0,.5-.4,1-.8,1.3,0-.2-.2-.4-.3-.6-.2-.3-.3-.7-.3-1,0-.4,0-.7.1-1.1ZM16.1,21.1c0-.4.2-.8.5-1.1.5.3.7,1,.8,1.5,0,.2,0,.4,0,.7,0,.3,0,.5-.2.8,0,.2-.2.5-.4.7-.1-.2-.3-.4-.4-.5-.2-.3-.4-.6-.4-1,0-.3,0-.7,0-1.1ZM15,23.3c.5.3.9.8,1.1,1.4,0,.2.1.4.2.6,0,.3,0,.5,0,.8,0,.3-.2.5-.3.7-.1-.2-.3-.3-.5-.5-.5-.5-.8-1.2-.8-1.9,0-.4,0-.8.3-1.1ZM15.8,32.7c0-.3,0-.7.1-1,.1-.3.3-.6.5-.9.2-.3.6-.5.9-.5.2.5.1,1.1,0,1.6,0,.2-.1.4-.3.5-.3.4-.7.8-1.2.9,0-.2,0-.4,0-.6ZM16.1,35c0-.3.2-.6.4-.9.2-.3.5-.6.8-.7,0,.1.1.2.2.4,0,.1,0,.3,0,.4,0,.3,0,.5,0,.8,0,.2,0,.4-.2.6-.2.5-.6.9-1.1,1.1,0-.2,0-.4-.1-.6,0-.3,0-.7,0-1ZM17.5,28.9c-.1.2-.2.3-.3.5-.2.2-.4.3-.6.5-.2.1-.5.2-.7.2,0-.2,0-.4,0-.6,0-.7.4-1.3.9-1.7.3-.2.6-.4,1-.4,0,.3,0,.5,0,.8,0,.3-.2.5-.3.7ZM13.9,26.8c.6.2,1,.7,1.3,1.2.1.2.2.4.3.6.2.5.1,1.1,0,1.6-.2-.1-.4-.3-.5-.4-.3-.2-.5-.5-.7-.8-.2-.3-.3-.7-.4-1,0-.4,0-.8.2-1.2ZM13.4,30.5c.6,0,1.1.5,1.5,1,.1.2.3.3.4.5.2.5.3,1,.2,1.5-.2-.1-.4-.2-.6-.3-.3-.2-.6-.4-.8-.6-.2-.3-.4-.6-.5-.9-.1-.4-.2-.8,0-1.2ZM13.7,35.3c-.2-.4-.3-.8-.2-1.2.6,0,1.2.3,1.6.7.2.1.3.3.4.5.2.2.3.5.3.7,0,.3.1.5,0,.8-.2,0-.4-.1-.6-.2-.7-.2-1.2-.7-1.6-1.3ZM16.3,39.9c-.3,0-.7-.2-1-.3-.3-.2-.6-.4-.8-.7-.3-.3-.4-.7-.4-1.1.6-.1,1.2.1,1.7.5.2.1.4.2.5.4.4.4.6.9.7,1.4-.2,0-.4,0-.6,0ZM18.2,38.5c-.1.5-.4.9-.9,1.2,0-.2-.2-.4-.2-.6-.3-.6-.2-1.4,0-2,0-.2.2-.3.3-.5.1-.1.3-.2.4-.3.2.2.3.4.4.7,0,.3,0,.5,0,.8,0,.2,0,.4,0,.6ZM18.2,26c-.1.2-.3.3-.4.4-.4.3-.9.5-1.4.5,0-.2.1-.4.2-.6,0-.2,0-.3.2-.5,0-.2.2-.3.3-.4.1-.1.2-.3.3-.4.1-.1.3-.2.4-.3.3-.2.7-.3,1-.2,0,.6-.2,1.1-.5,1.5ZM20.1,22.2c0,.1,0,.2-.2.4-.1.2-.3.4-.5.6-.1.1-.3.3-.5.4-.4.2-1,.3-1.5.2.1-.2.2-.4.3-.6.1-.3.3-.6.6-.8.2-.2.5-.4.8-.5.3-.1.7-.2,1.1,0,0,.1,0,.3,0,.4ZM21.7,20.1c-.2.2-.4.4-.6.5-.2.1-.3.2-.5.3-.5.2-1,.2-1.5,0,.1-.2.2-.4.4-.5.4-.6,1-1,1.6-1.1.4,0,.7,0,1.1.1,0,.3-.2.5-.4.7ZM23,18.3c-.2,0-.4.1-.6.2-.5.1-1,0-1.5-.3.2-.1.3-.3.4-.5.1-.1.2-.2.4-.3.1,0,.3-.2.4-.3.2,0,.3-.1.5-.2.2,0,.3,0,.5,0,.4,0,.7,0,1,.3-.2.5-.7.8-1.2,1.1ZM26.4,15.9c0,0-.2.2-.3.2-.2.1-.5.2-.8.3-.2,0-.4,0-.6,0-.5,0-1-.2-1.4-.5.2-.1.3-.3.5-.4.3-.2.6-.4.9-.5.3,0,.7-.1,1,0,.4,0,.7.2,1,.5,0,.1-.2.2-.3.3ZM28.8,14.7c-.2.1-.5.2-.8.2-.2,0-.4,0-.6,0-.5,0-1-.3-1.3-.7.2,0,.4-.2.6-.3.6-.3,1.3-.4,2-.2.3.1.7.3.9.6-.2.2-.4.4-.7.5ZM30.8,13.8c-.2,0-.4,0-.6-.1-.5-.1-.9-.5-1.2-.9.2,0,.4-.1.6-.2.2,0,.3-.1.5-.1.2,0,.3,0,.5,0,.2,0,.3,0,.5,0,.2,0,.3.1.5.2.3.2.6.4.8.7-.4.4-1,.4-1.5.4ZM34.6,13.3c-.1,0-.3,0-.4,0-.1,0-.3,0-.4,0-.2,0-.4-.1-.6-.2-.4-.2-.8-.6-1-1.1.2,0,.4,0,.6-.1.7-.1,1.4,0,1.9.4.1.1.3.2.4.4.1.1.2.3.2.5-.2.1-.5.2-.8.2ZM38,13.3c-.1,0-.3,0-.4,0-.3,0-.5-.1-.8-.2-.2,0-.4-.2-.5-.3-.4-.3-.7-.7-.8-1.3.2,0,.4,0,.6,0,.3,0,.7,0,1,.2.3.1.6.3.8.5.3.2.5.6.5.9-.1,0-.3,0-.4,0ZM37.4,10.6c-.2.1-.4.3-.6.3-.2.1-.5.2-.8.2-.3,0-.5,0-.8,0,.1-.2.2-.4.3-.6.2-.3.4-.6.7-.8.3-.2.6-.4,1-.5.4-.1.8-.1,1.2,0-.1.6-.6,1.1-1,1.4ZM39.8,13.4c-.2-.1-.3-.2-.5-.4-.4-.4-.6-.8-.6-1.4.2,0,.4,0,.6,0,.3,0,.7.2,1,.3.3.2.5.4.7.7.2.3.4.6.3,1-.5.1-1.1,0-1.5-.4ZM40.8,11.1c-.2.1-.4.2-.6.2-.3,0-.5,0-.8,0-.3,0-.5,0-.8-.2.2-.2.3-.3.4-.5.2-.3.5-.5.8-.7.3-.2.7-.3,1-.3.4,0,.8,0,1.2.2,0,.3-.3.5-.5.7-.2.2-.5.4-.8.5ZM42.4,11.4c.3-.2.6-.4.9-.5.2,0,.3-.1.5-.1.2,0,.4,0,.5,0,.2,0,.4,0,.6,0,.2,0,.4.2.5.3-.3.5-.9.8-1.4,1-.2,0-.4.1-.6.1-.3,0-.5,0-.8,0-.1,0-.3,0-.4-.1-.1,0-.2-.1-.4-.2.2-.1.3-.3.5-.4ZM44.2,14.9c-.3,0-.5,0-.8-.2-.2-.1-.5-.3-.7-.4-.1-.1-.3-.3-.4-.4-.1-.2-.3-.4-.3-.7,0-.2,0-.5,0-.8.2,0,.4.1.6.2.3.1.6.3.9.5.3.2.5.5.6.8.2.3.3.7.2,1ZM46.8,16.4c-.3,0-.5-.1-.7-.3-.2-.2-.4-.3-.6-.5-.1-.2-.2-.3-.3-.5-.2-.4-.3-1-.2-1.5.2.1.4.2.6.3.6.3,1.1.9,1.3,1.5,0,.2,0,.3,0,.5,0,.2,0,.4-.1.5ZM46.5,13.7c-.5,0-1-.2-1.4-.6.2-.1.4-.2.5-.4.3-.2.6-.3,1-.4.4,0,.7,0,1.1,0,.4,0,.8.3,1.1.6-.4.5-1,.7-1.6.8-.2,0-.4,0-.7,0ZM49.2,18.3c-.5-.1-.9-.6-1.2-1-.1-.2-.2-.3-.3-.5-.1-.5-.1-1,0-1.5.2.1.3.2.5.4.3.2.5.5.7.7.2.3.3.6.3.9,0,.4,0,.7-.2,1ZM49.2,15.6c-.3,0-.5-.2-.7-.3-.2-.1-.4-.3-.6-.5.2,0,.4-.2.6-.3.6-.3,1.4-.3,2.1,0,.4.1.7.4.9.7-.4.4-1.1.5-1.7.5-.2,0-.4,0-.7,0ZM51.2,20.6c-.3-.1-.5-.3-.6-.5-.2-.2-.3-.5-.4-.7,0-.2-.1-.4-.2-.6,0-.2,0-.5,0-.8,0-.3.2-.5.3-.7.1.2.3.3.5.5.2.2.4.5.6.8.1.3.2.6.2,1,0,.4,0,.7-.3,1ZM51,17.5c0,0-.2-.2-.3-.3,0-.1-.2-.2-.2-.3.2,0,.4-.1.6-.2.3,0,.7-.1,1,0,.2,0,.4,0,.5.1.2,0,.3.1.5.2.2,0,.3.2.5.4.1.1.3.3.3.5-.5.3-1.1.3-1.7.2-.2,0-.4,0-.6-.2-.2-.1-.5-.2-.7-.4ZM52.8,23.1c-.2-.2-.4-.4-.5-.6,0-.1-.1-.2-.2-.4,0-.1,0-.3-.1-.4,0-.2,0-.4,0-.6,0-.5.2-1,.6-1.4,0,.2.2.4.4.5.4.6.6,1.3.4,1.9,0,.3-.2.7-.5.9ZM55.2,39.1c-.2.6-.7,1.2-1.3,1.5-.3.1-.7.2-1.1.1,0-.3,0-.5.2-.8.1-.2.3-.5.5-.7.1-.1.3-.3.4-.4.4-.3.9-.4,1.5-.3,0,.2-.1.4-.2.6ZM56.1,35.9c0,.3-.2.7-.4.9-.2.3-.4.5-.7.7-.3.2-.7.3-1,.3,0-.1,0-.3,0-.4,0-.1,0-.3,0-.4,0-.3.2-.5.4-.7.1-.2.2-.3.4-.5.4-.3.9-.6,1.4-.6,0,.2,0,.4-.1.6ZM55.7,34.5c-.3.2-.6.4-1,.4,0-.3-.1-.5,0-.8,0-.3.1-.5.2-.8,0-.2.2-.4.3-.5.3-.4.8-.7,1.3-.8,0,.2,0,.4,0,.6,0,.7-.3,1.3-.8,1.8ZM57.9,38.7c-.6-.2-.9-.8-1.2-1.3,0-.2-.2-.4-.2-.6,0-.3,0-.5,0-.8,0-.3.1-.5.2-.8.1.2.3.3.5.4.3.2.5.5.7.8.2.3.3.7.3,1,0,.4,0,.8-.2,1.2ZM58.7,35.1c-.6-.1-1-.6-1.4-1.1-.1-.2-.2-.4-.3-.6-.2-.5-.2-1,0-1.6.2.1.4.2.6.3.3.2.6.4.8.7.2.3.4.6.5,1,.1.4.1.8,0,1.2ZM58.9,31.4c-.6,0-1.1-.4-1.5-.9-.2-.2-.3-.3-.4-.5-.1-.2-.2-.5-.3-.7,0-.3,0-.5,0-.8.2.1.4.2.6.2.6.3,1.2.8,1.5,1.5.2.4.2.8.1,1.2Z"/>
    <path class="cls-7" d="M48.6,43.2c-.4.5-.9.9-1.4,1.3.5-.1,1.1-.3,1.6-.4-.1-.3-.2-.7-.3-1Z"/>
  </g>
  <g>
    <path class="cls-6" d="M65.3,41.8c1.7-4.9,1.7-5.1,1.7-5.3v-1.6l-1.4.8s-2.8,1.5-5.4,2.9c-1.2.6-2.4,1-3.8,1.3l.2.8h0s-.2-.8-.2-.8c-.7.1-1.3.2-2,.3-2.4.2-3.4.4-4.5.7-1.5.4-1.7,1.6-1.6,2.2h0c0,0,.2.8.2.8-2,.5-4.4.9-7.2,1.2-1.2.1-2.7.3-5.4.4-1.8-.1-4-.3-5.4-.4-2.7-.3-5-.7-6.9-1.1v-.4c.1,0,.1,0,.1,0,0-.6-.2-1.8-1.6-2.2-1.1-.3-2.1-.4-4.5-.7-.7,0-1.5-.2-2.2-.3v.4c0,0-.1,0-.1,0v-.4c-1.2-.3-2.4-.7-3.6-1.3-2.6-1.3-5.4-2.9-5.4-2.9l-1.4-.8v1.6c0,.2,0,.4,1.7,5.2l-5.1,2,1.2,1c0,0,1.5,1.2,2.9,2,1.6.9,3.8,2,5.6,2.4.6.2,1.1.3,1.5.4.2,0,.4.1.6.2v1.2c-.1,0,0,.1,0,.1,0,.5.3,1,.8,1.3.8.7,3.2,2,6.8,3.1,4.4,1.3,8.6,2,15,2.4,0,0,0,0,.1,0s.1,0,.2,0c6.3-.4,10.5-1.1,15-2.4,3.6-1.1,6-2.5,6.8-3.1.4-.3.7-.8.8-1.3h0c0-.1-.2-1.6-.2-1.6.3,0,.5-.1.7-.2.4-.1.9-.2,1.5-.4,1.8-.4,3.9-1.5,5.6-2.4,1.4-.8,2.8-1.9,2.8-2l1.2-1-5.1-2ZM65.9,45.9c-1.3.7-3.5,1.9-5.3,2.4-1.4.3-1.9.5-3,.8l.2,2.1s0,.4-.4.8c-.8.6-3,1.9-6.5,2.9-4.6,1.3-8.8,2-14.8,2.3,0,0-.2,0-.2,0-6-.4-10.2-1-14.8-2.3-3.5-1-5.7-2.3-6.5-2.9-.4-.3-.4-.8-.4-.8l.2-1.8c-1-.2-1.6-.4-2.9-.7-1.8-.4-4.1-1.6-5.4-2.3-1.3-.7-2.7-1.9-2.7-1.9l4.5-1.8s-2-5.6-2-5.8c0,0,2.8,1.5,5.5,2.9,1.2.6,2.5,1.1,3.9,1.4v-.5c0,.2,0,.3,0,.5.7.2,1.5.3,2.3.4,2.3.2,3.3.4,4.3.6,1.1.3,1,1.2,1,1.2l-.4,1.3c1.9.5,4.4,1,8,1.4,1.4.1,3.4.3,5.5.4,2.7-.1,4.1-.3,5.5-.4,3.8-.4,6.4-.9,8.3-1.5l-.4-1.6s-.1-.9.9-1.2c1.1-.3,2.1-.4,4.3-.7.7,0,1.4-.2,2.1-.3,0,0,0,0,0-.1h0c1.4-.2,2.7-.6,4-1.3,2.7-1.4,5.4-2.9,5.4-2.9,0,.2-1.9,5.8-1.9,5.8l4.5,1.8s-1.4,1.2-2.7,1.9Z"/>
    <path class="cls-4" d="M65.9,45.9c-1.3.7-3.5,1.9-5.3,2.4-1.4.3-1.9.5-3,.8l.2,2.1s0,.4-.4.8c-.8.6-3,1.9-6.5,2.9-4.6,1.3-8.8,2-14.8,2.3,0,0-.2,0-.2,0-6-.4-10.2-1-14.8-2.3-3.5-1-5.7-2.3-6.5-2.9-.4-.3-.4-.8-.4-.8l.2-1.8c-1-.2-1.6-.4-2.9-.7-1.8-.4-4.1-1.6-5.4-2.3-1.3-.7-2.7-1.9-2.7-1.9l4.5-1.8s-2-5.6-2-5.8c0,0,2.8,1.5,5.5,2.9,1.2.6,2.5,1.1,3.9,1.4v-.5c0,.2,0,.3,0,.5.7.2,1.5.3,2.3.4,2.3.2,3.3.4,4.3.6,1.1.3,1,1.2,1,1.2l-.4,1.3c1.9.5,4.4,1,8,1.4,1.4.1,3.4.3,5.5.4,2.7-.1,4.1-.3,5.5-.4,3.8-.4,6.4-.9,8.3-1.5l-.4-1.6s-.1-.9.9-1.2c1.1-.3,2.1-.4,4.3-.7.7,0,1.4-.2,2.1-.3,0,0,0,0,0-.1h0c1.4-.2,2.7-.6,4-1.3,2.7-1.4,5.4-2.9,5.4-2.9,0,.2-1.9,5.8-1.9,5.8l4.5,1.8s-1.4,1.2-2.7,1.9Z"/>
    <path class="cls-5" d="M15.8,45.7c0,.6-.5,1.1-1.1,1.1s-1.1-.5-1.1-1.1.5-1.1,1.1-1.1,1.1.5,1.1,1.1Z"/>
    <path class="cls-5" d="M58.7,44.8c0,.6-.5,1.1-1.1,1.1s-1.1-.5-1.1-1.1.5-1.1,1.1-1.1,1.1.5,1.1,1.1Z"/>
  </g>
  <polygon class="cls-5" points="36.5 18 40.7 26.2 49.3 27.3 43.3 34.1 44.4 42.3 36.5 39.1 28.6 42.3 29.7 34.1 23.7 27.3 32.3 26.2 36.5 18"/>
</svg>