<?xml version="1.0" encoding="utf-8"?>
<!-- Generator: Adobe Illustrator 27.7.0, SVG Export Plug-In . SVG Version: 6.00 Build 0)  -->
<svg version="1.1" id="Layer_1" xmlns="http://www.w3.org/2000/svg" xmlns:xlink="http://www.w3.org/1999/xlink" x="0px" y="0px"
	 viewBox="0 0 72 72" style="enable-background:new 0 0 72 72;" xml:space="preserve">
<style type="text/css">
	.st0{fill:#D7C593;}
	.st1{fill:#71624F;}
	.st2{fill:#FBE39D;}
	.st3{fill:#C04040;}
	.st4{fill:#4FC6DA;}
	.st5{fill:#FFF8DF;}
	.st6{fill:#43AA96;}
</style>
<path class="st0" d="M63,72H9c-5,0-9-4-9-9V9c0-5,4-9,9-9h54c5,0,9,4,9,9v54C72,68,68,72,63,72z"/>
<path class="st1" d="M15.1,36.4L15.1,36.4c0-8.2,4.8-15.3,11.7-18.7v-1.9c-7.9,3.5-13.4,11.4-13.4,20.6v0c0,2.8,0.5,5.5,1.5,8h1.8
	C15.7,41.9,15.1,39.2,15.1,36.4z"/>
<path class="st1" d="M45,15.6v1.9C52,20.9,56.9,28,56.9,36.4v0c0,3.2-0.7,6.1-2,8.8h1.9c1.1-2.7,1.8-5.7,1.8-8.8v0
	C58.6,27.1,53,19.1,45,15.6z"/>
<path class="st1" d="M46.1,56.6v-1.9c-3,1.7-6.4,2.6-10.1,2.6c-3.5,0-6.8-0.9-9.7-2.4v1.9c2.9,1.4,6.2,2.2,9.7,2.2
	C39.6,59,43.1,58.1,46.1,56.6z"/>
<path class="st2" d="M17.2,48.9c-1.2,0-2.1,0.9-2.1,2.1v2.1c0,1.2,0.9,2.1,2.1,2.1c1.2,0,2.1-0.9,2.1-2.1V51
	C19.2,49.9,18.3,48.9,17.2,48.9z"/>
<path class="st3" d="M17.7,61.5h-1.1c-2.5,0-4.7,1.4-5.8,3.6l-0.3,0.6h13.4l-0.3-0.6C22.4,62.9,20.2,61.5,17.7,61.5z"/>
<path class="st1" d="M54.8,48.9c-1.2,0-2.1,0.9-2.1,2.1v2.1c0,1.2,0.9,2.1,2.1,2.1c1.2,0,2.1-0.9,2.1-2.1V51
	C56.9,49.9,56,48.9,54.8,48.9z"/>
<path class="st4" d="M55.4,61.5h-1.1c-2.5,0-4.7,1.4-5.8,3.6l-0.3,0.6h13.4l-0.3-0.6C60.1,62.9,57.9,61.5,55.4,61.5z"/>
<path class="st5" d="M36,19.6c1.2,0,2.1-0.9,2.1-2.1v-2.1c0-1.2-0.9-2.1-2.1-2.1c-1.2,0-2.1,0.9-2.1,2.1v2.1
	C33.9,18.7,34.8,19.6,36,19.6z"/>
<path class="st6" d="M36.6,25.9h-1.1c-2.5,0-4.7,1.4-5.8,3.6l-0.3,0.6h13.4l-0.3-0.6C41.3,27.3,39,25.9,36.6,25.9z"/>
<path class="st6" d="M25.5,29c0,0.6,0.5,1,1,1H27l0.8-1.5c1.5-2.9,4.4-4.8,7.7-4.8h1.1c3.3,0,6.2,1.8,7.7,4.8l0.8,1.5h0.4
	c0.6,0,1-0.5,1-1V8.1c0-0.6-0.5-1-1-1H26.6c-0.6,0-1,0.5-1,1V29z M31.8,15.4c0-2.3,1.9-4.2,4.2-4.2s4.2,1.9,4.2,4.2v2.1
	c0,2.3-1.9,4.2-4.2,4.2s-4.2-1.9-4.2-4.2V15.4z"/>
<path class="st3" d="M27.6,43.7c0-0.6-0.5-1-1-1H7.7c-0.6,0-1,0.5-1,1v20.9c0,0.6,0.5,1,1,1h0.4l0.8-1.5c1.5-2.9,4.4-4.8,7.7-4.8
	h1.1c3.3,0,6.2,1.8,7.7,4.8l0.8,1.5h0.4c0.6,0,1-0.5,1-1V43.7z M21.3,53.1c0,2.3-1.9,4.2-4.2,4.2c-2.3,0-4.2-1.9-4.2-4.2V51
	c0-2.3,1.9-4.2,4.2-4.2c2.3,0,4.2,1.9,4.2,4.2V53.1z"/>
<path class="st4" d="M45.4,42.6c-0.6,0-1,0.5-1,1v20.9c0,0.6,0.5,1,1,1h0.4l0.8-1.5c1.5-2.9,4.4-4.8,7.7-4.8h1.1
	c3.3,0,6.2,1.8,7.7,4.8l0.8,1.5h0.4c0.6,0,1-0.5,1-1V43.7c0-0.6-0.5-1-1-1H45.4z M59,51v2.1c0,2.3-1.9,4.2-4.2,4.2
	c-2.3,0-4.2-1.9-4.2-4.2V51c0-2.3,1.9-4.2,4.2-4.2C57.2,46.8,59,48.7,59,51z"/>
</svg>
