<?xml version="1.0" encoding="utf-8"?>
<!-- Generator: Adobe Illustrator 27.7.0, SVG Export Plug-In . SVG Version: 6.00 Build 0)  -->
<svg version="1.1" id="Layer_1" xmlns="http://www.w3.org/2000/svg" xmlns:xlink="http://www.w3.org/1999/xlink" x="0px" y="0px"
	 viewBox="0 0 72 72" style="enable-background:new 0 0 72 72;" xml:space="preserve">
<style type="text/css">
	.st0{fill:#D7C593;}
	.st1{fill:#71624F;}
	.st2{fill:#C04040;}
	.st3{fill:#43AA96;}
</style>
<path class="st0" d="M63,72H9c-5,0-9-4-9-9V9c0-5,4-9,9-9h54c5,0,9,4,9,9v54C72,68,68,72,63,72z"/>
<path class="st1" d="M52.9,31.1c-1.7-0.7-3.3-1.5-5.1-1.9c-2-0.4-3.2,1.2-5,0.7c2-1.2,2.6-1.1,3.6-3c0.8-1.6,0.8-5-1.1-6.3
	c-0.1,2-0.5,5.8-3.5,5.8c-1.3-1.8-4.1-2.9-6.4-3.1c-2.2-0.2-5.5,0.4-7.6,1.3c-2.9-1-3.3-4.9-2.7-7.2c-1.9,0.8-2.3,3.7-1.8,5.5
	c0.4,1.5,0.4,1.3,1.8,3.4c-1.7-0.2-1.2-1.5-2.8-2.2c-2.1-0.9-4.6,0-6.3-1.2c0,4.9,4.7,6.1,7.8,6.6c-0.8,0.2-1.4,0.4-2.3,0.5
	c-0.5-0.2-1.1-0.4-1.7-0.7c-1.9-0.8-3.5-1.5-4.7-1.9c-0.2-0.1-0.3-0.2-0.5-0.4c-1.4-1-2.9-2-4.6-3c-0.2-0.1-0.4-0.2-0.7-0.4
	c-0.2-0.1-0.4-0.2-0.7-0.3c-0.4-0.2-0.9-0.5-1.4-0.7c-0.9-0.5-1.9-1-2.9-1.5c-0.5-0.2-1.1-0.4-1.7-0.6c-0.3-0.1-0.6-0.1-0.9-0.2
	c-0.3,0-0.6,0-0.9,0c-0.2,0-0.5,0-0.7,0.1V63c0,5,4,9,9,9h3.6c1-0.6,2-1.3,3-2.2c0,0,4-5.2,4.4-7.6c0.1-0.9,0,0,0.4-0.7
	c0.9-1.4,1.5-2.8,2.3-4c1.5-2.4,3.2-4.5,5.1-5.6c0.9-0.5,1.9-0.8,2.7-0.8c0.4,0,0.7,0,1,0.1c0.2,0.1,0.4,0.2,0.6,0.3
	c0.7,0.4,1.4,0.7,2.2,1l0,0c1.2,0.5,2.3,1,3.5,1.5c2,0.9,5,2.3,5.5-0.1c3.8,0.5,4.8-4.4,3.9-5.5c-4.2-3.8-4.2-9.9-3.3-14.6
	C48.1,36.4,49.8,32.8,52.9,31.1z"/>
<path class="st2" d="M6.5,29.5c0.1,0,0.2,0,0.3,0c0.5,0,0.9-0.3,1-0.7c3.9-11.1,11.7-16.5,23.8-16.6c0,0,0.1,0,0.1,0
	c11.1,0,18.1,5.9,20.1,7.8l-1.7,2.5c-0.2,0.3-0.2,0.7-0.1,1c0.1,0.3,0.4,0.6,0.8,0.7l14,3.1c0.4,0.1,0.8-0.1,1.1-0.4
	c0.3-0.3,0.3-0.7,0.2-1.1l-6.5-15.1c-0.2-0.4-0.5-0.6-0.9-0.7c-0.4,0-0.8,0.1-1,0.5l-1.5,2.3c-2.8-2.1-11.4-7.5-24.6-7.1
	C15.9,6.3,7.4,19.9,5.8,28.3C5.7,28.8,6,29.4,6.5,29.5z"/>
<path class="st3" d="M65.5,42.5c-0.6-0.2-1.1,0.2-1.3,0.7c-3.9,11.1-11.7,16.5-23.8,16.6c0,0-0.1,0-0.1,0c-11.1,0-18.1-5.9-20.1-7.8
	l1.7-2.5c0.2-0.3,0.2-0.7,0.1-1c-0.1-0.3-0.4-0.6-0.8-0.7l-14-3.1C6.7,44.6,6.2,44.7,6,45c-0.3,0.3-0.3,0.7-0.2,1.1l6.5,15.1
	c0.2,0.4,0.5,0.6,0.9,0.7c0.4,0,0.8-0.1,1-0.5l1.5-2.3c2.7,2,10.6,7.1,23,7.1c0.5,0,1.1,0,1.6,0c15.7-0.6,24.2-14.1,25.9-22.5
	C66.3,43.2,66,42.6,65.5,42.5z"/>
</svg>
