<?xml version="1.0" encoding="utf-8"?>
<!-- Generator: Adobe Illustrator 27.7.0, SVG Export Plug-In . SVG Version: 6.00 Build 0)  -->
<svg version="1.1" id="Layer_1" xmlns="http://www.w3.org/2000/svg" xmlns:xlink="http://www.w3.org/1999/xlink" x="0px" y="0px"
	 viewBox="0 0 72 72" style="enable-background:new 0 0 72 72;" xml:space="preserve">
<style type="text/css">
	.st0{fill:#D7C593;}
	.st1{fill:#FFF8DF;}
	.st2{fill:#56BFAB;}
	.st3{fill:#EECE83;}
	.st4{fill:#BBD9BD;}
	.st5{fill:#43AA96;}
	.st6{fill:#4FC6DA;}
	.st7{fill:#FBE39D;}
	.st8{fill:#7C6B66;}
	.st9{fill:#DC574B;}
	.st10{fill:#C04040;}
</style>
<path class="st0" d="M63,72H9c-5,0-9-4-9-9V9c0-5,4-9,9-9h54c5,0,9,4,9,9v54C72,68,68,72,63,72z"/>
<path class="st1" d="M45.8,50.6H26.2c-2.6,0-4.7-2.1-4.7-4.7V26.2c0-2.6,2.1-4.7,4.7-4.7h19.7c2.6,0,4.7,2.1,4.7,4.7v19.7
	C50.5,48.5,48.4,50.6,45.8,50.6z"/>
<path class="st2" d="M48.9,36.9h5.5v3.7c0,0.5,0.4,0.9,0.9,0.9h9.2c0.5,0,0.9-0.4,0.9-0.9v-9.2c0-0.5-0.4-0.9-0.9-0.9h-9.2
	c-0.5,0-0.9,0.4-0.9,0.9v3.7h-5.5V36.9z"/>
<path class="st3" d="M46.8,48.1l7.6,7.6v5.1c0,0.5,0.4,0.9,0.9,0.9h5.5c0.5,0,0.9-0.4,0.9-0.9v-5.5c0-0.5-0.4-0.9-0.9-0.9h-5.1
	l-7.6-7.6L46.8,48.1z"/>
<path class="st4" d="M23.9,46.8l-7.6,7.6h-5.1c-0.5,0-0.9,0.4-0.9,0.9v5.5c0,0.5,0.4,0.9,0.9,0.9h5.5c0.5,0,0.9-0.4,0.9-0.9v-5.1
	l7.6-7.6L23.9,46.8z"/>
<path class="st5" d="M23.1,35.1h-5.5v-3.7c0-0.5-0.4-0.9-0.9-0.9H7.5c-0.5,0-0.9,0.4-0.9,0.9v9.2c0,0.5,0.4,0.9,0.9,0.9h9.2
	c0.5,0,0.9-0.4,0.9-0.9v-3.7h5.5V35.1z"/>
<path class="st6" d="M25.2,23.9l-7.6-7.6v-5.1c0-0.5-0.4-0.9-0.9-0.9h-5.5c-0.5,0-0.9,0.4-0.9,0.9v5.5c0,0.5,0.4,0.9,0.9,0.9h5.1
	l7.6,7.6L25.2,23.9z"/>
<path class="st7" d="M36.9,23.1v-5.5h3.7c0.5,0,0.9-0.4,0.9-0.9V7.5c0-0.5-0.4-0.9-0.9-0.9h-9.2c-0.5,0-0.9,0.4-0.9,0.9v9.2
	c0,0.5,0.4,0.9,0.9,0.9h3.7v5.5H36.9z"/>
<path class="st8" d="M48.1,25.2l7.6-7.6h5.1c0.5,0,0.9-0.4,0.9-0.9v-5.5c0-0.5-0.4-0.9-0.9-0.9h-5.5c-0.5,0-0.9,0.4-0.9,0.9v5.1
	l-7.6,7.6L48.1,25.2z"/>
<path class="st9" d="M35.1,48.9v5.5h-3.7c-0.5,0-0.9,0.4-0.9,0.9v9.2c0,0.5,0.4,0.9,0.9,0.9h9.2c0.5,0,0.9-0.4,0.9-0.9v-9.2
	c0-0.5-0.4-0.9-0.9-0.9h-3.7v-5.5H35.1z"/>
<path class="st10" d="M44.3,48.9H27.7c-2.5,0-4.6-2.1-4.6-4.6V27.7c0-2.5,2.1-4.6,4.6-4.6h16.6c2.5,0,4.6,2.1,4.6,4.6v16.6
	C48.9,46.8,46.8,48.9,44.3,48.9z"/>
<path class="st5" d="M44.3,48.9l-1-3.9c-0.5-2.1-1.1-5.5-3.2-5.5h-8.3c-2.1,0-2.7,3.4-3.2,5.5l-1,3.9h4.1v-4.8
	c0-0.3,0.2-0.6,0.6-0.6c0.3,0,0.6,0.2,0.6,0.6v4.8h2.2h1.8h2.2v-4.8c0-0.3,0.2-0.6,0.6-0.6c0.3,0,0.6,0.2,0.6,0.6v4.8H44.3z"/>
<path class="st7" d="M40.6,33.2c0,2.5-2.1,4.6-4.6,4.6s-4.6-2.1-4.6-4.6v-1.8c0-2.5,2.1-4.6,4.6-4.6s4.6,2.1,4.6,4.6V33.2z"/>
<path class="st1" d="M36,28.6c-1.5,0-2.8,1.2-2.8,2.8v1.8c0,1.5,1.2,2.8,2.8,2.8s2.8-1.2,2.8-2.8v-1.8C38.8,29.9,37.5,28.6,36,28.6z
	"/>
</svg>
