<?xml version="1.0" encoding="utf-8"?>
<!-- Generator: Adobe Illustrator 27.7.0, SVG Export Plug-In . SVG Version: 6.00 Build 0)  -->
<svg version="1.1" id="Layer_1" xmlns="http://www.w3.org/2000/svg" xmlns:xlink="http://www.w3.org/1999/xlink" x="0px" y="0px"
	 viewBox="0 0 72 72" style="enable-background:new 0 0 72 72;" xml:space="preserve">
<style type="text/css">
	.st0{fill:#D7C593;}
	.st1{fill:#DC574B;}
	.st2{fill:#71624F;}
	.st3{fill:#FBE39D;}
	.st4{fill:#43AA96;}
	.st5{fill:#56BFAB;}
	.st6{fill:#C04040;}
</style>
<path class="st0" d="M63,72H9c-5,0-9-4-9-9V9c0-5,4-9,9-9h54c5,0,9,4,9,9v54C72,68,68,72,63,72z"/>
<path class="st1" d="M31.8,50.7v-3.1c0-0.6-0.5-1-1-1H14c-0.6,0-1,0.5-1,1v8.4c0,0.6,0.5,1,1,1h16.8c0.6,0,1-0.5,1-1v-2.1
	c0-0.6,0.5-1,1-1h1l-1.7-1.3C32,51.3,31.8,51,31.8,50.7z M16.1,54.9c-0.6,0-1-0.5-1-1c0-0.6,0.5-1,1-1c0.6,0,1,0.5,1,1
	C17.1,54.4,16.7,54.9,16.1,54.9z M20.3,54.9c-0.6,0-1-0.5-1-1c0-0.6,0.5-1,1-1c0.6,0,1,0.5,1,1C21.3,54.4,20.9,54.9,20.3,54.9z
	 M24.5,54.9c-0.6,0-1-0.5-1-1c0-0.6,0.5-1,1-1c0.6,0,1,0.5,1,1C25.5,54.4,25.1,54.9,24.5,54.9z"/>
<path class="st2" d="M50.1,56.9c-1.9,0-3.6,0.8-4.8,2.1H56c-1.2-1.3-2.9-2.1-4.8-2.1H50.1z"/>
<path class="st3" d="M50.7,50.7c1.2,0,2.1-0.9,2.1-2.1v-2.1c0-1.2-0.9-2.1-2.1-2.1c-1.2,0-2.1,0.9-2.1,2.1v2.1
	C48.6,49.7,49.5,50.7,50.7,50.7z"/>
<path class="st3" d="M21.3,31.8c1.2,0,2.1-0.9,2.1-2.1v-2.1c0-1.2-0.9-2.1-2.1-2.1c-1.2,0-2.1,0.9-2.1,2.1v2.1
	C19.2,30.9,20.2,31.8,21.3,31.8z"/>
<path class="st2" d="M20.8,36h1.1c3.1,0,5.8,1.6,7.4,4.2h0.5V21.3H13v18.9h0.5C15,37.6,17.7,36,20.8,36z M17.1,27.6
	c0-2.3,1.9-4.2,4.2-4.2c2.3,0,4.2,1.9,4.2,4.2v2.1c0,2.3-1.9,4.2-4.2,4.2c-2.3,0-4.2-1.9-4.2-4.2V27.6z"/>
<path class="st4" d="M65.3,15.1V9.8c0-1.7-1.4-3.1-3.1-3.1H9.8c-1.7,0-3.1,1.4-3.1,3.1v5.2H65.3z M24.5,10.9h2.1c0.6,0,1,0.5,1,1
	c0,0.6-0.5,1-1,1h-2.1c-0.6,0-1-0.5-1-1C23.4,11.3,23.9,10.9,24.5,10.9z M18.2,10.9h2.1c0.6,0,1,0.5,1,1c0,0.6-0.5,1-1,1h-2.1
	c-0.6,0-1-0.5-1-1C17.1,11.3,17.6,10.9,18.2,10.9z M11.9,10.9H14c0.6,0,1,0.5,1,1c0,0.6-0.5,1-1,1h-2.1c-0.6,0-1-0.5-1-1
	C10.9,11.3,11.3,10.9,11.9,10.9z"/>
<path class="st2" d="M20.8,38.1c-1.9,0-3.6,0.8-4.8,2.1h10.7c-1.2-1.3-2.9-2.1-4.8-2.1H20.8z"/>
<path class="st2" d="M42.3,59h0.5c1.6-2.6,4.3-4.2,7.4-4.2h1.1c3.1,0,5.8,1.6,7.4,4.2H59V40.2H42.3V59z M46.5,46.5
	c0-2.3,1.9-4.2,4.2-4.2c2.3,0,4.2,1.9,4.2,4.2v2.1c0,2.3-1.9,4.2-4.2,4.2c-2.3,0-4.2-1.9-4.2-4.2V46.5z"/>
<path class="st5" d="M6.7,17.1v45c0,1.7,1.4,3.1,3.1,3.1h52.4c1.7,0,3.1-1.4,3.1-3.1v-45H6.7z M10.9,20.3c0-0.6,0.5-1,1-1h18.9
	c0.6,0,1,0.5,1,1v20.9c0,0.6-0.5,1-1,1h-2.1H14h-2.1c-0.6,0-1-0.5-1-1V20.3z M38,54.1c-0.1,0.4-0.5,0.7-1,0.7h-3.1v1
	c0,1.7-1.4,3.1-3.1,3.1H14c-1.7,0-3.1-1.4-3.1-3.1v-8.4c0-1.7,1.4-3.1,3.1-3.1h16.8c1.7,0,3.1,1.4,3.1,3.1v2.6l3.8,2.8
	C38,53.2,38.2,53.7,38,54.1z M61.1,60.1c0,0.6-0.5,1-1,1H58H43.3h-2.1c-0.6,0-1-0.5-1-1V39.1c0-0.6,0.5-1,1-1h18.9c0.6,0,1,0.5,1,1
	V60.1z M61.1,30.8c0,1.7-1.4,3.1-3.1,3.1H41.2c-1.7,0-3.1-1.4-3.1-3.1v-1H35c-0.4,0-0.9-0.3-1-0.7c-0.1-0.4,0-0.9,0.4-1.2l3.8-2.8
	v-2.6c0-1.7,1.4-3.1,3.1-3.1H58c1.7,0,3.1,1.4,3.1,3.1V30.8z"/>
<path class="st6" d="M58,21.3H41.2c-0.6,0-1,0.5-1,1v3.1c0,0.3-0.2,0.6-0.4,0.8l-1.7,1.3h1c0.6,0,1,0.5,1,1v2.1c0,0.6,0.5,1,1,1H58
	c0.6,0,1-0.5,1-1v-8.4C59,21.8,58.6,21.3,58,21.3z M43.3,23.4h6.3c0.6,0,1,0.5,1,1c0,0.6-0.5,1-1,1h-6.3c-0.6,0-1-0.5-1-1
	C42.3,23.9,42.8,23.4,43.3,23.4z M53.8,29.7H43.3c-0.6,0-1-0.5-1-1c0-0.6,0.5-1,1-1h10.5c0.6,0,1,0.5,1,1
	C54.9,29.2,54.4,29.7,53.8,29.7z M55.9,25.5h-2.1c-0.6,0-1-0.5-1-1c0-0.6,0.5-1,1-1h2.1c0.6,0,1,0.5,1,1
	C56.9,25.1,56.5,25.5,55.9,25.5z"/>
</svg>
