<?xml version="1.0" encoding="UTF-8"?>
<svg xmlns="http://www.w3.org/2000/svg" width="1in" height="1in" version="1.1" viewBox="0 0 72 72">
  <defs>
    <style>
      .cls-1 {
        fill: #80ab4f;
      }

      .cls-1, .cls-2, .cls-3, .cls-4, .cls-5, .cls-6, .cls-7, .cls-8, .cls-9, .cls-10, .cls-11, .cls-12, .cls-13, .cls-14, .cls-15, .cls-16, .cls-17, .cls-18, .cls-19, .cls-20, .cls-21, .cls-22, .cls-23, .cls-24 {
        stroke-width: 0px;
      }

      .cls-2 {
        fill: #bd2028;
      }

      .cls-3 {
        fill: #749a47;
      }

      .cls-4 {
        fill: #a7cf78;
      }

      .cls-5 {
        fill: #d42840;
      }

      .cls-6 {
        fill: #d7c593;
      }

      .cls-7 {
        fill: #b3d67d;
      }

      .cls-8 {
        fill: #d6d3bb;
        mix-blend-mode: multiply;
        opacity: .6;
      }

      .cls-9 {
        fill: #bc5c28;
      }

      .cls-10 {
        fill: #9ec03b;
      }

      .cls-11 {
        fill: #97c75e;
      }

      .cls-12 {
        fill: #76a341;
      }

      .cls-13 {
        fill: #8fbb58;
      }

      .cls-14 {
        fill: #b53a25;
      }

      .cls-15 {
        fill: #9dcd61;
      }

      .cls-16 {
        fill: #cfcbbb;
      }

      .cls-17 {
        fill: #dc4726;
      }

      .cls-18 {
        fill: #b5d783;
      }

      .cls-19 {
        fill: #8cbb57;
      }

      .cls-25 {
        isolation: isolate;
      }

      .cls-20 {
        fill: #fff;
      }

      .cls-21 {
        fill: #83b64b;
      }

      .cls-22 {
        fill: #d66b27;
      }

      .cls-23 {
        fill: #ce6428;
      }

      .cls-24 {
        fill: #81ab4f;
      }
    </style>
  </defs>
  <g class="cls-25">
    <g id="Layer_1" data-name="Layer 1">
      <rect class="cls-6" x="0" width="72" height="72" rx="9" ry="9"/>
      <g>
        <path class="cls-22" d="M47.8,37.5c6.1,4.3,11.4,9.5,17.1,14.3l1.7,1.4c.2.2.5.2.7,0,.2-.2.3-.4.1-.7l-6.2-11.7c-4.2-6-6.7-12.8-10.1-19.2l-.2-.5c-.5-1-1.5-1.7-2.6-2-1.1-.2-2.3,0-3.2.7l-5.7,4.4c-.9.7-1.4,1.8-1.5,2.9,0,1.1.5,2.2,1.4,2.9l8.5,7.1Z"/>
        <g>
          <path class="cls-9" d="M42.2,28.8c0,0,.2-.2.2-.2.1-.1.2-.2.2-.2l-.2-.3s-.1,0-.3.2c0,0-.2.1-.3.2,0,0-.2.1-.3.2-.2.2-.4.3-.5.5-.1.1-.2.2-.2.2l.2.3s.1,0,.3-.2c.2-.1.4-.2.6-.4.1,0,.2-.2.3-.2Z"/>
          <path class="cls-9" d="M45.8,27.7c.1,0,.2-.2.3-.2,0,0,.2-.1.2-.2.1-.1.2-.2.2-.2l-.2-.3s-.1,0-.3.2c0,0-.2.1-.3.2,0,0-.2.1-.3.2-.2.2-.4.3-.5.5-.1.1-.2.2-.2.2l.2.3s.1,0,.3-.2c.2-.1.4-.3.6-.4Z"/>
          <path class="cls-9" d="M48.2,23.8c.1,0,.2-.2.3-.2,0,0,.2-.2.2-.2.1-.1.2-.2.2-.2l-.2-.3s-.1,0-.3.2c0,0-.2.1-.3.2,0,0-.2.1-.3.2-.2.2-.4.3-.5.5-.1.1-.2.2-.2.2l.2.3s.1,0,.3-.2c.2-.1.4-.2.6-.4Z"/>
          <path class="cls-9" d="M51.8,26c0,0-.2.1-.3.2-.2.2-.4.3-.5.5-.1.1-.2.2-.2.2l.2.3s.1,0,.3-.2c.2-.1.4-.2.6-.4.1,0,.2-.2.3-.2,0,0,.2-.2.2-.2.1-.1.2-.2.2-.2l-.2-.3s-.1,0-.3.2c0,0-.2.1-.3.2Z"/>
          <path class="cls-9" d="M44.8,30.5c0,0-.2.1-.3.2-.2.2-.4.3-.5.5-.1.1-.2.2-.2.2l.2.3s.1,0,.3-.2c.2-.1.4-.2.6-.4.1,0,.2-.2.3-.2,0,0,.2-.2.2-.2.1-.1.2-.2.2-.2l-.2-.3s-.1,0-.3.2c0,0-.2.1-.3.2Z"/>
          <path class="cls-9" d="M48.4,30.6c-.1.1-.2.2-.2.2l.2.3s.1,0,.3-.2c.2-.1.4-.2.6-.4.1,0,.2-.2.3-.2,0,0,.2-.2.2-.2.1-.1.2-.2.2-.2l-.2-.3s-.1,0-.3.2c0,0-.2.1-.3.2,0,0-.2.1-.3.2-.2.2-.4.3-.5.5Z"/>
          <path class="cls-9" d="M46.9,33.9c0,0-.2.1-.3.2-.2.2-.4.3-.5.5-.1.1-.2.2-.2.2l.2.3s.1,0,.3-.2c.2-.1.4-.2.6-.4.1,0,.2-.2.3-.2,0,0,.2-.2.2-.2.1-.1.2-.2.2-.2l-.2-.3s-.1,0-.3.2c0,0-.2.1-.3.2Z"/>
          <path class="cls-9" d="M51.6,34c0,0-.2.1-.3.2-.2.2-.4.3-.5.5s-.2.2-.2.2l.2.3s.1,0,.3-.2c.2-.1.4-.2.6-.4.1,0,.2-.2.3-.2,0,0,.2-.2.2-.2.1-.1.2-.2.2-.2l-.2-.3s-.1,0-.3.2c0,0-.2.1-.3.2Z"/>
          <path class="cls-9" d="M54.1,29.4c0,0-.2.1-.3.2-.2.2-.4.3-.5.5-.1.1-.2.2-.2.2l.2.3s.1,0,.3-.2c.2-.1.4-.3.6-.4.1,0,.2-.2.3-.2,0,0,.2-.2.2-.2.1-.1.2-.2.2-.2l-.2-.3s-.1,0-.3.2c0,0-.2.1-.3.2Z"/>
          <path class="cls-9" d="M49.1,37.4c0,0,.2-.2.2-.2.1-.1.2-.2.2-.2l-.2-.3s-.1,0-.3.2c0,0-.2.1-.3.2,0,0-.2.1-.3.2-.2.1-.3.3-.5.4.1,0,.2.2.4.3.1,0,.3-.2.4-.3.1,0,.2-.2.3-.2Z"/>
          <path class="cls-9" d="M61.7,43.9l.2.3s.1,0,.3-.2c.1,0,.3-.2.5-.3l-.2-.4c-.2.2-.4.3-.5.4-.1.1-.2.2-.2.2Z"/>
          <path class="cls-9" d="M55.1,31.8c0,0-.2.1-.3.2-.2.2-.4.3-.5.5-.1.1-.2.2-.2.2l.2.3s.1,0,.3-.2c.2-.1.4-.2.6-.4.1,0,.2-.2.3-.2,0,0,.2-.2.2-.2.1-.1.2-.2.2-.2l-.2-.3s-.1,0-.3.2c0,0-.2.1-.3.2Z"/>
          <path class="cls-9" d="M55.4,35.5c0,0-.2.1-.3.2-.2.2-.4.3-.5.5-.1.1-.2.2-.2.2l.2.3s.1,0,.3-.2c.2-.1.4-.2.6-.4.1,0,.2-.2.3-.2,0,0,.2-.2.2-.2.1-.1.2-.2.2-.2l-.2-.3s-.1,0-.3.2c0,0-.2.1-.3.2Z"/>
          <path class="cls-9" d="M52,39.4c0,0,.2-.2.2-.2.1-.1.2-.2.2-.2l-.2-.3s-.1,0-.3.2c0,0-.2.1-.3.2,0,0-.2.1-.3.2-.2.2-.4.3-.5.5,0,0,0,0,0,0,.1,0,.2.2.3.3.2-.1.4-.2.6-.4.1,0,.2-.2.3-.2Z"/>
          <path class="cls-9" d="M55.4,39.7c.1,0,.2-.2.3-.2,0,0,.2-.2.2-.2.1-.1.2-.2.2-.2l-.2-.3s-.1,0-.3.2c0,0-.2.1-.3.2,0,0-.2.1-.3.2-.2.2-.4.3-.5.5-.1.1-.2.2-.2.2l.2.3s.1,0,.3-.2c.2-.1.4-.2.6-.4Z"/>
          <path class="cls-9" d="M64.5,47.6c-.2.2-.4.3-.5.5-.1.1-.2.2-.2.2l.2.3s.1,0,.3-.2c.2-.1.4-.2.6-.4,0,0,.1,0,.2-.1l-.2-.4c0,0-.2.1-.2.2Z"/>
          <path class="cls-9" d="M58.5,42.6c0,0-.2.1-.3.2-.2.2-.4.3-.5.5-.1.1-.2.2-.2.2l.2.3s.1,0,.3-.2c.2-.1.4-.2.6-.4.1,0,.2-.2.3-.2,0,0,.2-.2.2-.2.1-.1.2-.2.2-.2l-.2-.3s-.1,0-.3.2c0,0-.2.1-.3.2Z"/>
          <path class="cls-9" d="M55.3,42.9c.1-.1.2-.2.2-.2l-.2-.3s-.1,0-.3.2c0,0-.2.1-.3.2,0,0,0,0-.1,0,.1.1.3.2.4.3,0,0,0,0,0,0,0,0,.2-.2.2-.2Z"/>
          <path class="cls-9" d="M59.3,39.2c-.2.2-.4.3-.5.5-.1.1-.2.2-.2.2l.2.3s.1,0,.3-.2c.2-.1.4-.2.6-.4.1,0,.2-.2.3-.2,0,0,.1-.1.2-.2,0-.1-.2-.2-.2-.4,0,0-.2.1-.3.2,0,0-.2.1-.3.2Z"/>
          <path class="cls-9" d="M60.8,47.3c0,0,.2-.1.2-.2.1-.1.2-.2.2-.2l-.2-.3s-.1,0-.3.2c0,0-.2.1-.3.2,0,0-.2.1-.3.2-.1,0-.2.2-.3.2.1.1.2.2.4.3,0,0,.2-.1.2-.2.1,0,.2-.2.3-.2Z"/>
        </g>
        <path class="cls-10" d="M42.5,10.1c0,0-.1,0-.1-.1,0,0,0,0,0,0,0-.2.4-.4.4-.4,0,0,0,0,0,0,0,0-.2-.1-.2-.1-.3,0-.5.1-.8,0-.2,0-.3-.3-.3-.5,0-.3.2-.6.2-.9,0-.1,0-.2-.1-.3-.9-.1-.5,1.6-1.4,1.5-.7,0-.2-1.3-.7-1.4-.1,0-.4,0-.5.2,0,.3.7.8.6,1.3,0,.2-.2.3-.3.2-.1,0-.3-.2-.4-.4,0,0-.1,0-.2,0,0,0,0,0,0,0,0,0,0-.2-.1-.2-.2-.4-.6-.5-.8-.3-.1,0-.2.2-.2.4,0,0,0,0,0,0-.7.4.2.9-.3,1.2,0,0-.2,0-.3,0,0,0,0,.2-.1.2,0,0-.1,0-.2,0-.3.2.2.5,0,.6,0,0-.8-.2-1.1,0-.1,0-.2.2,0,.4.1.2.6.6.6.7.2.3-.4.7-.2,1.2,0,0,.2,0,.3,0,0,0,0,.2,0,.3,0,0,0,0,0,0,0,0,.2,0,.3,0,.1,0,.1-.4.3-.5.8-.5,1.3.4,1.5.8,0,0,0,.2,0,.3h0s-.1,0-.3,0c-.1,0-.3-.1-.5-.2-.1,0-.3,0-.4,0-.2.1,0,.5,0,.7,0,.3.4.7.9.7.2,0,.3,0,.4.2.3.4-.6,1.2-.4,1.5.1.2.6.3.8.2.2-.1.1-.4.3-.5,0,0,0,0,0,0,0,0,0,0,0,0,.4.9.8,1.9,1.4,3,0,.1.1.2.2.3,0,0-.2-.2-.2-.2-.3-.3-.6-.6-.9-1-.3-.3-.7-.7-1-1.1-.2-.2-.3-.4-.5-.6-.2-.2-.3-.4-.5-.6-.3-.4-.7-.8-1.1-1.2-.4-.4-.7-.8-1-1.3-.3-.4-.7-.8-1-1.2,0,0-.2-.2-.2-.3h-.1c0-.1,0-.3,0-.3-.1-.2-.3-.4-.4-.6,0-.1-.2-.3-.3-.4,0-.2-.2-.3-.3-.4,0,0,0,0,0,0,0,0,0-.1,0-.2,0,0,.3-.2.4-.3.2,0,.2-.1.2-.3,0-.4-.6-.4-.9-.5,0,0-.1,0-.2,0-.3-.2-.2-.4,0-.6,0,0,0,0,0,0,.5-.7.4,0,.7-.3.3-.4.3-1,.2-1.1-.1,0-.4,0-.4,0,0,0,0-.4-.1-.5,0,0-.1,0-.1,0,0,0,0,0,0,0,0,.1,0,.3-.2.4-.1.1-.3.2-.4.2-.4-.3.3-.8.2-1.2,0,0,0-.2-.2-.2,0,0-.1,0-.2,0,0,0-.1,0-.1,0,0,0,0,0,0,0,0-.1.2-.4.2-.4,0,0,0,0,0,0,0,0-.1,0-.2,0-.2,0-.4.3-.5.3-.2,0-.3,0-.4-.3,0-.2,0-.5,0-.7,0,0,0-.2-.2-.1-.6.1,0,1-.4,1.3-.1-.1-.3-.1-.5-.1s0,0,0,0c0,0,0-.3,0-.4,0,0,0,0,0,0,0,0-.2,0-.2,0,0,0,0,0,0,0-.1-.2.1-.4,0-.6-.1-.2-.3.3-.5,0-.2-.3.6-.7.3-1.1,0,0,0,0,0,0-.1-.1-.3,0-.3,0-.1,0-.1.3-.2.3,0,0,0,0-.2,0,0,0,0,0,0,0,0,0,0-.1,0-.2,0,0,0,0,0,0,0,0,0,0-.1,0-.1-.2,0-.5-.1-.6,0,0-.2,0-.2,0-.1,0,0,.3-.2.4,0,0-.1,0-.1,0,0,0,0,0,0,0,0,0,0,0-.1,0,0,0,0,.1,0,.2h0c0,0-.2,0-.3-.2-.1-.2-.3-.4-.4-.6,0-.1-.2-.2-.3,0,0,0,0,0,0,0-.2.2-.1.5,0,.7.2.3.7.6,1,.8,0,0,0,0,0,0,0,0,0,.3,0,.3-.1.1-.5-.2-.7-.2,0,0,0,0,0,0,0,0,0,.3,0,.4.3.3.8.3.8.3,0,0,0,0,0,0,0,.1.2.2,0,.2,0,0,0,0,0,0-.1,0-.4,0-.5,0,0,0,0,.2,0,.3.1.2.5.2.8.3,0,0,0,0,0,0,0,0,0,.1,0,.1,0,0,0,0,0,0,0,0,.2.1.3.2,0,0,0,0,0,0,0,0,0,.2,0,.3,0,0,0,0,0,0-.4.5.4.5.2.9,0,0-.1,0-.2.1,0,0,0,.1,0,.2,0,0,0,0,0,.1-.2.2.3.3.1.4,0,0-.7.1-.8.3,0,0,0,.2,0,.3.1,0,.6.2.6.3.2.1-.1.6.2.8,0,0,.1,0,.2,0,0,0,0,.2.2.2,0,0,0,0,0,0,0,0,.2,0,.2,0,0,0,0-.3,0-.4.5-.6,1.2,0,1.4,0,0,0,.1,0,0,.1,0,0,0,0-.2,0-.1,0-.3,0-.4,0-.1,0-.2,0-.3,0-.1.2.1.3.2.5,0,.2.5.3.9.2.2,0,.3,0,.3,0,.3.2,0,1,.2,1.1.2.1.6,0,.6,0,0-.1,0-.3,0-.4,0,0,0,0,0,0,0,0,0,0,0,0,.1,0,.2.3.3.1,0,0,0,0,0,0,.1.2.3.3.4.5.1.2.3.4.5.6v.2c.1,0,.3.1.3.1,0,0,.2.2.3.3.3.4.7.8,1,1.2.4.4.7.8,1.1,1.2.4.4.8.8,1.1,1.2.2.2.4.4.6.6.2.2.4.4.6.6.4.4.7.7,1.1,1.1,0,0,.2.2.3.2-.3-.1-.6-.2-.8-.3-.9-.3-1.8-.6-2.5-.9,0,0,0-.2-.1-.3-.3-.3-.7-.2-1.1-.1-.3,0-.6-.2-.9-.3,0,0,0-.1,0-.2,0-.2,0-.3-.1-.4.2,0,.5,0,.7-.1.3-.2,0-2.6-1.4-1.3-.5.5-.9.4-1.2.2-.3-.3,0-1-.3-1.3,0,0-.2-.2-.3,0s-.1.2-.2.2c0,0-.1,0-.2,0,0,0,0,0,0,0-.1,0,0-.3,0-.5,0,0,0-.2,0-.2-.1-.1-.3,0-.4,0,0,0,0,.2,0,.3,0,0,0,0,0,0,0,0-.3,0-.1.1,0,0,.1,0,.1.1,0,0,0,0,0,.1,0,0,0,.2-.2.2-.2.2-.4,0-.6,0-.2-.2-.4-.5-.6-.7,0,0-.2-.1-.3,0-.6.6,1,1.4.4,2,0,0-.2.1-.2.1-.1-.3-.2-.5-.4-.6-.1,0-.3,0-.3,0,0,0,0,.2,0,.2-.2,0-.3-.1-.4,0,0-.1-.1-.2-.1-.3,0,0,0,0,0,0,0,0-.1.1-.2.2,0,.2,0,.6,0,.8,0,.2-.3.3-.6.2-.3-.1-.6-.3-.8-.4-.1,0-.2,0-.3,0-.3.8,1.5.8,1.2,1.7-.2.6-1.4,0-1.5.4,0,.1,0,.4.1.5.3.1.9-.5,1.4-.3.1,0,.2.2.2.4,0,.2-.8.3-1,.7-.1.3,0,.9.8,1.2.2,0,.5.1.8.1.1,0,.2,0,.3,0,0,0,0,0,.1.2.2.1.4,0,.7,0,0,.1,0,.2,0,.3-.4,1.1-2.2,1.1-.8,1.6.4.1.7-.7,1.3-.5.3,0,.5.4.6.2,0,0,.1,0,.2,0,.2,0,.4.1.5,0,0-.1,0-.5,0-.8,0,0,0,0,0,0,.2-.2.4-1,.6-1.3,0,0,0,0,.1,0,.1,0,.3.2.2.4,0,.2-.4.5-.5.7-.1.4-.1,0,.7.3.2,0,.4,0,.5-.1.3,0,.6-.1.9-.4.3-.3.6-.8.9-1.2t0,0c.1-.1.3,0,.4,0s0,0,0,0c0,0,0,0,0,0,0,0,0,0,0,0,0,0,0,0,0,0,0,0,0,.1,0,.2,0,0,0,0,0,0,0,0,.3,0,.4-.2,0,0,.1,0,.2-.1.3-.3-.2-.5,0-.9,0,0,0,0,0,0,.9.3,1.9.6,2.9,1,.6.2,1.3.5,1.9.7.3.1.6.3.9.4.1,0,.3.2.3.2l.4.4c.1.1.3.3.4.4,0,0,.1.1.2.2,0,0,0,0,0,0h0s0,0,.1,0c.5,0,.2-.3.3-.3,0,0,0,0,0,0,0,0,0,0,0,0h0c0-.3-.1-.4-.2-.6h0c0,0,0-.1-.2-.2,0,0,0-.2-.1-.3-.3-.6-.6-1.3-.8-1.9-.2-.6-.4-1.2-.6-1.8,0-.2-.1-.4-.2-.7,0,0,.1,0,.2,0,0,0,0,0,.1-.1,0,0,0,0,0,0,0,.1.2.1.4,0,.5-.3-.3-.7,0-.9,0,0,.5-.1.6-.1.3,0,.3,0,.3-.3,0-.5-.4-.8-.8-1.2,0,0-.1-.1-.1-.2-.2-.4,0-.5.3-.7,0,0,0,0,0,0,1-.6.5.2,1,0,.6-.4.9-1.1.7-1.2-.1-.2-.5-.2-.5-.3,0,0,.3-.5.1-.7,0,0-.1-.1-.2,0,0,0,0,0,0,0-.1.1-.2.3-.4.4-.2.1-.4.2-.6,0-.3-.5.7-.8.8-1.3,0-.1,0-.3-.1-.3,0,0-.2,0-.3,0Z"/>
        <path class="cls-23" d="M39.5,25.8l6.8-5.3c.7-.6,1.5-.9,2.4-1-.1,0-.3,0-.4-.1-1.1-.2-2.3,0-3.2.7l-5.7,4.4c-.9.7-1.4,1.8-1.5,2.9,0,.1,0,.3,0,.4.3-.8.9-1.5,1.6-2Z"/>
      </g>
      <g>
        <path class="cls-20" d="M57,23.9c0,0-.1,0-.2,0-1.9-.5-3.3-1.7-2.7-3.6.5-1.8,1.7-3.2,2.2-4.9,0-.2,0-.3.1-.5l.8-2.8c.5-1.6,2.2-2.6,3.8-2.1,1.6.5,2.6,2.2,2.1,3.8l-.8,2.8c0,.1-.1.3-.2.4-.5,1.7-.3,3.6-.8,5.3-.5,1.9-2.4,2.1-4.2,1.5,0,0-.1,0-.2,0Z"/>
        <path class="cls-16" d="M63.2,13.8c.5-1.6-.5-3.3-2.1-3.8-1.6-.5-3.3.5-3.8,2.1l-.8,2.8s0,0,0,0c.8.3,1.8.6,2.8.9,0,0,.1,0,.1,0,0,0,0,0,.1,0,1,.3,2,.6,2.8.8,0,0,0,0,0,0l.8-2.8Z"/>
        <path class="cls-20" d="M59.6,15.1s0,0-.1,0c-3.5-1-6.2-1.7-5.3-5.1,1-3.3,4.6-5.2,8.1-4.2,0,0,0,0,0,0,0,0,0,0,0,0,3.5,1,5.5,4.5,4.5,7.9-1,3.4-3.7,2.5-7.2,1.4,0,0,0,0-.1,0Z"/>
        <path class="cls-8" d="M66.9,13.7c1-3.3-1-6.9-4.5-7.9,0,0,0,0,0,0,0,0,0,0,0,0-.2,0-.5-.1-.7-.2,0,.2.2.4.5.6,1.5,1.2,3,3,3.1,5,0,.8-.4,2.1-1.3,2.4-1.1.4-2,.6-2.8,1.5-.9,1.2-1.1,2.4-1.2,3.9,0,1.1.2,2.7-.4,3.7-.3.6-.9,1-1.5,1.3,1.6.3,3,0,3.4-1.7.5-1.8.3-3.6.8-5.3,0-.1,0-.3.2-.4l.2-.7c2.1.4,3.6.2,4.3-2.2Z"/>
      </g>
      <g>
        <path class="cls-17" d="M21.9,32c-5.5,2.1-12.6.7-15.3-6.3-2.3-6,2.4-10.2,5-11.1.3-.1,1.8-.5,3.3-.8,1.4-.8,2.7-1.5,3-1.6,2.5-1,8.8-1.1,11.2,4.9,2.7,7.1-1.6,12.9-7.1,15Z"/>
        <path class="cls-14" d="M12.7,16.3s0,.1.1.3c0,.2.2.4.3.8.1.3.3.7.4,1.1.1.4.3.8.4,1.2,0,.2.1.4.2.6,0,.2.1.4.2.6.1.4.2.8.4,1.2.1.4.2.7.3.9,0,.2.1.5.2.7,0,.2.1.4.2.7,0,.1.1.2.2.4,0,.1.2.3.2.4.1.1.2.3.3.5.1.2.3.3.4.5.3.3.6.6.9.9.2.1.3.3.5.5.2.1.3.3.5.4.3.3.6.5.8.8.2.2.4.4.5.5.1.1.2.2.2.2,0,0,0,0-.2.2-.1,0-.4.3-.7.4-.3.2-.6.3-1.1.5-.4.2-.9.3-1.5.4-.5.1-1.2.1-1.8,0-.3,0-.7,0-1-.1-.4,0-.7-.2-1.1-.3-.4-.2-.8-.3-1.1-.5-.4-.2-.7-.5-1.1-.8-.7-.6-1.3-1.4-1.8-2.2-.5-.8-.8-1.7-.9-2.6-.1-.9-.1-1.7,0-2.5.1-.8.4-1.4.6-2,.3-.6.6-1.1,1-1.5.4-.4.8-.8,1.1-1.1.4-.3.8-.5,1.1-.7.7-.3,1.1-.4,1.1-.4Z"/>
        <path class="cls-14" d="M18,14.3s.4-.2,1.1-.5c.3,0,.8-.2,1.2-.2.5,0,1,0,1.6,0,.6,0,1.2.2,1.8.5.6.2,1.2.6,1.8,1.1.6.5,1.2,1.1,1.7,1.8.5.7.9,1.6,1.1,2.5.2.9.3,1.9.2,2.8,0,.5-.2.9-.3,1.3-.1.4-.3.8-.5,1.2-.2.3-.4.7-.6,1-.2.3-.5.6-.7.8-.5.5-.9.9-1.4,1.2-.5.3-.9.5-1.3.7-.4.2-.8.3-1.1.4-.3,0-.6.1-.8.1-.2,0-.3,0-.3,0,0,0,0-.1,0-.3,0-.2,0-.4,0-.8,0-.3,0-.7,0-1.1,0-.2,0-.4,0-.6,0-.2,0-.4,0-.6,0-.4,0-.9,0-1.3,0-.2,0-.4,0-.6,0-.2,0-.4,0-.6,0-.2,0-.3-.1-.5,0-.1,0-.3-.1-.4,0-.2-.2-.4-.3-.6-.1-.2-.2-.4-.3-.7-.1-.3-.3-.6-.4-.9-.2-.4-.3-.7-.5-1.1,0-.2-.2-.4-.3-.6,0-.2-.2-.4-.3-.6-.2-.4-.3-.8-.5-1.2-.2-.4-.3-.8-.4-1.1-.1-.3-.2-.6-.3-.8,0-.2-.1-.3-.1-.3Z"/>
        <path class="cls-17" d="M15.4,22.2c-1-.6-2.3-1.8-3.1-1.5-1.3.5-.9,1.8-.4,3.1,1.4,3.7,3.8,3.9,4.5,3.6.4-.2.8-1.1.3-2.3,0,0-.3-.6-.9-2.1-.1-.3-.3-.6-.5-.8Z"/>
        <path class="cls-17" d="M20,20.4c.4-1.1.5-2.8,1.3-3.2,1.3-.5,1.9.7,2.4,2,1.4,3.7-.2,5.4-.9,5.7-.4.2-1.3-.3-1.8-1.5,0,0-.2-.7-.7-2.1-.1-.3-.2-.6-.2-.9Z"/>
        <path class="cls-17" d="M13.2,18.5c.3.1.5.8.5.8,0,0-.7.1-.9,0-.3-.1-.4-.4-.3-.7.1-.2.4-.3.7-.1Z"/>
        <path class="cls-17" d="M19.1,16.2c0,.3.2.9.2.9,0,0,.6-.4.7-.6,0-.3,0-.6-.3-.7-.2,0-.5,0-.6.4Z"/>
        <path class="cls-17" d="M11.9,19c.2.1.5.8.5.8,0,0-.7.1-.9,0-.3-.1-.4-.4-.2-.6.1-.2.4-.3.7-.1Z"/>
        <path class="cls-17" d="M20.5,15.7c0,.3.2.9.2.9,0,0,.6-.3.7-.6,0-.3,0-.6-.2-.6-.2,0-.5,0-.6.4Z"/>
        <path class="cls-17" d="M11.1,20.9c.3.1.5.8.5.8,0,0-.7.1-.9,0-.3-.1-.4-.4-.2-.6.1-.2.4-.3.7-.1Z"/>
        <path class="cls-17" d="M22.2,16.6c0,.3.2.9.2.9,0,0,.6-.3.7-.6,0-.3,0-.6-.2-.6-.2,0-.5,0-.6.4Z"/>
        <path class="cls-17" d="M11.6,22.5c.3,0,.8.5.8.5,0,0-.5.4-.8.4-.3,0-.5-.2-.5-.5,0-.2.3-.4.5-.4Z"/>
        <path class="cls-17" d="M23,18.1c-.2.2-.2.9-.2.9,0,0,.7,0,.9-.3.2-.2.2-.5,0-.7-.2-.2-.5-.1-.7,0Z"/>
        <path class="cls-17" d="M10.7,23.8c.4.2.8.4.8.4,0,0-.5.2-.9.3-.2,0-.4-.2-.4-.4,0-.2.2-.4.4-.3Z"/>
        <path class="cls-17" d="M24.5,18.4c-.2.4-.3.9-.3.9,0,0,.6-.2.9-.4.2-.1.2-.4,0-.6-.1-.1-.4-.2-.6,0Z"/>
        <path class="cls-17" d="M12.1,24.6c.4.2.8.4.8.4,0,0-.6.2-.9.3-.2,0-.4-.2-.4-.4,0-.2.2-.4.4-.3Z"/>
        <path class="cls-17" d="M24,19.9c-.2.4-.3.9-.3.9,0,0,.6-.2.9-.4.2-.1.2-.4,0-.6-.1-.1-.4-.2-.5,0Z"/>
        <path class="cls-17" d="M12.7,26.3c.5,0,.9-.1.9-.1,0,0-.3.5-.6.7-.2.2-.4,0-.5,0,0-.2,0-.5.2-.5Z"/>
        <path class="cls-17" d="M24.8,21.7c-.4.2-.8.5-.8.5,0,0,.6.1.9.2.2,0,.4-.2.3-.4,0-.2-.3-.4-.5-.3Z"/>
        <path class="cls-17" d="M13.7,28.1c.2-.4.5-.8.5-.8,0,0,.2.6.2.9,0,.2-.2.4-.4.3-.2,0-.4-.3-.3-.5Z"/>
        <path class="cls-17" d="M25.2,23.6c-.4-.1-.9-.2-.9-.2,0,0,.3.5.5.8.1.2.4.1.6,0,.1-.2,0-.5-.1-.5Z"/>
        <path class="cls-17" d="M15.6,29.1c0-.5.1-.9.1-.9,0,0,.4.4.6.7.1.2,0,.4-.2.5-.2,0-.5,0-.5-.3Z"/>
        <path class="cls-17" d="M24.5,25.6c-.3-.3-.7-.6-.7-.6,0,0,0,.6,0,.9,0,.2.3.3.5.2.2,0,.3-.4.1-.5Z"/>
        <path class="cls-17" d="M11.2,25.9c.2,0,.5,0,.5,0,0,0-.2.3-.3.4,0,0-.2,0-.3,0,0,0,0-.3,0-.3Z"/>
        <path class="cls-17" d="M25.6,20.3c-.2.1-.4.3-.4.3,0,0,.3,0,.5,0,.1,0,.2-.1.2-.2,0-.1-.2-.2-.3-.1Z"/>
        <path class="cls-17" d="M12.2,27.8c.2,0,.5,0,.5,0,0,0-.2.3-.3.4,0,0-.2,0-.3,0,0,0,0-.3,0-.3Z"/>
        <path class="cls-17" d="M26.2,22.4c-.2.1-.4.3-.4.3,0,0,.3,0,.5,0,.1,0,.2-.1.2-.2,0-.1-.2-.2-.3-.1Z"/>
        <path class="cls-17" d="M15.1,28.1c.1-.2.3-.4.3-.4,0,0,0,.3,0,.5,0,.1-.1.2-.2.2-.1,0-.2-.2-.1-.3Z"/>
        <path class="cls-17" d="M24.2,24.6c-.2,0-.5,0-.5,0,0,0,.1.3.2.4,0,0,.2,0,.3,0,0,0,0-.2,0-.3Z"/>
      </g>
      <g>
        <g>
          <g>
            <path class="cls-15" d="M32.5,47.2c-.8.5-2.7,0-2.9-.3-.6-.9-1.4-.5-2.3-1.6-.2-.2,0-.7.3-.9.5-.4-2.1-.4-2.8-1.4-.2-.2,0-.5,0-.6,0,0-.4-.3-.5-.5-.2-.3-.3-.7,0-1.1,0,0,0,0,0,0,.2-.1.3,0,.2-.2-.2-.3-.6-.5-.8-.9-.2-.3-.1-.6,0-.8.3-.2,0,.2-.3-.2-.4-.5.6-.6-.1-1.6-.3-.4.3-.6,0-1-.1-.2,0-1.1.4-1.5.5-.2,1.4,0,1.5.2.2.4.7-.2,1,.3.7,1,1.1.2,1.4.7.2.3-.2.5,0,.3.2-.1.5-.1.8.2.2.3.3.7.5,1.1.2.2,0,0,.2,0,0,0,0,0,0,0,.5,0,.8.1,1,.4.1.2.3.6.3.6.2-.1.4-.1.6.1.7,1-.1,3.5.4,3.1.3-.2.8-.2.9,0,.8,1.2.1,1.8.8,2.7.2.4,0,2.3-.7,2.8Z"/>
            <path class="cls-1" d="M33.3,44.4c-.6-.9,0-1.5-.8-2.7-.2-.2-.6-.3-.9,0-.5.4.3-2.1-.4-3.1-.2-.2-.4-.2-.6-.1,0,0-.1-.5-.3-.6-.2-.3-.6-.5-1-.4,0,0,0,0,0,0-.2.1,0,.3-.2,0-.2-.3-.3-.7-.5-1.1-.2-.3-.6-.3-.8-.2,0,0,0,0,0,0,0,0,0-.2,0-.3-.4-.5-.7.3-1.4-.7-.3-.4-.7,0-1-.3-.1-.2-1.1-.4-1.5-.2l8.7,12.4c.7-.6,1-2.5.7-2.8Z"/>
          </g>
          <path class="cls-4" d="M34.2,50l.4-.3-10.6-15c0,0-.2,0-.2,0,0,0,0,.1-.1.2l10.6,15Z"/>
        </g>
        <g>
          <g>
            <path class="cls-15" d="M34.4,46.3c-.9.1-2.5-1-2.6-1.4-.2-1.1-1.1-1-1.4-2.4,0-.3.2-.6.6-.7.6-.1-1.7-1.2-2-2.4,0-.3,0-.5.3-.5,0,0-.2-.4-.3-.6,0-.4,0-.7.4-1,0,0,0,0,0,0,.2,0,.3.2.2,0,0-.4-.3-.7-.4-1.1,0-.4.1-.6.4-.7.3,0-.1.1-.2-.2-.1-.6.7-.3.5-1.5-.1-.5.6-.5.5-.9,0-.2.5-1,.9-1.2.5,0,1.3.5,1.3.8,0,.4.7,0,.8.6.3,1.2.9.6,1,1.2,0,.4-.4.4,0,.3.3,0,.6,0,.6.5,0,.4,0,.8,0,1.2,0,.3,0,0,.2,0,0,0,0,0,0,0,.4.1.7.4.8.8,0,.2,0,.7,0,.7.2,0,.4,0,.5.3.2,1.2-1.5,3.1-.9,3,.3,0,.8.1.8.4.3,1.4-.6,1.7-.4,2.8,0,.4-.9,2.1-1.8,2.3Z"/>
            <path class="cls-1" d="M36.2,44c-.2-1.1.6-1.4.4-2.8,0-.3-.5-.5-.8-.4-.6.1,1.1-1.8.9-3,0-.3-.3-.4-.5-.3,0,0,0-.5,0-.7,0-.4-.3-.7-.8-.8,0,0,0,0,0,0-.2,0-.2.3-.2,0,0-.4,0-.8,0-1.2,0-.4-.4-.5-.6-.5,0,0,0,0,0,0,0,0,.2-.1.1-.3-.1-.6-.8,0-1-1.2-.1-.5-.7-.2-.8-.6,0-.2-.8-.8-1.3-.8l3.1,14.8c.9-.3,1.9-1.9,1.8-2.3Z"/>
          </g>
          <path class="cls-4" d="M34.9,49.6h.5c0,0-3.8-18.1-3.8-18.1,0,0-.2,0-.2,0,0,0-.1,0-.2.1l3.8,18Z"/>
        </g>
        <g>
          <g>
            <path class="cls-15" d="M36.5,46.3c-.9-.2-2.1-1.7-2.1-2.1,0-1.1-.8-1.3-.7-2.7,0-.3.4-.5.8-.5.6,0-1.3-1.7-1.2-2.9,0-.3.2-.4.4-.4,0,0-.1-.5,0-.7,0-.4.3-.7.7-.9,0,0,0,0,0,0,.2,0,.2.2.2,0,0-.4-.1-.8,0-1.2,0-.4.3-.6.6-.5.3,0-.1,0-.1-.3,0-.6.8,0,.9-1.3,0-.5.7-.3.7-.7,0-.2.7-.8,1.2-.9.5.2,1.1.9,1.1,1.1,0,.4.6.3.6.8-.1,1.2.7.8.7,1.4,0,.4-.5.2-.2.3.3,0,.5.3.5.6,0,.4-.3.7-.3,1.2,0,.3,0,0,.2,0,0,0,0,0,0,0,.4.2.6.6.5,1,0,.2-.2.6-.2.6.2,0,.4.2.3.5-.1,1.2-2.3,2.6-1.7,2.6.3,0,.7.4.7.6-.1,1.4-1.1,1.4-1.2,2.5,0,.4-1.5,1.7-2.4,1.7Z"/>
            <path class="cls-1" d="M38.9,44.7c.1-1.1,1-1.1,1.2-2.5,0-.3-.3-.6-.7-.6-.6,0,1.6-1.4,1.7-2.6,0-.3-.1-.4-.3-.5,0,0,.2-.5.2-.6,0-.4-.1-.7-.5-1,0,0,0,0,0,0-.2,0-.2.2-.2,0,0-.4.3-.8.3-1.2,0-.4-.2-.6-.5-.6,0,0,0,0,0,0,0,0,.2,0,.2-.3,0-.6-.8-.2-.7-1.4,0-.5-.6-.4-.6-.8,0-.2-.6-1-1.1-1.1l-1.4,15.1c.9,0,2.4-1.3,2.4-1.7Z"/>
          </g>
          <path class="cls-4" d="M35.9,49.6h.5s1.7-18.3,1.7-18.3c0,0-.2,0-.2-.1,0,0-.2,0-.2,0l-1.7,18.3Z"/>
        </g>
        <g>
          <path class="cls-2" d="M30,52.2c-1.6,3.6,0,7.9,3.7,9.5s4,.8,5.8,0c0,0,0,0,0,.1.2.3.3.6.4.9.2.6.4,1.3.6,1.8.3,1.1.6,1.8.6,1.8h0c0,.1.1.2.3.2.1,0,.2-.1.2-.3,0,0-.1-.7-.3-1.8,0-.6-.2-1.2-.3-1.9,0-.4-.2-.7-.3-1.1,0,0,0-.2,0-.3,1.1-.7,2-1.8,2.6-3.1,1.6-3.6,0-7.9-3.7-9.5s-7.9,0-9.5,3.7Z"/>
          <path class="cls-5" d="M31.8,53.4c.8-.2,1.6.5,1.8,1.6.2,1-.2,2-1,2.1-.8.2-1.6-.5-1.8-1.6-.2-1,.3-2,1-2.1Z"/>
        </g>
      </g>
      <g>
        <path class="cls-24" d="M57.7,64.5c-1,3.1-4.3,4.8-7.4,3.9h0c-3.1-1-4.8-4.3-3.9-7.4l8.5-24.1c1-3.1,3.3-5.1,6.5-4.2h0c3.1,1,3.9,4,3,7.1l-6.6,24.7Z"/>
        <path class="cls-12" d="M64.3,39.8c1-3.1.1-6.1-3-7.1-.4-.1-.7-.2-1.1-.2,2.2,1.3,2.8,3.9,1.9,6.6l-6.6,24.7c-.8,2.7-3.5,4.4-6.3,4.1.3.2.7.3,1,.4,3.1,1,6.4-.8,7.4-3.9l6.6-24.7Z"/>
        <path class="cls-19" d="M51,63.8l9.3-26.5c.5-1.6,1.4-3,2.5-3.8-.4-.3-.9-.5-1.4-.7-3.1-1-5.5,1.1-6.5,4.2l-8.5,24.1c-1,3.1.8,6.4,3.9,7.4.4.1.7.2,1.1.2-.7-1.5-.9-3.2-.4-4.9Z"/>
        <path class="cls-11" d="M48.7,61.7l8.5-24.1c.8-2.7,2.7-4.6,5.3-4.4-.3-.2-.7-.4-1.1-.5-3.1-1-5.5,1.1-6.5,4.2l-8.5,24.1c-1,3.1.8,6.4,3.9,7.4.4.1.8.2,1.2.2-2.4-1.3-3.6-4.2-2.8-6.9Z"/>
        <g>
          <path class="cls-21" d="M47.4,62.2c-.1,0-.2-.2-.2-.4h0c0-.3.2-.4.4-.4s.2.2.2.4h0c0,.3-.2.4-.4.4Z"/>
          <path class="cls-7" d="M47.6,62c0,.1-.1.2-.2.1h0c-.1,0-.2-.1-.1-.2v-.2c.1-.1.2-.2.3-.1h0c.1,0,.2.1.1.2v.2Z"/>
        </g>
        <g>
          <path class="cls-21" d="M49.3,56.8c-.1,0-.2-.2-.2-.4h0c0-.3.2-.4.4-.4.1,0,.2.2.2.4h0c0,.3-.2.4-.4.4Z"/>
          <path class="cls-7" d="M49.5,56.6c0,.1-.1.2-.2.1h0c-.1,0-.2-.1-.1-.2v-.2c.1-.1.2-.2.3-.1h0c.1,0,.2.1.1.2v.2Z"/>
        </g>
        <g>
          <path class="cls-21" d="M51.2,51.4c-.1,0-.2-.2-.2-.4h0c0-.3.2-.4.4-.4.1,0,.2.2.2.4h0c0,.3-.2.4-.4.4Z"/>
          <path class="cls-7" d="M51.4,51.2c0,.1-.1.2-.2.1h0c-.1,0-.2-.1-.1-.2v-.2c.1-.1.2-.2.3-.1h0c.1,0,.2.1.1.2v.2Z"/>
        </g>
        <g>
          <path class="cls-21" d="M53.1,46c-.1,0-.2-.2-.2-.4h0c0-.3.2-.4.4-.4.1,0,.2.2.2.4h0c0,.3-.2.4-.4.4Z"/>
          <path class="cls-7" d="M53.3,45.8c0,.1-.1.2-.2.1h0c-.1,0-.2-.1-.1-.2v-.2c.1-.1.2-.2.3-.1h0c.1,0,.2.1.1.2v.2Z"/>
        </g>
        <g>
          <path class="cls-21" d="M55,40.6c-.1,0-.2-.2-.2-.4h0c0-.3.2-.4.4-.4.1,0,.2.2.2.4h0c0,.3-.2.4-.4.4Z"/>
          <path class="cls-7" d="M55.2,40.4c0,.1-.1.2-.2.1h0c-.1,0-.2-.1-.1-.2v-.2c.1-.1.2-.2.3-.1h0c.1,0,.2.1.1.2v.2Z"/>
        </g>
        <g>
          <path class="cls-21" d="M56.9,35.3c-.1,0-.2-.2-.2-.4h0c0-.3.2-.4.4-.4.1,0,.2.2.2.4h0c0,.3-.2.4-.4.4Z"/>
          <path class="cls-7" d="M57.1,35c0,.1-.1.2-.2.1h0c-.1,0-.2-.1-.1-.2v-.2c.1-.1.2-.2.3-.1h0c.1,0,.2.1.1.2v.2Z"/>
        </g>
        <g>
          <path class="cls-21" d="M52.9,64.3c-.1,0-.2-.2-.2-.4h0c0-.3.2-.4.4-.4.1,0,.2.2.2.4h0c0,.3-.2.4-.4.4Z"/>
          <path class="cls-7" d="M53.1,64c0,.1-.1.2-.2.1h0c-.1,0-.2-.1-.1-.2v-.2c0-.1.2-.2.3-.1h0c.1,0,.2.1.1.2v.2Z"/>
        </g>
        <g>
          <path class="cls-21" d="M54.9,58.5c-.1,0-.2-.2-.2-.4h0c0-.3.2-.4.4-.4.1,0,.2.2.2.4h0c0,.3-.2.4-.4.4Z"/>
          <path class="cls-7" d="M55,58.3c0,.1-.1.2-.2.1h0c-.1,0-.2-.1-.1-.2v-.2c0-.1.2-.2.3-.1h0c.1,0,.2.1.1.2v.2Z"/>
        </g>
        <g>
          <path class="cls-21" d="M56.7,53.1c-.1,0-.2-.2-.2-.4h0c0-.3.2-.4.4-.4.1,0,.2.2.2.4h0c0,.3-.2.4-.4.4Z"/>
          <path class="cls-7" d="M56.9,52.9c0,.1-.1.2-.2.1h0c-.1,0-.2-.1-.1-.2v-.2c0-.1.2-.2.3-.1h0c.1,0,.2.1.1.2v.2Z"/>
        </g>
        <g>
          <path class="cls-21" d="M58.6,47.7c-.1,0-.2-.2-.2-.4h0c0-.3.2-.4.4-.4.1,0,.2.2.2.4h0c0,.3-.2.4-.4.4Z"/>
          <path class="cls-7" d="M58.7,47.5c0,.1-.1.2-.2.1h0c-.1,0-.2-.1-.1-.2v-.2c0-.1.2-.2.3-.1h0c.1,0,.2.1.1.2v.2Z"/>
        </g>
        <g>
          <path class="cls-21" d="M59.9,42.2c-.1,0-.2-.2-.2-.4h0c0-.3.2-.4.4-.4.1,0,.2.2.2.4h0c0,.3-.2.4-.4.4Z"/>
          <path class="cls-7" d="M60.1,41.9c0,.1-.1.2-.2.1h0c-.1,0-.2-.1-.1-.2v-.2c0-.1.2-.2.3-.1h0c.1,0,.2.1.1.2v.2Z"/>
        </g>
        <g>
          <path class="cls-21" d="M61.4,37.8c-.1,0-.2-.2-.2-.4h0c0-.3.2-.4.4-.4.1,0,.2.2.2.4h0c0,.3-.2.4-.4.4Z"/>
          <path class="cls-7" d="M61.6,37.5c0,.1-.1.2-.2.1h0c-.1,0-.2-.1-.1-.2v-.2c0-.1.2-.2.3-.1h0c.1,0,.2.1.1.2v.2Z"/>
        </g>
        <g>
          <path class="cls-21" d="M58.3,38.7c-.1,0-.2-.2-.2-.4h0c0-.3.2-.4.4-.4.1,0,.2.2.2.4h0c0,.3-.2.4-.4.4Z"/>
          <path class="cls-7" d="M58.5,38.5c0,.1-.1.2-.2.1h0c-.1,0-.2-.1-.1-.2v-.2c.1-.1.2-.2.3-.1h0c.1,0,.2.1.1.2v.2Z"/>
        </g>
        <g>
          <path class="cls-21" d="M56.3,44.2c-.1,0-.2-.2-.2-.4h0c0-.3.2-.4.4-.4.1,0,.2.2.2.4h0c0,.3-.2.4-.4.4Z"/>
          <path class="cls-7" d="M56.5,44c0,.1-.1.2-.2.1h0c-.1,0-.2-.1-.1-.2v-.2c.1-.1.2-.2.3-.1h0c.1,0,.2.1.1.2v.2Z"/>
        </g>
        <g>
          <path class="cls-21" d="M54.3,49.8c-.1,0-.2-.2-.2-.4h0c0-.3.2-.4.4-.4.1,0,.2.2.2.4h0c0,.3-.2.4-.4.4Z"/>
          <path class="cls-7" d="M54.5,49.5c0,.1-.1.2-.2.1h0c-.1,0-.2-.1-.1-.2v-.2c.1-.1.2-.2.3-.1h0c.1,0,.2.1.1.2v.2Z"/>
        </g>
        <g>
          <path class="cls-21" d="M52.3,55.3c-.1,0-.2-.2-.2-.4h0c0-.3.2-.4.4-.4.1,0,.2.2.2.4h0c0,.3-.2.4-.4.4Z"/>
          <path class="cls-7" d="M52.5,55c0,.1-.1.2-.2.1h0c-.1,0-.2-.1-.1-.2v-.2c.1-.1.2-.2.3-.1h0c.1,0,.2.1.1.2v.2Z"/>
        </g>
        <g>
          <path class="cls-21" d="M50.3,60.8c-.1,0-.2-.2-.2-.4h0c0-.3.2-.4.4-.4s.2.2.2.4h0c0,.3-.2.4-.4.4Z"/>
          <path class="cls-7" d="M50.5,60.5c0,.1-.1.2-.2.1h0c-.1,0-.2-.1-.1-.2v-.2c.1-.1.2-.2.3-.1h0c.1,0,.2.1.1.2v.2Z"/>
        </g>
        <g>
          <path class="cls-21" d="M49.8,64.9c-.1,0-.3,0-.3-.3h0c0-.3,0-.4.2-.5.1,0,.3,0,.3.3h0c0,.3,0,.4-.2.5Z"/>
          <path class="cls-7" d="M49.8,64.6c0,0,0,.2-.1.2h0c0,0-.2,0-.2-.1v-.2c0,0,0-.2,0-.2h0c0,0,.2,0,.2.1v.2Z"/>
        </g>
        <g>
          <path class="cls-21" d="M63.2,40.2c-.1,0-.2-.2-.2-.4h0c0-.3.2-.4.4-.4.1,0,.2.2.2.4h0c0,.3-.2.4-.4.4Z"/>
          <path class="cls-7" d="M63.4,40c0,.1-.1.2-.2.1h0c-.1,0-.2-.1-.1-.2v-.2c.1-.1.2-.2.3-.1h0c.1,0,.2.1.1.2v.2Z"/>
        </g>
        <g>
          <path class="cls-21" d="M61.8,45.9c-.1,0-.2-.2-.2-.4h0c0-.3.2-.4.4-.4.1,0,.2.2.2.4h0c0,.3-.2.4-.4.4Z"/>
          <path class="cls-7" d="M62,45.7c0,.1-.1.2-.2.1h0c-.1,0-.2-.1-.1-.2v-.2c.1-.1.2-.2.3-.1h0c.1,0,.2.1.1.2v.2Z"/>
        </g>
        <g>
          <path class="cls-21" d="M60.3,51.6c-.1,0-.2-.2-.2-.4h0c0-.3.2-.4.4-.4.1,0,.2.2.2.4h0c0,.3-.2.4-.4.4Z"/>
          <path class="cls-7" d="M60.5,51.4c0,.1-.1.2-.2.1h0c-.1,0-.2-.1-.1-.2v-.2c.1-.1.2-.2.3-.1h0c.1,0,.2.1.1.2v.2Z"/>
        </g>
        <g>
          <path class="cls-21" d="M58.8,57.3c-.1,0-.2-.2-.2-.4h0c0-.3.2-.4.4-.4.1,0,.2.2.2.4h0c0,.3-.2.4-.4.4Z"/>
          <path class="cls-7" d="M59,57c0,.1-.1.2-.2.1h0c-.1,0-.2-.1-.1-.2v-.2c.1-.1.2-.2.3-.1h0c.1,0,.2.1.1.2v.2Z"/>
        </g>
        <g>
          <path class="cls-21" d="M56.8,62.8c-.1,0-.2-.2-.2-.4h0c0-.3.2-.4.4-.4.1,0,.2.2.2.4h0c0,.3-.2.4-.4.4Z"/>
          <path class="cls-7" d="M57,62.5c0,.1-.1.2-.2.1h0c-.1,0-.2-.1-.1-.2v-.2c.1-.1.2-.2.3-.1h0c.1,0,.2.1.1.2v.2Z"/>
        </g>
        <g>
          <path class="cls-21" d="M54.8,66.9c0-.1,0-.3.1-.4h0c.1-.2.3-.2.4,0,0,.1,0,.3-.1.4h0c-.1.2-.3.2-.4,0Z"/>
          <path class="cls-7" d="M55.1,66.8c0,0-.2,0-.2,0h0c0,0,0-.2,0-.2h.2c0-.2.2-.2.2,0h0c0,0,0,.2,0,.2h-.2Z"/>
        </g>
        <g>
          <path class="cls-21" d="M59.1,33.3c0,0,0-.2.1-.3h0c.1,0,.2,0,.3,0,0,0,0,.2-.1.3h0c-.1,0-.2,0-.3,0Z"/>
          <path class="cls-7" d="M59.3,33.3c0,0-.1,0-.2,0h0c0,0,0-.1,0-.2h.1c0,0,.1,0,.2,0h0c0,0,0,.1,0,.2h-.1Z"/>
        </g>
        <g>
          <path class="cls-21" d="M59.9,34.9c0,0,0-.2,0-.3h0c0-.1.2-.1.3,0,0,0,0,.2,0,.3h0c0,.1-.2.1-.3,0Z"/>
          <path class="cls-7" d="M60.1,34.8c0,0-.1,0-.2,0h0c0,0,0-.1,0-.2h.1c0-.1.1-.1.2,0h0c0,0,0,.1,0,.2h-.1Z"/>
        </g>
        <g>
          <path class="cls-21" d="M48.3,66.6c-.1,0-.3,0-.4-.3h0c0-.3,0-.5.1-.5.1,0,.3,0,.4.3h0c0,.3,0,.5-.1.6Z"/>
          <path class="cls-7" d="M48.4,66.2c0,.1,0,.2-.1.2h0c-.1,0-.2,0-.2-.1v-.2c-.1-.1,0-.2,0-.2h0c.1,0,.2,0,.2.1v.2Z"/>
        </g>
      </g>
      <g>
        <path class="cls-13" d="M4.4,46.9c0,2.7,1.6,5.2,3.6,7.4s1.9,1.9,2.9,2.8c.4.4.9.7,1.3,1.1,4.1,3.1,17.4,12.2,20.6,7.9.4-.5.5-.8,0-1.2L6.4,44.8c-.6-.5-2,.5-1.9,2.1Z"/>
        <path class="cls-3" d="M33.6,64.9l-21.6-23.5c-.6-.7-1.6-.8-2.4-.4-.7.4-1.1,1.1-1,1.9.4,4.5,2.9,8.6,5.8,11.8s15,15,18.9,11.4.7-.7.3-1.2Z"/>
        <g>
          <circle class="cls-15" cx="19.4" cy="54.7" r="2.8"/>
          <path class="cls-18" d="M19.6,56.9c-.2-.3-.2-.7,0-.9s.7-.2.9,0,.2.7,0,.9-.7.2-.9,0Z"/>
        </g>
        <g>
          <path class="cls-15" d="M13.7,52.1c-.9-1-.8-2.5.1-3.4s2.5-.8,3.4.1.8,2.5-.1,3.4-2.5.8-3.4-.1Z"/>
          <path class="cls-18" d="M15.6,52.3c-.2-.2-.2-.6,0-.8s.6-.2.8,0,.2.6,0,.8-.6.2-.8,0Z"/>
        </g>
        <g>
          <path class="cls-15" d="M11.3,47.9c-.7-.8-.7-2.1.1-2.8s2.1-.7,2.8.1.7,2.1-.1,2.8-2.1.7-2.8-.1Z"/>
          <path class="cls-18" d="M12.9,48.1c-.2-.2-.1-.5,0-.6s.5-.2.6,0,.1.5,0,.6-.5.2-.6,0Z"/>
        </g>
        <g>
          <path class="cls-15" d="M21.5,60.6c-.9-1-.8-2.5.1-3.4s2.5-.8,3.4.1.8,2.5-.1,3.4-2.5.8-3.4-.1Z"/>
          <path class="cls-18" d="M23.5,60.8c-.2-.2-.2-.6,0-.8s.6-.2.8,0,.2.6,0,.8-.6.2-.8,0Z"/>
        </g>
        <g>
          <path class="cls-15" d="M25.8,63.7c-.8-.9-.8-2.3.1-3.1s2.3-.8,3.1.1.8,2.3-.1,3.1-2.3.8-3.1-.1Z"/>
          <path class="cls-18" d="M27.6,63.9c-.2-.2-.2-.5,0-.7s.5-.2.7,0,.2.5,0,.7-.5.2-.7,0Z"/>
        </g>
        <g>
          <path class="cls-15" d="M29.8,65.7c-.5-.6-.5-1.5,0-2s1.5-.5,2,0,.5,1.5,0,2-1.4.5-2,0Z"/>
          <path class="cls-18" d="M30.9,65.8c-.1-.1-.1-.3,0-.4s.3-.1.4,0,.1.3,0,.4-.3.1-.4,0Z"/>
        </g>
        <g>
          <path class="cls-15" d="M9.9,44.4c-.5-.6-.5-1.5,0-2s1.5-.5,2,0,.5,1.5,0,2-1.5.5-2,0Z"/>
          <path class="cls-18" d="M11,44.5c-.1-.1-.1-.3,0-.4s.3-.1.5,0,.1.3,0,.4-.3.1-.4,0Z"/>
        </g>
      </g>
    </g>
  </g>
</svg>