<?xml version="1.0" encoding="UTF-8"?>
<svg id="Layer_1" data-name="Layer 1" xmlns="http://www.w3.org/2000/svg" width="1in" height="1in" version="1.1" viewBox="0 0 72 72">
  <defs>
    <style>
      .cls-1 {
        fill: #e9c6b4;
      }

      .cls-1, .cls-2, .cls-3, .cls-4, .cls-5, .cls-6, .cls-7, .cls-8, .cls-9, .cls-10, .cls-11 {
        stroke-width: 0px;
      }

      .cls-2 {
        fill: #e9a885;
      }

      .cls-3 {
        fill: #71624f;
      }

      .cls-4 {
        fill: #d7c593;
      }

      .cls-5 {
        fill: #e99b74;
      }

      .cls-6 {
        fill: #43aa96;
      }

      .cls-7 {
        fill: #dc574b;
      }

      .cls-8 {
        fill: #eae5da;
      }

      .cls-9 {
        fill: #c04040;
      }

      .cls-10 {
        fill: #de8c63;
      }

      .cls-11 {
        fill: #fff;
      }
    </style>
  </defs>
  <rect class="cls-4" x="0" y="0" width="72" height="72" rx="9" ry="9"/>
  <path class="cls-5" d="M18.7,54.9c-.8-.3-.7-1.3-4.6-1.8h-.7s-.6,0-.6,0c-.2,0-.3,0-.5,0-.3,0-.5-.2-.7-.3,0,0-.2,0-.3,0,0,0,0,0,0,0l.9,1,.7.2-2.5.9,1.4,1.3.6,1.3.4.4.2.2c0,.1,0,.2,0,.3,0,0,0,.3,0,.4,0,.2.5.4,1.1.5.5,0,1.1,0,1.3,0l3-.4,1,.7h0c0,0,.8-4,.8-4l-.9-.5-.5-.4Z"/>
  <path class="cls-3" d="M45,42.2c-.5.2-1,.3-1.5.3-2.3,0-6.1-3.8-6.1-8.3,0-2.2.9-6.1,3.4-6.1,3.6,0,5.1,12.2,5.1,12.4s0,.3,0,.5c0,.4-.3.9-.8,1.1Z"/>
  <path class="cls-3" d="M49.6,42.2c.5.2,1,.3,1.5.3,2.3,0,6.1-3.8,6.1-8.3s-.9-6.1-3.4-6.1c-3.6,0-5.1,12.2-5.1,12.4s0,.3,0,.5c0,.4.3.9.8,1.1Z"/>
  <rect class="cls-10" x="44.4" y="35.8" width="5.9" height="10.9"/>
  <path class="cls-3" d="M9.3,38.9l-5.2,2.2,3.8,6.2,1-.4,5.2,13.2c.1.3.7.8,1.3.5s.7-1,.5-1.4l-5.8-12.8,1-.4-1.8-7.1ZM8.1,45.5s0,0,0,.1c0,0,0,0-.1,0-.3-.2-.7-.6-1.1-1.2-.6-.9-.9-1.7-.7-1.8.2-.1.8.5,1.3,1.4.4.6.5,1.2.6,1.5ZM7.2,41.4c.2,0,.7.8,1.2,1.9.3.8.5,1.5.5,1.9,0,0,0,0,0,.1,0,0,0,0-.1,0-.3-.3-.7-.9-1-1.7-.5-1.2-.7-2.2-.5-2.2ZM15.2,59.4c0,.2,0,.4-.1.5-.2,0-.4,0-.5-.3,0-.2,0-.4.1-.5.2,0,.4,0,.4.3ZM9.7,43.2c.2.7.1,1.3.1,1.6,0,0,0,0,0,0,0,0,0,0-.1,0-.2-.3-.5-.8-.6-1.5-.2-1-.3-1.9,0-1.9.2,0,.6.7.8,1.7Z"/>
  <path class="cls-2" d="M15.1,55.5c0,.1,0,.3-.2.3l-3.4.7c-.1,0-.3,0-.3-.2v-.6c-.2-.1,0-.3,0-.3l3.4-.7c.1,0,.3,0,.3.2v.6Z"/>
  <path class="cls-2" d="M14.3,54.8c0,.1-.1.2-.3.2l-3.5.2c-.1,0-.3,0-.3-.2v-.5c0-.1.1-.2.3-.2l3.5-.2c.1,0,.3,0,.3.2v.5Z"/>
  <path class="cls-2" d="M15.7,56.4c0,.1,0,.3-.1.3l-3.2,1.2c-.1,0-.3,0-.3-.1l-.2-.6c0-.1,0-.3.1-.3l3.2-1.2c.1,0,.3,0,.3.1l.2.6Z"/>
  <path class="cls-2" d="M16.1,57.6c0,.1,0,.3-.1.3l-3,1.1c-.1,0-.3,0-.3-.1l-.2-.6c0-.1,0-.3.1-.3l3-1.1c.1,0,.3,0,.3.1l.2.6Z"/>
  <path class="cls-1" d="M15.1,55.9h.2c.1,0,.2,0,.2.2v.4c0,.1,0,.2-.2.2h-.2c-.1,0-.2,0-.2-.2v-.4c0-.1,0-.2.2-.2Z" transform="translate(-22.5 11.8) rotate(-25.2)"/>
  <rect class="cls-1" x="15.3" y="57.1" width=".6" height=".8" rx=".2" ry=".2" transform="translate(-23.1 12.2) rotate(-25.3)"/>
  <path class="cls-1" d="M14.5,55h.2c.1,0,.2,0,.2.2v.4c0,.1,0,.2-.2.2h-.2c-.1,0-.2,0-.2-.2v-.4c0-.1,0-.2.2-.2Z" transform="translate(-10.6 3.9) rotate(-11.3)"/>
  <path class="cls-1" d="M13.8,54.9c-.1,0-.2,0-.2-.2v-.4c0-.1,0-.2.2-.2h.2c.1,0,.2,0,.2.2v.4c0,.1,0,.2-.2.2h-.2Z"/>
  <path class="cls-5" d="M47.3,41.5l-2.8-1.1c-2.7-1.1-4.5-3.7-4.5-6.6v-9.2h14.6v9.2c0,2.9-1.8,5.5-4.5,6.6l-2.8,1.1Z"/>
  <path class="cls-3" d="M44,22.7c-6.1,2-5.8,9.7-5.4,11.2.5.7,1,1.2,1.6,1.2,2.4,0,.5-7.9,6.2-7.9s.6,0,.9,0c.3,0,.6,0,.9,0,5.8,0,3.8,7.9,6.2,7.9s1.2-.5,1.6-1.2c.4-1.4.6-2.7.6-3.3s-.8-6.8-3.9-7.6c-1.9-.4-3.9-.3-5.4-.5,0,0,0,0,0,0s0,0,0,0c-.9.1-2.1.2-3.3.3Z"/>
  <path class="cls-5" d="M48.9,44.2c-.5-.2-1.1-.3-1.6-.3s-1.1,0-1.6.3l-2.6.9c0,1.7,1.9,3.2,4.2,3.2s4.2-1.4,4.2-3.2l-2.5-.9Z"/>
  <path class="cls-11" d="M64.8,64.7l-4.9-15.1h0c-.4-1.2-1.3-2.1-2.5-2.5l-6-2.1c0,.6-1.9,1-4.2,1s-4.2-.3-4.2-1l-5.9,2c-1.3.4-2.2,1.5-2.6,2.7h0s-4.2,11.1-4.2,11.1c-.1.3-.4.6-.7.7-.3.1-.7,0-1-.1l-4.6-3-3.6-2.5-.4-.2-.8,3.9,4.8,3.4,4.3,3.3c.8.6,1.8.8,2.8.6,1-.2,1.8-.9,2.3-1.8l2.7-5.1,2.4,11.8h17.3l2.6-12.5,1.6,3.3s.8,2.2.8,3.2,3.7,1.8,3.7,1.8c.3-1.4.4-1.6.2-3.1Z"/>
  <path class="cls-8" d="M60,49.7h0c-.4-1.2-1.3-2.1-2.5-2.5l-6-2.1c0,.6-1.7.9-3.9,1v25.9h8.4l2.6-12.5,1.6,3.3s.8,2.2.8,3.2-.8,3-1.5,6h4s1.2-4.2,1.2-4.2c.3-1.4.4-1.6.2-3.1l-4.9-15.1Z"/>
  <g>
    <path class="cls-6" d="M46.1,50.1c0,.3-.2.5-.5.5s-.5-.2-.5-.5.2-.5.5-.5.5.2.5.5Z"/>
    <path class="cls-6" d="M46.1,54.1c0,.3-.2.5-.5.5s-.5-.2-.5-.5.2-.5.5-.5.5.2.5.5Z"/>
    <path class="cls-6" d="M46.1,58.1c0,.3-.2.5-.5.5s-.5-.2-.5-.5.2-.5.5-.5.5.2.5.5Z"/>
  </g>
  <g>
    <path class="cls-6" d="M50,50.1c0,.3-.2.5-.5.5s-.5-.2-.5-.5.2-.5.5-.5.5.2.5.5Z"/>
    <path class="cls-6" d="M50,54.1c0,.3-.2.5-.5.5s-.5-.2-.5-.5.2-.5.5-.5.5.2.5.5Z"/>
    <path class="cls-6" d="M50,58.1c0,.3-.2.5-.5.5s-.5-.2-.5-.5.2-.5.5-.5.5.2.5.5Z"/>
  </g>
  <path class="cls-11" d="M56.6,6.6c-.8,0-1.5.2-2.2.5-1.1-2.8-3.7-4.8-6.7-4.8s-5.3,1.8-6.5,4.3c-.7-.4-1.5-.6-2.4-.6-3,0-5.3,2.5-5.3,5.6s2.4,5.6,5.3,5.6.4,0,.7,0v9.4c0-.7,3.6-1.3,8-1.3s8,.6,8,1.3v-8.9c.3,0,.6,0,.9,0,3,0,5.3-2.5,5.3-5.6s-2.4-5.6-5.3-5.6Z"/>
  <path class="cls-9" d="M50.6,44.3c-.2,0-.3,0-.5,0-.2,0-.5,0-.7,0-.5,0-.9-.2-1.3-.3-.2,0-.3,0-.4-.1-.1,0-.2,0-.2,0v.5c-.1,0-.2-.5-.2-.5,0,0,0,0-.2,0-.1,0-.2,0-.4.1-.4,0-.8.2-1.3.3-.2,0-.5,0-.7,0-.2,0-.3,0-.5,0,0,.1,0,.3,0,.4.2,0,.4,0,.6,0,.2,0,.5,0,.7,0,.5,0,1-.1,1.4-.2.2,0,.3,0,.4,0,0,0,0,0,.1,0,0,0,0,0,.1,0,.1,0,.3,0,.4,0,.4,0,.9.1,1.4.2.2,0,.5,0,.7,0,.2,0,.5,0,.7,0,0,0,0,0,0,0,0-.1,0-.3,0-.4Z"/>
  <path class="cls-7" d="M47.3,43.9c-2.1.9-3.9,2.5-3.9,4.9.8-1.1,1.6-2.1,2.9-2.8.8-.4.9-1.3,1-2.1Z"/>
  <path class="cls-7" d="M47.3,43.9c2.1.9,3.9,2.5,3.9,4.9-.8-1.1-1.6-2.1-2.9-2.8-.8-.4-.9-1.3-1-2.1Z"/>
  <path class="cls-7" d="M48,44.2c0,.3-.3.6-.6.6h-.2c-.3,0-.6-.3-.6-.6h0c0-.3.3-.6.6-.6h.2c.3,0,.6.3.6.6h0Z"/>
</svg>