<?xml version="1.0" encoding="utf-8"?>
<!-- Generator: Adobe Illustrator 27.7.0, SVG Export Plug-In . SVG Version: 6.00 Build 0)  -->
<svg version="1.1" id="Layer_1" xmlns="http://www.w3.org/2000/svg" xmlns:xlink="http://www.w3.org/1999/xlink" x="0px" y="0px"
	 viewBox="0 0 72 72" style="enable-background:new 0 0 72 72;" xml:space="preserve">
<style type="text/css">
	.st0{fill:#D7C593;}
	.st1{fill:#56BFAB;}
	.st2{fill:#77797B;}
	.st3{fill:#FFF8DF;}
	.st4{fill:#43AA96;}
	.st5{fill:#C04040;}
</style>
<path class="st0" d="M63,72H9c-5,0-9-4-9-9V9c0-5,4-9,9-9h54c5,0,9,4,9,9v54C72,68,68,72,63,72z"/>
<g>
	<path class="st1" d="M64.7,9.2l-3.7,0v3.2c0,2.1-1.7,3.7-3.7,3.7s-3.7-1.7-3.7-3.7V9.1H18.5v3.2c0,2.1-1.7,3.7-3.7,3.7
		s-3.7-1.7-3.7-3.7V9.1l-3.7,0c-2.1,0-3.7,1.7-3.7,3.7v51.8c0,2.1,1.7,3.7,3.7,3.7h57.3c2.1,0,3.7-1.7,3.7-3.7V51.3V40.3V12.9
		C68.4,10.8,66.7,9.2,64.7,9.2z"/>
	<path class="st2" d="M14.8,14.6c1.2,0,2.2-1,2.2-2.2v-6c0-1.2-1-2.2-2.2-2.2c-1.2,0-2.2,1-2.2,2.2v6C12.6,13.6,13.6,14.6,14.8,14.6
		z"/>
	<path class="st2" d="M57.2,14.6c1.2,0,2.2-1,2.2-2.2v-6c0-1.2-1-2.2-2.2-2.2c-1.2,0-2.2,1-2.2,2.2v6C54.9,13.6,56,14.6,57.2,14.6z"
		/>
	<rect x="23.8" y="32.9" class="st3" width="7" height="7"/>
	<rect x="23.8" y="24.1" class="st3" width="7" height="7"/>
	<rect x="15" y="32.9" class="st3" width="7" height="7"/>
	<rect x="6.2" y="32.9" class="st3" width="7" height="7"/>
	<rect x="23.8" y="41.7" class="st3" width="7" height="7"/>
	<rect x="15" y="41.7" class="st3" width="7" height="7"/>
	<rect x="6.2" y="41.7" class="st3" width="7" height="7"/>
	<rect x="32.6" y="41.7" class="st3" width="7" height="7"/>
	<rect x="41.3" y="41.7" class="st3" width="7" height="7"/>
	<rect x="32.6" y="32.9" class="st3" width="7" height="7"/>
	<rect x="32.6" y="24.1" class="st3" width="7" height="7"/>
	<rect x="41.3" y="32.9" class="st3" width="7" height="7"/>
	<rect x="41.3" y="24.1" class="st3" width="7" height="7"/>
	<rect x="50.1" y="32.9" class="st3" width="7" height="7"/>
	<rect x="50.1" y="24.1" class="st3" width="7" height="7"/>
	<rect x="58.9" y="32.9" class="st3" width="7" height="7"/>
	<rect x="50.1" y="41.7" class="st3" width="7" height="7"/>
	<rect x="58.9" y="41.7" class="st3" width="7" height="7"/>
	<rect x="23.8" y="50.4" class="st3" width="7" height="7"/>
	<rect x="15" y="50.4" class="st3" width="7" height="7"/>
	<rect x="6.2" y="50.4" class="st3" width="7" height="7"/>
	<rect x="32.6" y="50.4" class="st3" width="7" height="7"/>
	<rect x="41.3" y="50.4" class="st3" width="7" height="7"/>
	<rect x="50.1" y="50.4" class="st3" width="7" height="7"/>
	<rect x="58.9" y="50.4" class="st3" width="7" height="7"/>
	<rect x="23.8" y="59.2" class="st3" width="7" height="7"/>
	<rect x="15" y="59.2" class="st3" width="7" height="7"/>
	<rect x="6.2" y="59.2" class="st3" width="7" height="7"/>
	<rect x="32.6" y="59.2" class="st3" width="7" height="7"/>
	<rect x="58.9" y="24.1" class="st3" width="7" height="7"/>
	<path class="st4" d="M68.4,21.6v-8.7c0-2.1-1.7-3.7-3.7-3.7l-3.7,0v3.2c0,2.1-1.7,3.7-3.7,3.7s-3.7-1.7-3.7-3.7V9.1H18.5v3.2
		c0,2.1-1.7,3.7-3.7,3.7c-2.1,0-3.7-1.7-3.7-3.7V9.1l-3.7,0c-2.1,0-3.7,1.7-3.7,3.7v8.7H68.4z"/>
	<polygon class="st5" points="47.5,27.8 48.5,33.3 53.6,35.5 48.7,38.2 48.2,43.7 44.2,39.9 38.7,41.1 41.1,36.1 38.3,31.3 
		43.8,32.1 	"/>
</g>
</svg>
