<?xml version="1.0" encoding="utf-8"?>
<!-- Generator: Adobe Illustrator 27.7.0, SVG Export Plug-In . SVG Version: 6.00 Build 0)  -->
<svg version="1.1" id="Layer_1" xmlns="http://www.w3.org/2000/svg" xmlns:xlink="http://www.w3.org/1999/xlink" x="0px" y="0px"
	 viewBox="0 0 72 72" style="enable-background:new 0 0 72 72;" xml:space="preserve">
<style type="text/css">
	.st0{fill:#D7C593;}
	.st1{fill:#71624F;}
	.st2{fill:#C04040;}
	.st3{fill:#43AA96;}
</style>
<path class="st0" d="M63,72H9c-5,0-9-4-9-9V9c0-5,4-9,9-9h54c5,0,9,4,9,9v54C72,68,68,72,63,72z"/>
<g>
	<path class="st1" d="M55.4,38.9c0,0.5,0.4,1,1,1s1-0.4,1-1c0-5.8-2.3-11.2-6.4-15.3c-0.4-0.4-1-0.4-1.4,0c-0.4,0.4-0.4,1,0,1.4
		C53.3,28.7,55.4,33.7,55.4,38.9z"/>
	<path class="st1" d="M15.6,39.9c0.5,0,1-0.4,1-1c0-5.3,2.1-10.2,5.8-13.9c0.4-0.4,0.4-1,0-1.4c-0.4-0.4-1-0.4-1.4,0
		c-4.1,4-6.4,9.5-6.4,15.3C14.6,39.4,15.1,39.9,15.6,39.9z"/>
	<path class="st1" d="M38.8,58.1c-1.8,0.3-3.7,0.3-5.5,0c-0.5-0.1-1,0.3-1.1,0.8c-0.1,0.5,0.3,1,0.8,1.1c1,0.1,2,0.2,3.1,0.2
		s2-0.1,3.1-0.2c0.5-0.1,0.9-0.6,0.8-1.1C39.8,58.4,39.3,58,38.8,58.1z"/>
	<path class="st2" d="M44.2,49.9l2.7-2.7c0.3-0.3,0.4-0.7,0.2-1.1l-0.9-1.7c0.3-0.6,0.6-1.3,0.8-1.9l1.8-0.6
		c0.4-0.1,0.7-0.5,0.7-0.9V37c0-0.4-0.3-0.8-0.7-0.9l-1.8-0.6c-0.2-0.7-0.5-1.3-0.8-1.9l0.9-1.7c0.2-0.4,0.1-0.8-0.2-1.1l-2.7-2.7
		c-0.3-0.3-0.7-0.4-1.1-0.2l-1.7,0.9c-0.6-0.3-1.3-0.6-1.9-0.8L38.9,26c-0.1-0.4-0.5-0.7-0.9-0.7h-3.9c-0.4,0-0.8,0.3-0.9,0.7
		l-0.6,1.8c-0.7,0.2-1.3,0.5-1.9,0.8l-1.7-0.9c-0.4-0.2-0.8-0.1-1.1,0.2L25,30.7c-0.3,0.3-0.4,0.7-0.2,1.1l0.9,1.7
		c-0.3,0.6-0.6,1.3-0.8,1.9l-1.8,0.6c-0.4,0.1-0.7,0.5-0.7,0.9v3.9c0,0.4,0.3,0.8,0.7,0.9l1.8,0.6c0.2,0.7,0.5,1.3,0.8,1.9L24.8,46
		c-0.2,0.4-0.1,0.8,0.2,1.1l2.7,2.7c0.3,0.3,0.7,0.4,1.1,0.2l1.7-0.9c0.6,0.3,1.3,0.6,1.9,0.8l0.6,1.8c0.1,0.4,0.5,0.7,0.9,0.7h3.9
		c0.4,0,0.8-0.3,0.9-0.7l0.6-1.8c0.7-0.2,1.3-0.5,1.9-0.8l1.7,0.9C43.5,50.3,43.9,50.2,44.2,49.9z M36,42.8c-2.1,0-3.9-1.7-3.9-3.9
		c0-2.1,1.7-3.9,3.9-3.9s3.9,1.7,3.9,3.9C39.9,41.1,38.1,42.8,36,42.8z"/>
	<path class="st3" d="M36,18.5c1.1,0,1.9-0.9,1.9-1.9v-1.9c0-1.1-0.9-1.9-1.9-1.9s-1.9,0.9-1.9,1.9v1.9C34.1,17.7,34.9,18.5,36,18.5
		z"/>
	<path class="st3" d="M26.4,26.6c0.5-0.5,1.3-0.9,2.1-0.9c0.4,0,0.8,0.1,1.1,0.2c0.6-2.1,2.5-3.5,4.6-3.5h3.6c2.2,0,4.1,1.4,4.6,3.5
		c0.3-0.2,0.7-0.2,1.1-0.2c0.8,0,1.5,0.3,2.1,0.9l1.3,1.3c0.4-0.7,0.7-1.6,0.7-2.6V11.7c0-2.7-2.2-4.9-4.9-4.9H29.2
		c-2.7,0-4.9,2.2-4.9,4.9v13.6c0,1,0.3,1.8,0.7,2.6L26.4,26.6z M32.1,14.6c0-2.1,1.7-3.9,3.9-3.9s3.9,1.7,3.9,3.9v1.9
		c0,2.1-1.7,3.9-3.9,3.9s-3.9-1.7-3.9-3.9V14.6z"/>
	<path class="st3" d="M18.5,47.6c-1.1,0-1.9,0.9-1.9,1.9v1.9c0,1.1,0.9,1.9,1.9,1.9s1.9-0.9,1.9-1.9v-1.9
		C20.5,48.5,19.6,47.6,18.5,47.6z"/>
	<path class="st3" d="M20.4,59.3h-3.6c-1.3,0-2.5,0.9-2.8,2.2L13,65.1h11.1l-0.9-3.6C22.9,60.2,21.7,59.3,20.4,59.3z"/>
	<path class="st3" d="M28.4,52.1c-0.8,0-1.5-0.3-2.1-0.9l-2.7-2.7c-0.9-0.9-1.1-2.2-0.5-3.4l0.4-0.9c-0.1-0.1-0.1-0.2-0.2-0.4
		l-0.9-0.3c-0.9-0.3-1.6-1-1.8-1.8h-8.9c-2.7,0-4.9,2.2-4.9,4.9v13.6c0,2.4,1.8,4.4,4.1,4.8l1-4c0.5-2.2,2.5-3.7,4.7-3.7h3.6
		c2.2,0,4.2,1.5,4.7,3.7l1,4c2.3-0.3,4.1-2.3,4.1-4.8v-8.7l-0.4,0.2C29.4,52,28.9,52.1,28.4,52.1z M22.4,51.5c0,2.1-1.7,3.9-3.9,3.9
		s-3.9-1.7-3.9-3.9v-1.9c0-2.1,1.7-3.9,3.9-3.9s3.9,1.7,3.9,3.9V51.5z"/>
	<path class="st3" d="M53.5,47.6c-1.1,0-1.9,0.9-1.9,1.9v1.9c0,1.1,0.9,1.9,1.9,1.9c1.1,0,1.9-0.9,1.9-1.9v-1.9
		C55.4,48.5,54.5,47.6,53.5,47.6z"/>
	<path class="st3" d="M55.3,59.3h-3.6c-1.3,0-2.5,0.9-2.8,2.2l-0.9,3.6H59l-0.9-3.6C57.8,60.2,56.6,59.3,55.3,59.3z"/>
	<path class="st3" d="M60.3,41.8h-8.9c-0.3,0.8-1,1.5-1.8,1.8l-0.9,0.3c0,0.1-0.1,0.3-0.2,0.4l0.4,0.9c0.6,1.1,0.3,2.5-0.6,3.4
		l-2.7,2.7c-0.6,0.6-1.3,0.9-2.1,0.9c-0.4,0-0.9-0.1-1.3-0.3l-0.4-0.2v8.7c0,2.4,1.8,4.4,4.1,4.8l1-4c0.5-2.2,2.5-3.7,4.7-3.7h3.6
		c2.2,0,4.2,1.5,4.7,3.7l1,4c2.3-0.3,4.1-2.3,4.1-4.8V46.7C65.1,44,62.9,41.8,60.3,41.8z M57.4,51.5c0,2.1-1.7,3.9-3.9,3.9
		s-3.9-1.7-3.9-3.9v-1.9c0-2.1,1.7-3.9,3.9-3.9s3.9,1.7,3.9,3.9V51.5z"/>
</g>
</svg>
