<?xml version="1.0" encoding="utf-8"?>
<!-- Generator: Adobe Illustrator 27.7.0, SVG Export Plug-In . SVG Version: 6.00 Build 0)  -->
<svg version="1.1" id="Layer_1" xmlns="http://www.w3.org/2000/svg" xmlns:xlink="http://www.w3.org/1999/xlink" x="0px" y="0px"
	 viewBox="0 0 72 72" style="enable-background:new 0 0 72 72;" xml:space="preserve">
<style type="text/css">
	.st0{fill:#D7C593;}
	.st1{fill:#56BFAB;}
	.st2{fill:#77797B;}
	.st3{fill:#FFF8DF;}
	.st4{fill:#43AA96;}
	.st5{fill:#C04040;}
	.st6{fill:#71624F;}
	.st7{fill:#FBE39D;}
	.st8{clip-path:url(#SVGID_00000090282414749923491130000007723017405223798932_);}
</style>
<path class="st0" d="M63,71.7H9c-5,0-9-4-9-9v-54c0-5,4-9,9-9h54c5,0,9,4,9,9v54C72,67.7,68,71.7,63,71.7z"/>
<path class="st1" d="M64.7,8.9l-3.7,0v3.2c0,2.1-1.7,3.7-3.7,3.7s-3.7-1.7-3.7-3.7V8.8H18.5v3.2c0,2.1-1.7,3.7-3.7,3.7
	s-3.7-1.7-3.7-3.7V8.8l-3.7,0c-2.1,0-3.7,1.7-3.7,3.7v51.8c0,2.1,1.7,3.7,3.7,3.7h57.3c2.1,0,3.7-1.7,3.7-3.7V51V40V12.6
	C68.4,10.5,66.7,8.9,64.7,8.9z"/>
<path class="st2" d="M14.8,14.3c1.2,0,2.2-1,2.2-2.2v-6c0-1.2-1-2.2-2.2-2.2c-1.2,0-2.2,1-2.2,2.2v6C12.6,13.3,13.6,14.3,14.8,14.3z
	"/>
<path class="st2" d="M57.2,14.3c1.2,0,2.2-1,2.2-2.2v-6c0-1.2-1-2.2-2.2-2.2c-1.2,0-2.2,1-2.2,2.2v6C54.9,13.3,56,14.3,57.2,14.3z"
	/>
<rect x="23.8" y="32.6" class="st3" width="7" height="7"/>
<rect x="23.8" y="23.8" class="st3" width="7" height="7"/>
<rect x="15" y="32.6" class="st3" width="7" height="7"/>
<rect x="6.2" y="32.6" class="st3" width="7" height="7"/>
<rect x="23.8" y="41.4" class="st3" width="7" height="7"/>
<rect x="15" y="41.4" class="st3" width="7" height="7"/>
<rect x="6.2" y="41.4" class="st3" width="7" height="7"/>
<rect x="32.6" y="41.4" class="st3" width="7" height="7"/>
<rect x="41.3" y="41.4" class="st3" width="7" height="7"/>
<rect x="32.6" y="32.6" class="st3" width="7" height="7"/>
<rect x="32.6" y="23.8" class="st3" width="7" height="7"/>
<rect x="41.3" y="32.6" class="st3" width="7" height="7"/>
<rect x="41.3" y="23.8" class="st3" width="7" height="7"/>
<rect x="50.1" y="32.6" class="st3" width="7" height="7"/>
<rect x="50.1" y="23.8" class="st3" width="7" height="7"/>
<rect x="58.9" y="32.6" class="st3" width="7" height="7"/>
<rect x="50.1" y="41.4" class="st3" width="7" height="7"/>
<rect x="58.9" y="41.4" class="st3" width="7" height="7"/>
<rect x="23.8" y="50.1" class="st3" width="7" height="7"/>
<rect x="15" y="50.1" class="st3" width="7" height="7"/>
<rect x="6.2" y="50.1" class="st3" width="7" height="7"/>
<rect x="32.6" y="50.1" class="st3" width="7" height="7"/>
<rect x="41.3" y="50.1" class="st3" width="7" height="7"/>
<rect x="50.1" y="50.1" class="st3" width="7" height="7"/>
<rect x="58.9" y="50.1" class="st3" width="7" height="7"/>
<rect x="23.8" y="58.9" class="st3" width="7" height="7"/>
<rect x="15" y="58.9" class="st3" width="7" height="7"/>
<rect x="6.2" y="58.9" class="st3" width="7" height="7"/>
<rect x="32.6" y="58.9" class="st3" width="7" height="7"/>
<rect x="58.9" y="23.8" class="st3" width="7" height="7"/>
<path class="st4" d="M68.4,21.3v-8.7c0-2.1-1.7-3.7-3.7-3.7l-3.7,0v3.2c0,2.1-1.7,3.7-3.7,3.7s-3.7-1.7-3.7-3.7V8.8H18.5v3.2
	c0,2.1-1.7,3.7-3.7,3.7c-2.1,0-3.7-1.7-3.7-3.7V8.8l-3.7,0c-2.1,0-3.7,1.7-3.7,3.7v8.7H68.4z"/>
<path class="st5" d="M27.2,38.5c0.2,0.2,0.6,0.4,0.9,0.4c0.1,0,0.1,0,0.2,0c0.4-0.1,0.7-0.3,0.9-0.7l3.7-7.3
	c0.3-0.6,0.1-1.4-0.6-1.7c-0.6-0.3-1.4-0.1-1.7,0.6l-2.9,5.8l-1.3-1.3c-0.5-0.5-1.3-0.5-1.8,0c-0.5,0.5-0.5,1.3,0,1.8L27.2,38.5z"/>
<g>
	<path class="st6" d="M68.2,39.6c-0.3,0-0.7-0.1-1-0.1c-1.6-0.4-5.8-1.4-9.7-2.3c-3.6-0.9-7.1-1.7-8.4-2c-0.2,0-0.4-0.2-0.4-0.4
		c-0.8-2.2-1.8-3.2-3.6-3.2c-1.3,0-2.2,0.5-2.9,1.6c-0.1,0.2-0.3,0.3-0.5,0.3c0,0-0.1,0-0.1,0l-1.5-0.3c-0.9-0.2-1.9-0.4-2.7-0.6
		c-0.1,0-0.2-0.1-0.3-0.1l-4.5-4c-0.2-0.1-0.2-0.4-0.2-0.6c0.1-0.2,0.2-0.4,0.5-0.4l5.7-1.3c0,0,0.1,0,0.1,0c0,0,0.1,0,0.1,0
		c24.4,5.6,26.9,6.2,30,7l0.1,0c1.5,0.3,2.5,1.6,2.5,3.2C71.5,38.2,70,39.6,68.2,39.6z"/>
	<path class="st0" d="M38.7,26.8c24.8,5.7,27,6.2,30.1,7c1.2,0.3,2.1,1.3,2.1,2.6c0,1.5-1.2,2.7-2.7,2.7c-0.2,0-0.6-0.1-0.8-0.1
		c-3.2-0.7-15.3-3.6-18.1-4.3c-0.8-2.2-1.9-3.6-4.2-3.6c-1.6,0-2.7,0.7-3.4,1.9c-1.2-0.3-2.9-0.6-4.2-0.9l-4.5-4L38.7,26.8
		 M38.7,25.6c-0.1,0-0.2,0-0.3,0l-5.7,1.3c-0.4,0.1-0.8,0.4-0.9,0.9c-0.1,0.4,0,0.9,0.4,1.2l4.5,4c0.1,0.1,0.3,0.2,0.5,0.3
		c0.8,0.2,1.8,0.4,2.7,0.6c0.5,0.1,1.1,0.2,1.5,0.3c0.1,0,0.2,0,0.3,0c0.4,0,0.8-0.2,1-0.6c0.6-0.9,1.3-1.3,2.4-1.3
		c1.3,0,2.3,0.5,3.1,2.8c0.1,0.4,0.5,0.7,0.9,0.8c1.3,0.3,4.7,1.1,8.4,2c4,0.9,8.1,1.9,9.7,2.3c0.3,0.1,0.7,0.2,1.1,0.2
		c2.1,0,3.9-1.7,3.9-3.9c0-1.8-1.2-3.4-3-3.8l-0.1,0c-3.1-0.7-5.6-1.3-30-7C38.9,25.6,38.8,25.6,38.7,25.6L38.7,25.6z"/>
</g>
<polygon class="st3" points="37.5,32 33,28.1 38.7,26.8 "/>
<g>
	<path class="st7" d="M59.9,31.1c0,0-0.1,0-0.1,0l-20.9-4.8c-0.2,0-0.4-0.2-0.4-0.4c-0.1-0.2,0-0.4,0.1-0.6c1.3-1.7,2.9-2.6,4.6-2.6
		c2.7,0,12,0.5,17.2,7.5c0.2,0.2,0.2,0.5,0,0.7C60.3,31,60.1,31.1,59.9,31.1z"/>
	<path class="st0" d="M43.1,23.2c4.3,0,12.2,1.2,16.7,7.2c-4.2-1-20.9-4.8-20.9-4.8C40,24.3,41.4,23.2,43.1,23.2 M43.1,22
		c-1.9,0-3.7,1-5.1,2.9c-0.2,0.3-0.3,0.8-0.2,1.1c0.1,0.4,0.5,0.7,0.9,0.8c0,0,16.7,3.9,20.9,4.8c0.1,0,0.2,0,0.3,0
		c0.4,0,0.8-0.2,1-0.5c0.3-0.4,0.3-1,0-1.4C55.5,22.6,45.9,22,43.1,22L43.1,22z"/>
</g>
<polygon class="st5" points="35.1,27.6 33,28.1 34.5,29.4 "/>
<g>
	<defs>
		<path id="SVGID_1_" d="M63,71.7H9c-5,0-9-4-9-9v-54c0-5,4-9,9-9h54c5,0,9,4,9,9v54C72,67.7,68,71.7,63,71.7z"/>
	</defs>
	<clipPath id="SVGID_00000152954412379556868770000017342091631617593737_">
		<use xlink:href="#SVGID_1_"  style="overflow:visible;"/>
	</clipPath>
	<g style="clip-path:url(#SVGID_00000152954412379556868770000017342091631617593737_);">
		<path class="st7" d="M58.2,72.3c-0.3,0-0.5-0.2-0.6-0.4c-0.8-2.5-2.2-7-3.3-9.1c-1.3-2.6-4.6-5.9-6.9-8.3l-0.7-0.7
			c-0.5-0.6-1.6-2.2-1.8-3.1c-0.9-3.9-2.7-13.3-3-15.1c0-0.2-0.1-0.4-0.1-0.6c0-1.8,1.5-3.3,3.3-3.3c1.3,0,2.5,0.8,3.1,2.1
			c0.2,0.4,0.5,1.3,0.9,2.4c0.9,2.2,2,5.3,2.4,6c0.1,0.1,0.3,0.2,0.6,0.2c0.4,0,0.7-0.3,0.7-0.7c0-0.7-0.1-4.7-0.1-4.7
			c0-0.2,0.1-0.4,0.2-0.5c0.1-0.1,0.2-0.1,0.4-0.1c0,0,0.1,0,0.1,0c2.9,0.7,5.5,1.3,7.3,1.7l2.1,0.5c0.3,0.1,0.5,0.3,0.5,0.6
			c0,1.3-0.3,3.2-0.6,5.1c-0.3,2.2-0.7,4.7-0.7,6.8c0,2.1,3.1,8.5,8.4,17c0.1,0.2,0.1,0.5,0,0.7c-1.8,2.2-4.5,3.5-7.4,3.5H58.2z"/>
		<path class="st0" d="M45.1,32.3c1.2,0,2.1,0.7,2.5,1.8c0.5,1.2,2.8,7.3,3.4,8.5c0.2,0.4,0.7,0.6,1.1,0.6c0.7,0,1.3-0.6,1.3-1.3
			c0-0.7-0.1-4.7-0.1-4.7c4.4,1,8.2,1.9,9.4,2.2c0,2.8-1.3,8-1.3,11.9c0,3.2,6.1,13.4,8.4,17.3c-1.7,2-4.2,3.3-7,3.3h-4.8
			c-0.8-2.7-2.3-7.1-3.3-9.2c-1.5-2.9-5.3-6.7-7.7-9.2c-0.5-0.5-1.4-2.1-1.6-2.8c-0.9-4-2.7-13.4-3-15.1c0-0.2,0-0.3,0-0.5
			C42.5,33.5,43.7,32.3,45.1,32.3 M45.1,31.1c-2.1,0-3.9,1.7-3.9,3.9c0,0.3,0,0.5,0.1,0.7c0.3,1.8,2.1,11.2,3,15.1
			c0.2,1,1.3,2.8,1.9,3.4l0.7,0.7c2.3,2.4,5.5,5.7,6.8,8.2c0.8,1.5,1.9,4.7,3.3,9c0.2,0.5,0.6,0.8,1.1,0.8H63c3.1,0,5.9-1.4,7.9-3.7
			c0.3-0.4,0.4-1,0.1-1.4c-5.1-8.3-8.3-14.7-8.3-16.6c0-2,0.4-4.5,0.7-6.7c0.3-2,0.6-3.8,0.6-5.2c0-0.6-0.4-1-0.9-1.2l-2.2-0.5
			c-1.8-0.4-4.4-1-7.2-1.7c-0.1,0-0.2,0-0.3,0c-0.3,0-0.5,0.1-0.8,0.3c-0.3,0.2-0.5,0.6-0.4,1c0,0,0.1,3.9,0.1,4.6
			c0,0.1-0.1,0.1-0.1,0.1c0,0,0,0-0.1,0C51.6,41,50.5,38,49.7,36c-0.4-1.1-0.8-2-0.9-2.4C48.1,32.1,46.7,31.1,45.1,31.1L45.1,31.1z"
			/>
	</g>
</g>
</svg>
