<?xml version="1.0" encoding="utf-8"?>
<!-- Generator: Adobe Illustrator 27.6.1, SVG Export Plug-In . SVG Version: 6.00 Build 0)  -->
<svg version="1.1" id="Layer_1" xmlns="http://www.w3.org/2000/svg" xmlns:xlink="http://www.w3.org/1999/xlink" x="0px" y="0px"
	 viewBox="0 0 72 72" style="enable-background:new 0 0 72 72;" xml:space="preserve">
<style type="text/css">
	.st0{fill:#DC574B;}
	.st1{fill-rule:evenodd;clip-rule:evenodd;fill:#FFF8DF;}
	.st2{fill:#71624F;}
</style>
<g>
	<path class="st0" d="M63,72H9c-5,0-9-4-9-9V9c0-5,4-9,9-9h54c5,0,9,4,9,9v54C72,68,68,72,63,72z"/>
	<path class="st1" d="M60.2,47.4c1.5,0,2.7,1.2,2.7,2.7v5.4c0,1.5-1.2,2.7-2.7,2.7H11.8c-1.5,0-2.7-1.2-2.7-2.7v-5.4
		c0-1.5,1.2-2.7,2.7-2.7H60.2z"/>
	<path class="st2" d="M45.5,42.2c2.1-10.7,9.6-15.6,9.6-15.6l3.1,3.1c0.2,0.2,0.6,0.3,0.9,0.2c0.3-0.1,0.5-0.3,0.6-0.7l5.5-21.7
		c0.1-0.3,0-0.6-0.2-0.8c-0.2-0.2-0.5-0.3-0.8-0.2l-22.9,4.3c-0.3,0.1-0.6,0.3-0.7,0.6c-0.1,0.3,0,0.6,0.2,0.9l3.1,3.1
		c0,0-11.3,8.4-16.8,26.8H45.5z"/>
</g>
</svg>
