<?xml version="1.0" encoding="utf-8"?>
<!-- Generator: Adobe Illustrator 27.6.1, SVG Export Plug-In . SVG Version: 6.00 Build 0)  -->
<svg version="1.1" id="Layer_1" xmlns="http://www.w3.org/2000/svg" xmlns:xlink="http://www.w3.org/1999/xlink" x="0px" y="0px"
	 viewBox="0 0 72 72" style="enable-background:new 0 0 72 72;" xml:space="preserve">
<style type="text/css">
	.st0{fill:#D7C593;}
	.st1{fill:#FBE39D;}
	.st2{fill:#BFBBAA;}
	.st3{fill:#FFF8DF;}
	.st4{fill:#DC574B;}
	.st5{fill:#7C6B66;}
</style>
<g>
	<path class="st0" d="M63,72H9c-5,0-9-4-9-9V9c0-5,4-9,9-9h54c5,0,9,4,9,9v54C72,68,68,72,63,72z"/>
	<g>
		<polygon class="st1" points="52.6,12 61.5,20.4 28.7,53.2 20.1,44.5 		"/>
		<polygon class="st2" points="57.2,7.4 66,15.9 61.5,20.4 52.6,12 		"/>
		<polygon class="st3" points="13.5,59.8 20.1,44.5 28.7,53.2 		"/>
		<polygon class="st4" points="13.5,59.8 15.6,54.9 19,57.4 		"/>
		<path class="st5" d="M66.9,15L66,15.9l-8.9-8.5l1.1-1.1c1.1-1.1,3-1.1,4.1,0l4.6,4.6C68.1,12.1,68.1,13.9,66.9,15z"/>
	</g>
	<polygon class="st4" points="11.8,59.8 0,59.8 0,57.8 12.6,57.8 	"/>
</g>
</svg>
