<?xml version="1.0" encoding="UTF-8"?>
<svg id="Layer_1" data-name="Layer 1" xmlns="http://www.w3.org/2000/svg" width="1in" height="1in" version="1.1" viewBox="0 0 72 72">
  <defs>
    <style>
      .cls-1 {
        fill: #71624f;
      }

      .cls-1, .cls-2, .cls-3, .cls-4, .cls-5 {
        stroke-width: 0px;
      }

      .cls-2 {
        fill: #d7c593;
      }

      .cls-3 {
        fill: #43aa96;
      }

      .cls-4 {
        fill: #c04040;
      }

      .cls-5 {
        fill: #f89e55;
        fill-rule: evenodd;
      }
    </style>
  </defs>
  <rect class="cls-2" width="72" height="72" rx="9" ry="9"/>
  <g>
    <path class="cls-1" d="M68,11.8v-.7h0s0,0,0,0c0-.1,0-.3,0-.4,0,0,0,0,0-.1-.2-1.8-1.1-3.6-2.4-4.9-1.3-1.3-3.1-2.1-4.9-2.3-.3,0-.6,0-.9,0-4.4,0-8,3.4-8.3,7.7h0v.7h16.6Z"/>
    <path class="cls-4" d="M68.9,52.7v-1.1h-.9V11.8s-16.6,0-16.6,0v28.2l-4.1-.9v-1.9h.7l.7.6,1.2-1.4-1.9-1.7-5.4-14.7-13.6-7.4-13.6,7.4-5.4,14.7-1.9,1.7,1.2,1.4.7-.6h.5v1.5l-7.6,5.7v2.3l.8-.6v5.7h-.7v1.1h-.9v.7h16.5v-15.1h20.5v15.1h30.7v-.7h-1ZM28.1,30h-4.1v-3.6h4.1v3.6ZM28.1,24.6h-4.1v-3.6h4.1v3.6ZM34,30h-4.1v-3.6h4.1v3.6ZM34,24.6h-4.1v-3.6h4.1v3.6Z"/>
    <polygon class="cls-4" points="37.3 52 37.3 41.4 30.6 46.7 37.3 52"/>
    <polygon class="cls-4" points="35.7 40 22.4 40 29 45.3 35.7 40"/>
    <polygon class="cls-4" points="20.8 41.4 20.8 52 27.5 46.7 20.8 41.4"/>
    <polygon class="cls-4" points="22.4 53.4 35.7 53.4 29 48.1 22.4 53.4"/>
  </g>
  <path class="cls-3" d="M2.1,54.7v7c0,5,3.1,8.3,7.8,8.3h52.1c4.7,0,7.9-3.5,7.9-8.5v-6.8H2.1Z"/>
  <g>
    <path class="cls-1" d="M58.5,67.5h1.1c0,0,.1,0,.2-.1l1.2-3.5-.5-.5c-.1.3-.4.4-.7.4h-.2c-.1,0-.2,0-.3,0l-.9,3.5s0,.1,0,.1c0,0,0,0,.1,0Z"/>
    <path class="cls-1" d="M52.4,67.5h1.2s0,0,.1,0c0,0,0,0,0-.1l-1-5.7c-.2,0-.3.1-.5.3l-.8,1.2-.2,1.8.9,2.6c0,0,0,.1.2.1Z"/>
    <path class="cls-1" d="M66.1,57.5c-.1,0-.2-.2-.3-.3,0-.4,0-.9,0-1.3,0-1,0-2.1-.8-3.1-.8-1-2.2-1.6-3.5-1.4-3.8,0-7.5,0-11.9,0-.5,0-1,.2-1.3.6l-5.3,6.4h-.4c-.2-.5-.5-.7-.8-.9,0,0-.1,0-.2,0,0,0,0,0,0,.2v1c-.8.2-1.2.7-1.3,1.1,0,0,0,.1,0,.2,0,0,.1,0,.2,0h.5s-.2.4-.2.4c0,.1,0,.3,0,.4h0c0,.3,0,.5,0,.6l-.4,2.6c0,.2,0,.4.2.5l.4.3c.2.1.4,0,.6,0,.7-.3,1.2-.7,1.8-1.2.5-.5.9-1.1,1.3-1.8,0,0,.1,0,.2,0h2.8c.2-.1.3,0,.4.2v.3c.1,0,.7,1.4.7,1.4l.2,4.8c0,0,0,.2.2.2h1.2c0,0,.2,0,.2-.2h0c0-.1.5-5.5.5-5.5v-.2s1-1.4,1-1.4c.2-.2.4-.3.6-.3h.3s3.8,0,3.8,0h.5c0,.2,0,.4.2.6.1.3.3.5.5.7v.8c0,.2.2.4.3.4h.2c.2,0,.3-.2.3-.4v-.4c.1,0,.2,0,.3,0s0,0,0,0c0,0,.2,0,.3,0v.4c0,.2.2.4.3.4h.2c.2,0,.3-.1.3-.3,0,0,0,0,0,0v-.8c.1-.1.2-.2.3-.3l.2.2.2.2.2.2,1.6,1.4.2.2v4.2c0,.1,0,.2.2.2h1.2c.1,0,.2-.1.2-.2v-5.8c0-.2,0-.4-.2-.6l-1.3-2.3.8-4.4c0-.2,0-.3,0-.5l-.4-1.8c0-.2-.1-.3-.2-.5.4.2.8.5,1.1.8.6.8.7,1.8.7,2.7,0,.4,0,.9.1,1.5,0,.3,0,.6,0,.9,0,.5.3,1,.6,1.3.2.2.4.2.6.4,0,0,.4.3.4,0,0-.2.1-.4.1-.7,0-.3,0-.6,0-.9-.1-.4-.4-.8-.7-1Z"/>
  </g>
  <path id="_2" data-name="2" class="cls-5" d="M13.4,62.9c0,.2,0,.4,0,.6,0,.7.3,1,.8,1.3.3.2.5.4.8.5.1-1.4-.4-2.1-1.5-2.4h0ZM18,63.6c0,.2,0,.4,0,.6,0,.7.2.9.7,1.2.2.2.5.3.8.4.1-1.3-.4-1.9-1.4-2.2h0ZM19.9,69.8v2.1h-.5v-3.9h0c-.3-.2-.5-.5-.7-.6-.5-.4-.7-.6-.7-1.2,0-.2,0-.4,0-.6,1.1.3,1.5,1,1.4,2.3h.4c-.1-1.3.4-2,1.4-2.3,0,.2,0,.4,0,.6,0,.7-.2.9-.7,1.2-.2.2-.5.4-.7.5h0v2h0ZM21.3,61.5v-3c0,0,0-.1,0-.1h0c0,0,0,0,0,.1v3.1c-.9.3-1.3,1-1.2,2.2.3,0,.5-.2.8-.4.5-.4.7-.6.7-1.2,0-.2,0-.4,0-.6h0ZM19.8,59.4c.6.9.6,1.6,0,2.5-.7-.8-.7-1.6,0-2.5v-3.2c0,0,0-.1,0-.1h0c0,0,0,0,0,.1v3.2h0ZM18.2,61.5c.9.3,1.3,1,1.2,2.2-.3,0-.5-.2-.8-.4-.5-.4-.7-.6-.7-1.2,0-.2,0-.4,0-.6v-3.1c0,0,0-.1,0-.1h0c0,0,0,0,0,.1v3.1h0ZM21.3,63.6c-1.1.3-1.5.9-1.4,2.2.3,0,.5-.2.8-.4.5-.4.7-.6.7-1.2,0-.2,0-.4,0-.6h0ZM9,63.6c0,.2,0,.4,0,.6,0,.7.2.9.7,1.2.2.2.5.3.8.4.1-1.3-.4-1.9-1.4-2.2h0ZM10.8,69.8v2.1h-.5v-3.9h0c-.3-.2-.5-.5-.7-.6-.5-.4-.7-.6-.7-1.2,0-.2,0-.4,0-.6,1.1.3,1.5,1,1.4,2.3h.4c-.1-1.3.4-2,1.4-2.3,0,.2,0,.4,0,.6,0,.7-.2.9-.7,1.2-.2.2-.5.4-.7.5h0v2h0ZM12.2,61.5v-3c0,0,0-.1,0-.1h0c0,0,0,0,0,.1v3.1c-.9.3-1.3,1-1.2,2.2.3,0,.5-.2.8-.4.5-.4.7-.6.7-1.2,0-.2,0-.4,0-.6h0ZM10.7,59.4c.6.9.6,1.6,0,2.5-.7-.8-.7-1.6,0-2.5v-3.2c0,0,0-.1,0-.1h0c0,0,0,0,0,.1v3.2h0ZM9.2,61.5c.9.3,1.3,1,1.2,2.2-.3,0-.5-.2-.8-.4-.5-.4-.7-.6-.7-1.2,0-.2,0-.4,0-.6v-3.1c0,0,0-.1,0-.1h0c0,0,0,0,0,.1v3.1h0ZM12.2,63.6c-1.1.3-1.5.9-1.4,2.2.3,0,.5-.2.8-.4.5-.4.7-.6.7-1.2,0-.2,0-.4,0-.6h0ZM15.4,69.7v2.3h-.5v-4.4c-.3-.1-.5-.3-.8-.5-.5-.4-.7-.6-.8-1.3,0-.2,0-.4,0-.6,1.2.3,1.7,1.1,1.5,2.5h.4c-.1-1.4.4-2.2,1.5-2.5,0,.2,0,.4,0,.6,0,.7-.3,1-.8,1.3-.2.2-.5.4-.8.5v2.1h0ZM17,60.6v-3.3c0,0,0-.1-.1-.1h0c0,0-.1,0-.1.1v3.4c-1,.3-1.5,1-1.3,2.4.3-.1.6-.3.8-.5.5-.4.7-.6.8-1.3,0-.2,0-.4,0-.6h0ZM15.3,58.3c.6,1,.6,1.8-.1,2.7-.7-.9-.7-1.7-.1-2.7v-2.9c0,0,0-.1.1-.1h0c0,0,.1,0,.1.1v2.9h0ZM13.6,60.6c1,.3,1.5,1,1.3,2.4-.3-.1-.6-.3-.8-.5-.5-.4-.7-.6-.8-1.3,0-.2,0-.4,0-.6v-3.3c0,0,0-.1.1-.1h0c0,0,.1,0,.1.1v3.4h0ZM17,62.9c-1.2.3-1.7,1-1.5,2.4.3-.1.6-.3.8-.5.5-.4.7-.6.8-1.3,0-.2,0-.4,0-.6Z"/>
</svg>