<?xml version="1.0" encoding="UTF-8"?>
<svg id="Layer_1" data-name="Layer 1" xmlns="http://www.w3.org/2000/svg" width="1in" height="1in" version="1.1" viewBox="0 0 72 72">
  <defs>
    <style>
      .cls-1, .cls-2, .cls-3, .cls-4, .cls-5, .cls-6, .cls-7, .cls-8, .cls-9 {
        stroke-width: 0px;
      }

      .cls-1, .cls-8 {
        fill: #f89e55;
      }

      .cls-2 {
        fill: #0b424d;
      }

      .cls-3 {
        fill: #71624f;
      }

      .cls-4 {
        fill: #d7c593;
      }

      .cls-5 {
        fill: #fbe39d;
      }

      .cls-6 {
        fill: #dc574b;
      }

      .cls-7 {
        fill: #c04040;
      }

      .cls-8 {
        fill-rule: evenodd;
      }

      .cls-9 {
        fill: #81ab4f;
      }
    </style>
  </defs>
  <rect class="cls-4" x="0" width="72" height="72" rx="9" ry="9"/>
  <rect class="cls-5" x="20.5" y="19.5" width="30.9" height="1.8" transform="translate(56.4 -15.6) rotate(90)"/>
  <rect class="cls-5" x="20.5" y="50.4" width="30.9" height="1.8" transform="translate(87.3 15.3) rotate(90)"/>
  <rect class="cls-5" x="36" y="34.9" width="30.9" height="1.8" transform="translate(102.9 71.7) rotate(-180)"/>
  <rect class="cls-5" x="5.1" y="34.9" width="30.9" height="1.8" transform="translate(41.1 71.7) rotate(-180)"/>
  <path class="cls-2" d="M21.8,60.8c0,0,0,.1,0,.2,0,0,0-.1,0-.2Z"/>
  <g>
    <path class="cls-3" d="M60.1,68.2h1.2c0,0,.1,0,.2-.1l1.3-3.8-.5-.5c-.2.3-.5.5-.8.5h-.2c-.1,0-.2,0-.4,0l-1,3.8c0,0,0,.1,0,.2,0,0,0,0,.1,0Z"/>
    <path class="cls-3" d="M53.5,68.2h1.3c0,0,0,0,.1,0,0,0,0,0,0-.1l-1-6.3c-.2,0-.4.1-.5.3l-.9,1.3-.2,1.9,1,2.8c0,0,0,.1.2.1Z"/>
    <path class="cls-3" d="M68.3,57.3c-.1,0-.2-.2-.4-.3,0-.4,0-.9,0-1.4,0-1.1-.1-2.3-.9-3.4-.8-1.1-2.4-1.8-3.9-1.5-4.2,0-8.2,0-13,0-.6,0-1.1.3-1.5.7l-5.8,7h-.5c-.2-.5-.6-.8-.8-1,0,0-.1,0-.2,0,0,0-.1.1-.1.2v1.1c-.9.2-1.3.8-1.5,1.2,0,0,0,.1,0,.2,0,0,.1,0,.2,0h.6s-.3.4-.3.4c0,.1,0,.3,0,.5v.2c.1.2.1.3.1.5l-.5,2.8c0,.2,0,.5.3.6l.5.3c.2.1.5,0,.6,0,.8-.4,1.4-.8,1.9-1.4.5-.5,1-1.2,1.4-2,0,0,.1,0,.2,0h3.1c.2-.1.4,0,.5.2v.4c.1,0,.8,1.5.8,1.5l.2,5.2c0,.1,0,.2.2.2h1.3c0,0,.2,0,.2-.2v-.2s.6-5.9.6-5.9v-.2s1.1-1.5,1.1-1.5c.2-.2.4-.3.7-.3h5c0,.2,0,.5.2.7.1.3.3.6.6.8v.9c0,.2.2.4.4.4h.2c.2,0,.4-.2.4-.4v-.4c.1,0,.2,0,.4,0s0,0,0,0c.1,0,.2,0,.3,0v.4c0,.2.2.4.4.4h.2c.2,0,.3-.1.4-.3,0,0,0,0,0,0v-.8c.1-.1.2-.2.4-.4l.2.2.2.2.2.2,1.8,1.5.2.2v4.6c0,.1.1.3.2.3h1.3c.1,0,.2-.1.2-.3v-6.3c0-.2,0-.4-.2-.6l-1.5-2.5.9-4.8c0-.2,0-.4,0-.5l-.4-1.9c0-.2-.1-.4-.2-.5.5.2.9.5,1.2.9.7.9.8,2,.8,3,0,.4,0,1,.1,1.6,0,.3,0,.7,0,1,0,.5.3,1.1.7,1.4.2.2.4.2.6.4.1,0,.4.4.4,0,0-.2.1-.5.1-.7,0-.3,0-.7,0-1-.1-.4-.4-.8-.7-1.1Z"/>
  </g>
  <g>
    <path class="cls-9" d="M65.3,4.2c-.2,0-.4,0-.5.2l-.8,1.8c-.3,0-.7,0-.9.3h0c-.3,0-.6,0-1,0-.4,0-.7.2-1,.4,0,0,0,.1,0,.2l1.9,2s0,0,0,.1c0,0,0,0,0,0l-2.2-1.3c0,0-.1,0-.2,0l-1.3,1.7c0,0,0,.1,0,.2l1,1s0,0,0,.1c0,0,0,0,0,0l-1.2-.4c0,0-.1,0-.2,0l-1.3,2h5.4l.6-.7c0,0,0-.1,0-.2l-1.3-1.4s0,0,0-.1c0,0,0,0,0,0l2,1.2c0,0,.1,0,.2,0l.5-.7c.4-.4.6-1,.5-1.6,0-.3-.1-.7-.3-.9h0c.2-.4.2-.7.2-.9l1.6-1.4c.1-.1.2-.3,0-.5-.1-.1-.3-.2-.5,0l-1.1.9,1.6-2c.1-.2,0-.4,0-.5-.2-.1-.4,0-.5,0l-1.1,1.4.3-.5c0-.2,0-.4-.2-.5Z"/>
    <path class="cls-9" d="M46.3,8.5c-.2,1.3.7,2.4,2,2.6.2,0,.5,0,.7,0,0,.5.5.9,1,1,.5,0,1-.2,1.2-.7.4.4.7.7,1,1.2h2.6c-.8-1.1-.8-1.8-.9-3.1.8,0,1.4-.4,1.5-1.2,0-.5-.2-1-.5-1.3.1-.2.2-.5.2-.7.1-1.1-.6-2-1.7-2.2-.7,0-1.4.2-1.8.7-.3-.4-.8-.8-1.4-.8-1.2-.1-2.2.7-2.4,1.8,0,.2,0,.5,0,.7-.9.2-1.7,1-1.8,2ZM51.1,10.1s0,0-.1-.1l-.2-.2c0,0,0-.2.1-.3.3,0,.5-.1.7-.3.1.7.3,1.3.6,1.9l-1-1ZM52.2,9.2c.1.1.3.2.5.3,0,0,.2,0,.2,0l.2,2.1c-.5-.8-.8-1.6-1-2.3Z"/>
    <path class="cls-9" d="M67.4,13.8h-.5v-.7c0-.1,0-.2-.2-.2h-1.5c-.1,0-.2,0-.2.2v.7h-16.6v-.7c0-.1,0-.2-.2-.2h-1.5c-.1,0-.2,0-.2.2v.7h-.5c-.1,0-.2,0-.2.2v5.4c0,.1,0,.2.2.2h.5v1.5h-.5c-.1,0-.2,0-.2.2v5.4c0,.1,0,.2.2.2h21.4c.1,0,.2,0,.2-.2v-5.4c0-.1,0-.2-.2-.2h-.5v-1.5h.5c.1,0,.2,0,.2-.2v-5.4c0-.1,0-.2-.2-.2ZM66.4,16.6c0,.3-.2.5-.5.5s-.5-.2-.5-.5.2-.5.5-.5.5.2.5.5ZM48,16.6c0,.3-.2.5-.5.5s-.5-.2-.5-.5.2-.5.5-.5.5.2.5.5ZM47.5,24.3c-.3,0-.5-.2-.5-.5s.2-.5.5-.5.5.2.5.5-.2.5-.5.5ZM65.4,23.8c0-.3.2-.5.5-.5s.5.2.5.5-.2.5-.5.5-.5-.2-.5-.5ZM65,21.1h-16.6v-1.5h16.6v1.5Z"/>
  </g>
  <g>
    <path class="cls-6" d="M11.6,28.3c1.2,0,2.1-.8,3.3-.8s2.1.9,3.3.8c1.2,0,5.4-2.5,6.8-9,1.4-6.3-4.1-10.9-9.3-8-.2-1.2-.6-4.2-1-6.1,0-.1,0-.2-.2-.3-.1,0-.3,0-.4,0-.5.1-1,.3-1.5.4-.1,0-.2.1-.3.2,0,.1,0,.2,0,.4.4,1.5.8,3.8,1,5.1-4.9-2-9.8,2.4-8.5,8.4,1.4,6.5,5.6,8.9,6.8,9Z"/>
    <path class="cls-6" d="M17.2,8.9c.2-.4,1.1-.7,2.2-.7,1.9,0,4.2-1.9,3.3-4.9,0-.1-.2-.1-.3,0-.3.3-.9.7-1.7.8-1.8.1-4.8.6-3.7,4.8,0,0,.1,0,.1,0Z"/>
  </g>
  <path class="cls-6" d="M20.5,21.8l13.2,13.2,1.3-1.3-13.2-13.2c-.5.4-.9.8-1.3,1.3Z"/>
  <rect class="cls-9" x="36" y="28.6" width="12.8" height="1.8" transform="translate(-8.5 38.7) rotate(-45)"/>
  <rect class="cls-3" x="43.8" y="34.2" width="1.8" height="21.1" transform="translate(-18.5 44.7) rotate(-45)"/>
  <rect class="cls-1" x="21.6" y="41.7" width="15.4" height="1.8" transform="translate(-21.6 33.2) rotate(-45)"/>
  <rect class="cls-7" x="32.2" y="32.2" width="7.5" height="7.5" rx="3.8" ry="3.8"/>
  <path id="_2" data-name="2" class="cls-8" d="M11.6,52.9c0,.4,0,.8,0,1.2,0,1.4.5,1.9,1.5,2.6.5.4,1,.7,1.6.9.2-2.7-.8-4.1-3-4.7h0ZM20.6,54.3c0,.4,0,.7,0,1.1,0,1.3.5,1.7,1.4,2.4.5.4,1,.6,1.5.8.2-2.5-.7-3.8-2.8-4.3h0ZM24.3,66.5v4.1h-.9v-8c-.5-.2-1-.6-1.4-.9-.9-.7-1.3-1.1-1.4-2.4,0-.4,0-.7,0-1.1,2.1.5,3,2,2.8,4.4h.8c-.2-2.5.7-3.9,2.8-4.4,0,.4,0,.7,0,1.1,0,1.3-.5,1.7-1.4,2.4-.4.3-.9.8-1.4,1v3.9h0ZM27,50.2v-6c0-.1,0-.2-.2-.2h0c0,0-.2,0-.2.2v6.1c-1.8.6-2.6,1.9-2.4,4.2.5-.2,1-.5,1.5-.8.9-.7,1.3-1.1,1.4-2.4,0-.4,0-.7,0-1.1h0ZM24,46.1c1.1,1.7,1.1,3.2-.2,4.8-1.3-1.6-1.3-3.1-.2-4.8v-6.2c0-.1,0-.2.2-.2h0c0,0,.2,0,.2.2v6.2h0ZM21,50.3c1.8.6,2.6,1.9,2.4,4.2-.5-.2-1-.5-1.5-.8-.9-.7-1.3-1.1-1.4-2.4,0-.4,0-.7,0-1.1v-6c0-.1,0-.2.2-.2h0c0,0,.2,0,.2.2v6.1h0ZM27,54.3c-2.1.5-3,1.8-2.8,4.3.5-.2,1-.5,1.5-.8.9-.7,1.3-1.1,1.4-2.4,0-.4,0-.7,0-1.1h0ZM2.9,54.3c0,.4,0,.7,0,1.1,0,1.3.5,1.7,1.4,2.4.5.4,1,.6,1.5.8.2-2.5-.7-3.8-2.8-4.3h0ZM6.5,66.5v4.1h-.9v-8c-.5-.2-1-.6-1.4-.9-.9-.7-1.3-1.1-1.4-2.4,0-.4,0-.7,0-1.1,2.1.5,3,2,2.8,4.4h.8c-.2-2.5.7-3.9,2.8-4.4,0,.4,0,.7,0,1.1,0,1.3-.5,1.7-1.4,2.4-.4.3-.9.8-1.4,1v3.9h0ZM9.3,50.2v-6c0-.1,0-.2-.2-.2h0c0,0-.2,0-.2.2v6.1c-1.8.6-2.6,1.9-2.4,4.2.5-.2,1-.5,1.5-.8.9-.7,1.3-1.1,1.4-2.4,0-.4,0-.7,0-1.1h0ZM6.3,46.1c1.1,1.7,1.1,3.2-.2,4.8-1.3-1.6-1.3-3.1-.2-4.8v-6.2c0-.1,0-.2.2-.2h0c0,0,.2,0,.2.2v6.2h0ZM3.3,50.3c1.8.6,2.6,1.9,2.4,4.2-.5-.2-1-.5-1.5-.8-.9-.7-1.3-1.1-1.4-2.4,0-.4,0-.7,0-1.1v-6c0-.1,0-.2.2-.2h0c0,0,.2,0,.2.2v6.1h0ZM9.3,54.3c-2.1.5-3,1.8-2.8,4.3.5-.2,1-.5,1.5-.8.9-.7,1.3-1.1,1.4-2.4,0-.4,0-.7,0-1.1h0ZM15.5,66.1v4.5h-1v-8.7c-.5-.2-1.1-.7-1.5-1-1-.7-1.4-1.2-1.5-2.6,0-.4,0-.8,0-1.2,2.2.6,3.3,2.1,3,4.8h.9c-.2-2.7.8-4.3,3-4.8,0,.4,0,.8,0,1.2,0,1.4-.5,1.9-1.5,2.6-.5.4-1,.8-1.6,1v4.2h0ZM18.5,48.4v-6.5c0-.1,0-.2-.2-.2h0c-.1,0-.2.1-.2.2v6.6c-2,.6-2.9,2-2.6,4.6.6-.2,1.1-.5,1.6-.9,1-.7,1.4-1.2,1.5-2.6,0-.4,0-.8,0-1.2h0ZM15.3,43.9c1.2,1.9,1.2,3.5-.2,5.3-1.4-1.8-1.4-3.4-.2-5.3v-5.7c0-.1,0-.2.2-.2h0c.1,0,.2.1.2.2v5.7h0ZM12,48.5c2,.6,2.9,2,2.6,4.6-.6-.2-1.1-.5-1.6-.9-1-.7-1.4-1.2-1.5-2.6,0-.4,0-.8,0-1.2v-6.5c0-.1,0-.2.2-.2h0c.1,0,.2.1.2.2v6.6h0ZM18.5,52.9c-2.3.6-3.3,2-3,4.7.6-.2,1.1-.5,1.6-.9,1-.7,1.4-1.2,1.5-2.6,0-.4,0-.8,0-1.2Z"/>
</svg>