<?xml version="1.0" encoding="UTF-8"?>
<svg id="Layer_1" data-name="Layer 1" xmlns="http://www.w3.org/2000/svg" width="1in" height="1in" version="1.1" viewBox="0 0 72 72">
  <defs>
    <style>
      .cls-1 {
        fill: #56bfab;
      }

      .cls-1, .cls-2, .cls-3, .cls-4, .cls-5, .cls-6, .cls-7, .cls-8, .cls-9, .cls-10, .cls-11 {
        stroke-width: 0px;
      }

      .cls-2 {
        fill: #f89e55;
      }

      .cls-3 {
        fill: #0b424d;
      }

      .cls-4 {
        fill: #71624f;
      }

      .cls-5 {
        fill: #d7c593;
      }

      .cls-6 {
        fill: #611b56;
      }

      .cls-7 {
        fill: #7c6b66;
      }

      .cls-8 {
        fill: #dc574b;
      }

      .cls-9 {
        fill: #fff8df;
      }

      .cls-10 {
        fill: #c04040;
      }

      .cls-11 {
        fill: #81ab4f;
      }
    </style>
  </defs>
  <rect class="cls-5" x="0" y="0" width="72" height="72" rx="9" ry="9"/>
  <path class="cls-3" d="M21.8,60.8c0,0,0,.1,0,.2,0,0,0-.1,0-.2Z"/>
  <g>
    <path class="cls-2" d="M14.1,52.4c0,.1,0,.2.2.2s.2,0,.2-.2,0-.2-.2-.2-.2,0-.2.2Z"/>
    <path class="cls-2" d="M13.1,51.8c0,.2.1.3.3.3s.3-.1.3-.3-.1-.3-.3-.3-.3.1-.3.3Z"/>
    <path class="cls-2" d="M12.3,52.1c-.2,0-.4.2-.4.4s.2.4.4.4.4-.2.4-.4-.2-.4-.4-.4Z"/>
    <path class="cls-2" d="M6.3,68c.4,0,.9,0,1.3-.1.3-.1.6-.3.9-.5,1.5.8,3.1,1.2,4.8,1.2,1.7,0,3.4-.4,4.8-1.2.3.2.5.4.9.5.4.1.9.2,1.3.1.3,0,.7-.2.9-.5.2-.3,0-.7-.2-1.1-.2-.5-.4-1-.4-1.5,0-.7,0-1.3.1-2,0-.8.1-1.6,0-2.3-.2-.9-.6-1.7-1.1-2.4-.5-.8-1.1-1.5-1.4-2.4,0-.2-.2-.4-.2-.7.7-.4,1.2-.9,1.2-1.5s-.5-1.2-1.4-1.6c-.1,0-.2,0-.1.2,0,0,0,.2,0,.3,0,.5-.8,1-1.9,1.3-.7.2-1.6.3-2.5.3s-2-.1-2.7-.3c-1-.3-1.7-.7-1.7-1.2s0-.2,0-.3c0-.1,0-.3-.1-.2-.9.4-1.4,1-1.4,1.6s.4,1.1,1.2,1.5c0,.2-.1.4-.2.7-.4.9-.9,1.6-1.4,2.4-.5.8-.9,1.6-1.1,2.4-.2.8-.1,1.6,0,2.3,0,.7.2,1.3.1,2,0,.5-.2,1-.4,1.5-.1.3-.3.7-.2,1.1.1.3.6.4.9.5ZM11.3,64.5l.4-.6.6-.8s0,0,0,0c0,0,0,0,0,0l-1.1.8-.6.4-1.3.9s0,0-.1,0l-.3-.5s0,0,0-.1l1.7-1c0-.1,0-.2,0-.3,0-.3.2-.7.4-1.1.2-.4.5-.8,1-1.1.6-.4,1.4-.6,2.1-.7,1-.2,1.9-.1,2.4-.1,0,0,0,0,0,0,0,0,.1,0,.1.1,0,0,0,.1,0,.2-.3.8-1.3,2.9-2.6,3.8-1.2.8-2.2.6-2.8.4,0,0,0,0,0,0ZM14.3,59.5c-.8,0-1.6.3-2.3.6-.3.2-.6.4-.8.7,0-.3.2-.7.4-1,.7-1.3,2.2-1.9,2.6-2,0,0,0,0,0,0,0,.2.2.9.1,1.6Z"/>
    <path class="cls-2" d="M10.6,52.8h0c0-.2.3-.4.6-.4s0,0,0,0c0,0,0,0,0-.1,0-.5.4-.9.9-.9s.2,0,.4,0c.1-.4.5-.7.9-.7s.8.3.9.7c0,0,0,0,.1,0,.3,0,.5.2.7.4,0,0,0,0,0,0,.5,0,.9.4,1,.9.2,0,.4-.1.6-.2-.1-.7-.7-1.2-1.4-1.3-.2-.2-.4-.3-.7-.4-.3-.5-.8-.7-1.3-.7s-1,.2-1.2.6h0c-.7,0-1.4.5-1.5,1.2-.3.1-.5.4-.6.6.2,0,.4.1.6.2,0,0,0,0,0,0Z"/>
  </g>
  <g>
    <path class="cls-4" d="M62.3,67.1h.9c0,0,.1,0,.1,0l1-2.9-.4-.4c-.1.2-.3.4-.6.4h-.1c0,0-.2,0-.3,0l-.7,2.8s0,0,0,.1c0,0,0,0,.1,0Z"/>
    <path class="cls-4" d="M57.3,67.1h1s0,0,0,0c0,0,0,0,0-.1l-.8-4.7c-.1,0-.3,0-.4.2l-.7,1v1.5c-.1,0,.6,2.1.6,2.1,0,0,0,0,.1,0Z"/>
    <path class="cls-4" d="M68.6,58.9c0,0-.2-.1-.3-.2,0-.3,0-.7,0-1.1,0-.8,0-1.8-.7-2.6-.6-.8-1.8-1.3-2.9-1.2-3.1,0-6.2,0-9.8,0-.4,0-.8.2-1.1.5l-4.3,5.3h-.3c-.2-.4-.4-.6-.6-.7,0,0-.1,0-.2,0,0,0,0,0,0,.1v.8c-.6.1-1,.6-1.1.9,0,0,0,.1,0,.2,0,0,0,0,.1,0h.4s-.2.3-.2.3c0,.1,0,.2,0,.4h0c0,.2,0,.4,0,.5l-.4,2.1c0,.2,0,.3.2.4l.4.2c.2,0,.4,0,.5,0,.6-.3,1-.6,1.4-1,.4-.4.7-.9,1.1-1.5,0,0,0,0,.2,0h2.3c.1,0,.3,0,.3.1v.3c.1,0,.6,1.1.6,1.1l.2,3.9c0,0,0,.1.1.1h1c0,0,.1,0,.1-.1h0c0-.1.4-4.5.4-4.5v-.2s.8-1.1.8-1.1c.1-.2.3-.2.5-.2h3.8c0,.2,0,.4.1.5,0,.2.2.4.4.6v.7c0,.2.1.3.3.3h.1c.2,0,.3-.1.3-.3v-.3c0,0,.2,0,.3,0s0,0,0,0c0,0,.2,0,.2,0v.3c0,.2.1.3.3.3h.1c.1,0,.3-.1.3-.2,0,0,0,0,0,0v-.6c0,0,.2-.2.3-.3h.2c0,.1.2.3.2.3l.2.2,1.3,1.1h.2v3.6c0,.1,0,.2.2.2h1c.1,0,.2,0,.2-.2v-4.8c0-.2,0-.3-.1-.5l-1.1-1.9.7-3.6c0-.1,0-.3,0-.4l-.3-1.4c0-.1,0-.3-.2-.4.3.2.7.4.9.7.5.7.6,1.5.6,2.2,0,.3,0,.8,0,1.2,0,.2,0,.5,0,.7,0,.4.2.8.5,1.1.1.1.3.2.5.3,0,0,.3.3.3,0,0-.2,0-.4.1-.5,0-.3,0-.5,0-.8-.1-.3-.3-.6-.6-.8Z"/>
  </g>
  <g>
    <path class="cls-11" d="M65.7,4.1c-.1,0-.3,0-.4.1l-.7,1.4c-.3,0-.6,0-.8.3h0c-.3,0-.5,0-.8,0-.3,0-.6.2-.8.3,0,0,0,0,0,.1l1.5,1.6s0,0,0,0c0,0,0,0,0,0l-1.8-1.1s-.1,0-.1,0l-1.1,1.4s0,.1,0,.2l.8.8s0,0,0,0c0,0,0,0,0,0l-1-.3c0,0-.1,0-.2,0l-1.1,1.7h4.5l.5-.6s0-.1,0-.2l-1.1-1.1s0,0,0,0c0,0,0,0,0,0l1.6,1s.1,0,.1,0l.4-.6c.3-.4.5-.8.4-1.3,0-.3-.1-.5-.3-.8h0c.2-.3.2-.5.1-.8l1.3-1.1c.1-.1.1-.3,0-.4-.1-.1-.3-.1-.4,0l-.9.8,1.3-1.6c0-.1,0-.3,0-.4-.1,0-.3,0-.4,0l-.9,1.2.2-.4c0-.1,0-.3-.1-.4Z"/>
    <path class="cls-11" d="M50.2,7.6c-.1,1,.6,2,1.6,2.1.2,0,.4,0,.6,0,0,.4.4.8.8.8.4,0,.8-.2,1-.5.3.3.6.6.9,1h2.1c-.6-.9-.7-1.5-.7-2.5.6,0,1.2-.4,1.3-1,0-.4-.1-.8-.4-1.1.1-.2.2-.4.2-.6.1-.9-.5-1.7-1.4-1.8-.6,0-1.1.2-1.4.6-.3-.4-.7-.6-1.2-.7-.9-.1-1.8.5-1.9,1.5,0,.2,0,.4,0,.6-.8.2-1.3.8-1.5,1.6ZM54.1,8.9s0,0,0,0l-.2-.2c0,0,0-.2,0-.3.2,0,.4-.1.5-.3.1.6.3,1.1.5,1.6l-.8-.8ZM55,8.2c.1.1.2.2.4.2,0,0,.1,0,.2,0l.2,1.7c-.4-.6-.7-1.3-.8-1.9Z"/>
    <path class="cls-11" d="M67.5,11.9h-.4v-.6c0,0,0-.2-.2-.2h-1.2c0,0-.2,0-.2.2v.6h-13.6v-.6c0,0,0-.2-.2-.2h-1.2c0,0-.2,0-.2.2v.6h-.4c0,0-.2,0-.2.2v4.4c0,0,0,.2.2.2h.4v1.2h-.4c0,0-.2,0-.2.2v4.4c0,0,0,.2.2.2h17.5c0,0,.2,0,.2-.2v-4.4c0,0,0-.2-.2-.2h-.4v-1.2h.4c0,0,.2,0,.2-.2v-4.4c0,0,0-.2-.2-.2ZM66.7,14.2c0,.2-.2.4-.4.4s-.4-.2-.4-.4.2-.4.4-.4.4.2.4.4ZM51.6,14.2c0,.2-.2.4-.4.4s-.4-.2-.4-.4.2-.4.4-.4.4.2.4.4ZM51.2,20.5c-.2,0-.4-.2-.4-.4s.2-.4.4-.4.4.2.4.4-.2.4-.4.4ZM65.8,20.1c0-.2.2-.4.4-.4s.4.2.4.4-.2.4-.4.4-.4-.2-.4-.4ZM65.5,18h-13.6v-1.2h13.6v1.2Z"/>
  </g>
  <g>
    <path class="cls-9" d="M19.7,31.7c-.4,0-.7.2-.9.6h-1.9c.6-.3,1-.8.9-1.5-.1-.7-.7-1.1-1.2-1-.3,0-.6.2-.7.5-.1.3-.1.5,0,.8.1.2.4.3.6.2.2-.1.3-.4.2-.6,0,0,0,0,0,0,0,0,.2,0,.2.2,0,.3-.2.5-.4.6-.6.2-1.4-.6-2.4-1.4-.9-.9-2-1.9-3.3-2.4-1.7-.7-4-.5-4.9,1.2-.1.2-.2.4-.3.6v-1.9h-1.6v6h1.6v-.5h13.3c.2.3.5.6.9.6s1-.5,1-1-.5-1-1-1ZM10.3,31.2c0,.4,0,.8.3,1.1h-1.9c.3-.4.5-.9.4-1.4,0-.2-.3-.4-.5-.3-.2,0-.4.3-.3.5,0,.3-.1.7-.5.8-.3,0-.6,0-.9-.1-.3-.2-.5-.4-.6-.7-.1-.5,0-1.2.2-1.7.7-1.2,2.5-1.4,3.8-.8.6.2,1.1.6,1.6,1-.4,0-.8.2-1.1.5-.3.3-.6.7-.6,1.2ZM13,32.3c.3-.4.2-1-.1-1.4,0,0-.1-.1-.2-.2-.2-.1-.4,0-.5.1-.1.2,0,.4.1.5,0,0,0,0,0,0,.1.1.1.4,0,.5-.1.1-.3.2-.4.2-.2,0-.3,0-.4-.2-.2-.2-.3-.4-.2-.7,0-.3.1-.5.3-.6.5-.4,1.2-.5,1.7,0,0,0,.2.2.2.2.7.7,1.4,1.3,2.1,1.6h-2.6Z"/>
    <path class="cls-9" d="M19.5,37.3c-.2,0-.5-.1-.6-.3-.2-.2-.3-.4-.3-.6,0,0,0-.2-.2-.2h-1c-.6,0-1.2-.2-1.6-.7-.7-.7-2-1.2-3.6-1.2s-2.9.5-3.6,1.2c-.4.4-1,.7-1.6.7h-1c0,0-.2,0-.2.2,0,.2-.1.5-.3.6-.2.2-.4.3-.6.3,0,0-.2,0-.2.2v5.8c0,.5.4.9.9.9h13.1c.5,0,.9-.4.9-.9v-5.8c0,0,0-.2-.2-.2ZM14.9,42.4l-.5.5s-.1,0-.2,0l-1.7-1.8s0-.1,0-.2h0s-.5-.5-.5-.5l-.4.4h0c0,0,0,.2,0,.2l-1.7,1.7s-.1,0-.2,0l-.5-.5s0-.1,0-.2l1.7-1.7s.1,0,.2,0h0s.4-.4.4-.4l-.5-.5c-.2,0-.5.1-.7.2,0,0-.1,0-.2,0l-1.3-1.3s0-.1,0-.2l.2-.2,1.2,1.2s0,0,0,0,0,0,0,0c0,0,0-.1,0-.2l-1.2-1.2.2-.2,1.2,1.2s0,0,0,0,0,0,0,0c0,0,0-.1,0-.2l-1.2-1.2.2-.2,1.2,1.2s0,0,0,0,0,0,0,0c0,0,0-.1,0-.2l-1.2-1.2.2-.2s.1,0,.2,0l1.3,1.3c0,0,0,.1,0,.2,0,.2-.1.4-.2.7l.5.5.3-.3c-.1-.4,0-.9.5-1.4.6-.6,1.4-.8,1.8-.5.4.4.2,1.2-.5,1.8-.5.5-1,.7-1.4.5l-.3.3.5.5h0c0,0,.1,0,.2,0l1.7,1.8s0,.1,0,.2Z"/>
    <path class="cls-9" d="M6.8,34.6c.2,0,.4-.2.4-.4s-.2-.4-.4-.4-.4.2-.4.4.2.4.4.4Z"/>
    <path class="cls-9" d="M6.8,35.8c.2,0,.4-.2.4-.4s-.2-.4-.4-.4-.4.2-.4.4.2.4.4.4Z"/>
    <path class="cls-9" d="M17.6,34.6c.2,0,.4-.2.4-.4s-.2-.4-.4-.4-.4.2-.4.4.2.4.4.4Z"/>
    <path class="cls-9" d="M17.6,35.8c.2,0,.4-.2.4-.4s-.2-.4-.4-.4-.4.2-.4.4.2.4.4.4Z"/>
  </g>
  <g>
    <path class="cls-7" d="M15.5,7.7c.3-.3.7-1,.7-1.7,0-1.1-1-1.2-1.1-2.1,0-.4.1-.8.2-1.1,0,0,0-.1-.1,0-.4.4-1.1,1.2-.9,2.2.3,1.2,1.5,1.6,1.1,2.9,0,0,0,.1,0,0Z"/>
    <path class="cls-7" d="M14,8.8c.2-.2.3-.6.3-1,0-.7-.6-.7-.7-1.3,0-.2,0-.4,0-.6,0,0,0-.2-.1,0-.2.3-.6.7-.4,1.2.2.7.8,1,.7,1.6,0,0,0,.1.1,0Z"/>
    <path class="cls-7" d="M8.5,16.1c.3,0,.5-.2.5-.5s-.2-.5-.5-.5-.5.2-.5.5.2.5.5.5Z"/>
    <path class="cls-7" d="M9.7,16.6c.2,0,.3-.1.3-.3s-.1-.3-.3-.3-.3.1-.3.3.1.3.3.3Z"/>
    <path class="cls-7" d="M17.6,16c.2,0,.4-.2.4-.4s-.2-.4-.4-.4-.4.2-.4.4.2.4.4.4Z"/>
    <path class="cls-7" d="M19.1,16.3c.1,0,.2,0,.2-.2s0-.2-.2-.2-.2,0-.2.2,0,.2.2.2Z"/>
    <path class="cls-7" d="M7.5,19.3h13.2c1,0,1.9-.5,2.5-1.3.5-.7.6-1.6.3-2.5-.6-1.6-1.9-3-3.6-3.9-.5-.3-1-.5-1.5-.7-.2,0-.4,0-.4.3,0,0,0,.2,0,.3,0,0,0,0-.1,0,0-.1-.2-.3-.3-.5-.2-.3-.4-.4-.7-.5-.9-.2-1.8-.3-2.7-.3s-.5,0-.8,0c-.2,0-.4.3-.3.5,0,.1,0,.2,0,.3,0,0,0,0-.1,0,0-.1-.2-.2-.4-.4-.2-.2-.5-.3-.8-.2-1,.2-1.9.5-2.8.9-.2.1-.3.4-.2.6,0,.2.1.4.2.5,0,0,0,.1-.1,0,0-.1-.2-.3-.4-.4-.2-.2-.5-.2-.8,0-1.4.9-2.4,2.1-2.9,3.5-.3.8-.2,1.7.3,2.5,0,0,0,0,0,0-1,.1-1.6.4-1.6.6s.5.4,1.4.6h2.6ZM6.4,16.2c.3-.9,1-1.7,1.9-2.4.1,0,.3,0,.4,0,1.1.5,1.8,1.3,2.1,1.8,0,0,.2,0,.2,0-.1-.6-.5-1.7-1-2.4,0,0,0-.2,0-.3.5-.2,1.1-.4,1.7-.5.1,0,.3,0,.4,0,1.2.6,1.9,1.6,2.2,2.1,0,.1.2,0,.2,0,0-.6-.2-1.5-.5-2.2,0,0,0-.2.1-.2.7,0,1.4,0,2,.2.2,0,.3,0,.4.2,1.1.8,1.7,1.9,2,2.5,0,.1.2,0,.2,0,0-.4,0-1,0-1.6,0,0,0-.2.2-.1,1.3.7,2.3,1.7,2.7,2.9.2.7-.4,1.3-1.1,1.3H7.5c-.7,0-1.3-.6-1.1-1.3Z"/>
  </g>
  <g>
    <path class="cls-8" d="M34.2,68.8c.7,0,1.1-.5,1.8-.5s1.2.5,1.8.5c.7,0,2.9-1.4,3.7-4.9.7-3.4-2.2-6-5.1-4.4,0-.6-.4-2.3-.5-3.4,0,0,0-.1-.1-.2,0,0-.1,0-.2,0-.3,0-.5.1-.8.2,0,0-.1,0-.2.1,0,0,0,.1,0,.2.2.8.4,2.1.5,2.8-2.7-1.1-5.3,1.3-4.6,4.6.8,3.6,3,4.9,3.7,4.9Z"/>
    <path class="cls-8" d="M37.2,58.3c.1-.2.6-.4,1.2-.4,1,0,2.3-1,1.8-2.7,0,0,0,0-.1,0-.2.1-.5.4-.9.4-1,0-2.6.3-2,2.6,0,0,0,0,0,0Z"/>
  </g>
  <path class="cls-1" d="M44.3,9.9c0-.1,0-.3,0-.4l1.6-2.9c.1-.2,0-.5-.2-.5-.6,0-1.6,0-2.8.8-1.4.9-1.5,1.4-2.2,1.4-.2,0-.3,0-.4-.2-.4-.3-1.2-.9-2.3-1.4-.7-1.3-1.9-2.5-2.4-3-.2-.2-.5-.2-.8,0-.8.5-1.7,1.4-2.4,2-.2,0-.4,0-.5.1-2.9.9-4.4,3.1-4.9,4.1-.1.3-.1.6,0,.8.7.8,2.7,2.8,5.4,3l.7,1.4c.3.5.9.8,1.4.6,0,0,0,0,0,0l1.7-.7c.2,0,.3-.4.1-.5l-.8-.9-1.2-1.3,1.9,1.1c2.2-.6,3.6-1.7,4.3-2.1.2-.1.4-.1.6-.1.1,0,.3.1.4.2,1.1,1.6,3.3,1.7,4.3,1.5.2,0,.3-.3.2-.5l-1.8-2.5Z"/>
  <path class="cls-7" d="M20.5,21.8l13.2,13.2,1.3-1.3-13.2-13.2c-.5.4-.9.8-1.3,1.3Z"/>
  <rect class="cls-9" x="21.7" y="35.1" width="11.9" height="1.8"/>
  <rect class="cls-1" x="35.1" y="17" width="1.8" height="16.9"/>
  <rect class="cls-8" x="35.1" y="38.9" width="1.8" height="14.5"/>
  <rect class="cls-6" x="38.6" y="35.1" width="14.4" height="1.8"/>
  <rect class="cls-11" x="35.8" y="28" width="14.5" height="1.8" transform="translate(-7.9 38.9) rotate(-45)"/>
  <rect class="cls-7" x="43.6" y="34.2" width="1.8" height="20.7" transform="translate(-18.4 44.5) rotate(-45)"/>
  <rect class="cls-2" x="17" y="43.6" width="20.8" height="1.8" transform="translate(-23.5 32.5) rotate(-45)"/>
  <rect class="cls-10" x="32.2" y="32.2" width="7.5" height="7.5" rx="3.8" ry="3.8"/>
  <g>
    <path class="cls-6" d="M55.7,45.3h5.3c.2,0,.4-.2.4-.4v-10.6c0-.7-.4-1.3-.9-1.7l-1-.6v-3.4h-2.2v3.4l-1,.6c-.6.4-.9,1-.9,1.7v2.3h3v5.1h-3v3.3c0,.2.2.4.4.4Z"/>
    <path class="cls-6" d="M59.6,26.4c0,0,0-.2-.2-.2h-2.3c0,0-.2,0-.2.2v1.3h2.7v-1.3Z"/>
    <path class="cls-6" d="M65.8,41.1v2.9c-.3.3-.6.8-1.9.9,0,0-.2,0-.2.2h0c0,.2,0,.3.1.3h5s0,0,0,0v-.2c0,0,0-.2-.2-.2-1.2,0-1.6-.5-1.9-.9v-2.8c.5-.4,1.4-1,1.9-1.9.3-.5.4-1,.4-1.6,0-.3,0-.7-.2-1,0-.4-.2-.8-.3-1.1l-.2-.6h-4.3l-.2.6c0,.3-.2.7-.3,1.1,0,.3-.1.6-.2.9,0,.7.1,1.4.5,1.9.4.6,1,1.2,1.6,1.6ZM64.4,37.7c0-.3,0-.6.1-.8,0-.4.2-.7.3-1h3.1c0,.3.2.5.2.8h-2.5c0,0-.1,0-.1.1l-.3,1.2c0,0,0,.2,0,.2l.2,1.5c-.2-.2-.5-.5-.6-.7-.3-.4-.4-.9-.4-1.4Z"/>
  </g>
</svg>