<?xml version="1.0" encoding="UTF-8"?>
<svg id="Layer_1" data-name="Layer 1" xmlns="http://www.w3.org/2000/svg" width="1in" height="1in" version="1.1" viewBox="0 0 72 72">
  <defs>
    <style>
      .cls-1 {
        fill: #d7c593;
      }

      .cls-1, .cls-2 {
        stroke-width: 0px;
      }

      .cls-2 {
        fill: #c04040;
      }
    </style>
  </defs>
  <rect class="cls-1" x="0" width="72" height="72" rx="9" ry="9"/>
  <g>
    <path class="cls-2" d="M60.5,20.3h2.8l-1.7-7.3h-2.6l-.3-1.5c-.2-1-1.1-1.8-2.2-1.8h-26v-3.3h-6.3v3.3h-1.8c-5.4,3-9.7,6.9-13.2,11.9-2.4,3.4-2.7,7.9-.8,11.6,1.4,2.8,3.9,4.7,6.8,5.6l1,2.6h1.5v4.5h-1.4c-2,0-3.7,1.6-3.7,3.7v12.2c0,2,1.6,3.7,3.7,3.7h5.1c-.2-.5-.3-1-.3-1.6v-.9h-.9v-14.6h.9c0-.9.4-1.8,1-2.5-.1,0-.2,0-.3,0h-1.4v-4.5h1.5l.8-2.1h3.1l.7,2.1h1.7v4.5h-1.4c-1,0-1.8.4-2.5,1-.7.7-1.2,1.6-1.2,2.7v12.2c0,1.1.5,2,1.2,2.7.7.6,1.5,1,2.5,1h5.5c2,0,3.7-1.6,3.7-3.7v-12.2c0-2-1.6-3.7-3.7-3.7h-1.4v-4.5h1.7l.7-2.1h28.7c.7,0,1.3-.3,1.7-.8.4-.5.6-1.2.4-1.9l-3.5-16.3ZM17.6,63.1h-1.4c-.6,0-1.2-.5-1.2-1.2v-12.2c0-.6.5-1.2,1.2-1.2h1.4v14.6ZM25.5,61.9v-12.2c0-.6.5-1.2,1.2-1.2h2.9v14.6h-2.9c-.6,0-1.2-.5-1.2-1.2ZM33.3,49.7v12.2c0,.6-.5,1.2-1.2,1.2h-.2v-14.6h.2c.6,0,1.2.5,1.2,1.2ZM53.4,24.5h-29.7c-.6,0-1.1-.3-1.3-.9-.2-.5-.2-1.1.2-1.6l3.8-4.5c.5-.6,1.3-1,2.2-1h23.1c.2,0,.4.1.4.3l1.5,7.2c0,.2,0,.3-.3.3Z"/>
    <polygon class="cls-2" points="65.5 18.7 72 18.7 72 14.6 64.4 14.6 65.5 18.7"/>
  </g>
</svg>