<?xml version="1.0" encoding="UTF-8"?>
<svg id="Layer_1" data-name="Layer 1" xmlns="http://www.w3.org/2000/svg" width="1in" height="1in" version="1.1" viewBox="0 0 72 72">
  <defs>
    <style>
      .cls-1 {
        fill: #eece83;
      }

      .cls-1, .cls-2, .cls-3, .cls-4, .cls-5, .cls-6, .cls-7 {
        stroke-width: 0px;
      }

      .cls-2 {
        fill: #71624f;
      }

      .cls-3 {
        fill: #d7c593;
      }

      .cls-4 {
        fill: #dc574b;
      }

      .cls-5 {
        fill-rule: evenodd;
      }

      .cls-5, .cls-7 {
        fill: #c04040;
      }

      .cls-6 {
        fill: #fff8df;
      }
    </style>
  </defs>
  <rect class="cls-3" x="0" y="0" width="72" height="72" rx="9" ry="9"/>
  <path class="cls-2" d="M18,62.5s-.2-.2-.6-.6c-.2-.2-.4-.4-.7-.7-.3-.3-.6-.5-.9-.8-.7-.6-1.5-1.3-2.4-2.1-.4-.4-.9-.8-1.4-1.2-.5-.4-1-.8-1.5-1.1-.5-.3-1-.7-1.6-1-.6-.3-1.1-.5-1.7-.8-.6-.2-1.1-.5-1.6-.7-.5-.2-.9-.5-1.3-.8-.4-.3-.7-.5-1-.8-.2-.3-.4-.6-.5-.9-.2-.6-.2-1-.2-1,0-1.3.9-2.3,2.1-2.5,0,0,.5,0,1,0,.3,0,.6.2.9.4.3.2.6.5.9.8.3.3.6.7.9,1.2.3.5.6,1,.9,1.5.3.5.6,1.1,1,1.6.4.5.8,1,1.2,1.5.4.5.8.9,1.3,1.3.4.4.9.8,1.3,1.2.9.8,1.7,1.5,2.4,2.1.3.3.7.6,1,.8.3.2.5.5.8.6.4.3.7.5.7.5.3.3.4.7.2,1.1-.3.3-.7.4-1.1.2,0,0,0,0,0,0Z"/>
  <g>
    <path class="cls-5" d="M55.8,24c0,.7.2.8.3.9.3.2.2,2.1-1.2,2,0,0-3.3.8-5.2,2.7-1.9,1.9-3.3,6.2-3.3,6.2l-6.1-6.1-2.6-1.4-3.9-1.4c-1.2-.4-1.5-1.8-1.4-3,0-1,.8-1.4,1.7-1.2.7.1,1.3.4,2.1.4s1.2-.2,1.1-.9c0-.3-.2-.5-.2-.7s.5-.4.5-.6c0-.1-.2-.5-.2-.6,0-.1.4-.2.4-.3,0-.4-.4-.7-.4-1.1s1.3-.6,1.3-.8-1.2-1.7-1.5-2.2c.3-.2.7-.2.9-.5-.9.2-.4,0-.9,0,.7-.7.6-1.6.4-2.3-.1-.4-.7-1.5-.7-1.7,0-.8.8,0,.4.5.8-.3,1.1-1.3,1.1-1.6,0-1.4-1.2-2.6-2.7-2.9-1.6-.2-3.6-.5-4.3-.5,0,0,0,0,0,0-.1-1.8-1.6-3.2-3.4-3.2s-2.7.9-3.2,2.2c-.3-.1-.6-.2-1-.2-1.3,0-2.4,1.1-2.4,2.4s.2,1.1.5,1.5c-1.2.5-2.1,1.7-2.1,3.1s1.4,3.3,3.2,3.4c.1.2.2.4.3.7.3,1.7,1.2,3,2.7,3.8.3.2.6.6.7.9.5,1.7.4,4.2-3.1,5.1l-2,.5-1.7,16.5c-4.7,5.5-6.4,7.9-3.8,11.4-1.3,0-2.3.2-3.4,1.3-.6,1.1-.9,2-1,3,0,.8.4,1.5,1.1,1.7l1.8.6c.6.2,1.2-.1,1.4-.7.6-1.6,1.8-3.4,2.8-4.2,3.4.6,5.3-2.2,5.4-11l.5-10.5s7.5,7.6,7.5,11.3-2,1-4.1,3.4c-4.3,4.8-8.5,15-8.5,22h35.9c0-7.2-9.2-26.6-14.6-34.6,0,0,4.4,4.1,5.7,4.1.8,0,6-4.3,9.2-7.3,1.7-1.7.9-4,.5-4.7.3-1.3,1.2-2,2.6-3.1,2-1.4,5.9-1,5.9-2.4h-9.1Z"/>
    <path class="cls-7" d="M32.5,48.1c-1.6-.6-3.2-1.3-4.6-2.3-.5-.4-1.3-.9-1.4-1.6-.2-.7-.4-2.6.4-3.1.5-.3,1.2-.3,1.8-.1.5.8,1.3,1.9,1.7,2.9-.4-.2-.8-.4-1.2-.6-.5-.2-1.6-.5-2.2-.2.3.3.6.5.8.7,1.4,1,3,1.7,4.6,2.3.3,0-.2,2,0,2.1Z"/>
    <path class="cls-7" d="M28.4,46c-.8.1-1.9.5-1.9,1.4,0,0,0,0,0,0h0s0,0,0,0c0,.6-.2,1.7.4,2.1.2.2.5.3.7.3.3-.5.9-1.2,1.7-1.6-.9.1-1.8.1-2.3-.2.5-.4,1.2-.5,1.7-.6.8-.1,2.4,0,3.1.3l.9-.6c-1.1-1-2.6-1.5-4.2-1.2Z"/>
  </g>
  <path class="cls-2" d="M67.2,23.3c0,.4-.3.7-.7.7h-11.7c-.4,0-.7-.3-.7-.7h13.1Z"/>
  <polygon class="cls-1" points="63.1 23 58 23 56.9 18.1 64.2 18.1 63.1 23"/>
  <path class="cls-4" d="M63.4,23.1c0,.1-.2.3-.3.3h-5c-.2,0-.3-.1-.3-.3l-1.1-4.9c0,0,0-.2,0-.3,0,0,.2-.1.3-.1h7.3c0,0,.2,0,.3.1,0,0,0,.2,0,.3l-1.1,4.9ZM58.3,22.7h4.5l1-4.2h-6.5l1,4.2Z"/>
  <path class="cls-4" d="M59.3,23.2c0,0-.2,0-.2-.2l-.6-4.9s0,0,0-.1c0,0,0,0,.1,0,0,0,0,0,0,0,0,0,.2,0,.2.2l.6,4.9c0,0,0,.2-.2.2,0,0,0,0,0,0Z"/>
  <path class="cls-4" d="M60.6,23.2c0,0-.2,0-.2-.2v-4.9c0,0,0-.2.2-.2s.2,0,.2.2v4.9c0,0,0,.2-.2.2Z"/>
  <path class="cls-4" d="M61.8,23.2s0,0,0,0c0,0-.2,0-.2-.2l.6-4.9c0,0,0-.2.2-.2s0,0,0,0c0,0,.2,0,.2.2l-.6,4.9c0,0,0,.2-.2.2Z"/>
  <path class="cls-6" d="M63.8,15.9c0-.1,0-.2,0-.3,0-.9-.7-1.6-1.5-1.7,0-.1,0-.2,0-.3,0-1-.8-1.8-1.7-1.8s-1.7.8-1.7,1.8,0,.2,0,.3c-.9.1-1.5.8-1.5,1.7s0,.2,0,.3c-.9.1-1.5.8-1.5,1.7s.8,1.5,1.7,1.5,1.2,0,1.5-.6c.3.5.9.6,1.5.6s1.2,0,1.5-.6c.3.5.9.6,1.5.6,1,0,1.7-.5,1.7-1.5s-.7-1.6-1.5-1.7Z"/>
</svg>