<?xml version="1.0" encoding="utf-8"?>
<!-- Generator: Adobe Illustrator 27.6.1, SVG Export Plug-In . SVG Version: 6.00 Build 0)  -->
<svg version="1.1" id="Layer_1" xmlns="http://www.w3.org/2000/svg" xmlns:xlink="http://www.w3.org/1999/xlink" x="0px" y="0px"
	 viewBox="0 0 72 72" style="enable-background:new 0 0 72 72;" xml:space="preserve">
<style type="text/css">
	.st0{fill:#D7C593;}
	.st1{fill:#71624F;}
	.st2{fill:#DC574B;}
	.st3{fill:#56BFAB;}
</style>
<g>
	<path class="st0" d="M63,72H9c-5,0-9-4-9-9V9c0-5,4-9,9-9h54c5,0,9,4,9,9v54C72,68,68,72,63,72z"/>
	<g>
		<path class="st1" d="M36.4,23.8c-8.2,0-14.9,6.7-14.9,14.9s6.7,14.9,14.9,14.9c8.2,0,14.9-6.7,14.9-14.9S44.6,23.8,36.4,23.8z
			 M36.4,51.5c-7.1,0-12.8-5.7-12.8-12.8s5.7-12.8,12.8-12.8c7.1,0,12.8,5.7,12.8,12.8S43.4,51.5,36.4,51.5z"/>
		<circle class="st2" cx="13.9" cy="24.8" r="1.1"/>
		<path class="st3" d="M36.4,28c-5.9,0-10.7,4.8-10.7,10.7s4.8,10.7,10.7,10.7c5.9,0,10.7-4.8,10.7-10.7S42.2,28,36.4,28z"/>
		<path class="st2" d="M58.8,23.8h-4.3c-0.6,0-1.1,0.5-1.1,1.1s0.5,1.1,1.1,1.1h4.3c0.6,0,1.1-0.5,1.1-1.1S59.4,23.8,58.8,23.8z"/>
		<polygon class="st2" points="43.2,15.2 29.5,15.2 28.5,17.4 44.2,17.4 		"/>
		<path class="st1" d="M63,17.4H50.9l-3.4-6.8c-0.5-1.1-1.6-1.8-2.9-1.8H28.1c-1.2,0-2.3,0.7-2.9,1.8l-3.4,6.8H9.7
			c-1.8,0-3.2,1.4-3.2,3.2v36.3c0,1.8,1.4,3.2,3.2,3.2H63c1.8,0,3.2-1.4,3.2-3.2V20.6C66.2,18.8,64.8,17.4,63,17.4z M25.8,17.9
			l2.1-4.3c0.2-0.4,0.6-0.6,1-0.6h14.9c0.4,0,0.8,0.2,1,0.6l2.1,4.3c0.2,0.3,0.1,0.7,0,1c-0.2,0.3-0.5,0.5-0.9,0.5H26.8
			c-0.4,0-0.7-0.2-0.9-0.5C25.7,18.7,25.6,18.3,25.8,17.9z M13.9,28c-1.8,0-3.2-1.4-3.2-3.2s1.4-3.2,3.2-3.2c1.8,0,3.2,1.4,3.2,3.2
			S15.7,28,13.9,28z M36.4,55.8c-9.4,0-17.1-7.7-17.1-17.1s7.7-17.1,17.1-17.1c9.4,0,17.1,7.7,17.1,17.1S45.8,55.8,36.4,55.8z
			 M58.8,28h-4.3c-1.8,0-3.2-1.4-3.2-3.2s1.4-3.2,3.2-3.2h4.3c1.8,0,3.2,1.4,3.2,3.2S60.5,28,58.8,28z"/>
	</g>
</g>
</svg>
