<?xml version="1.0" encoding="utf-8"?>
<!-- Generator: Adobe Illustrator 27.6.1, SVG Export Plug-In . SVG Version: 6.00 Build 0)  -->
<svg version="1.1" id="Layer_1" xmlns="http://www.w3.org/2000/svg" xmlns:xlink="http://www.w3.org/1999/xlink" x="0px" y="0px"
	 viewBox="0 0 72 72" style="enable-background:new 0 0 72 72;" xml:space="preserve">
<style type="text/css">
	.st0{fill:#D7C593;}
	.st1{fill:#43AA96;}
	.st2{fill:#56BFAB;}
	.st3{fill:none;stroke:#FBE39D;stroke-width:1.0927;stroke-miterlimit:10;}
	.st4{fill:#FBE39D;}
	.st5{fill:#EECE83;}
</style>
<g>
	<path class="st0" d="M63,72H9c-5,0-9-4-9-9V9c0-5,4-9,9-9h54c5,0,9,4,9,9v54C72,68,68,72,63,72z"/>
	<g>
		<path class="st1" d="M44,10.2c9.7,9.1,10.1,24.4,0.9,34c-9.1,9.7-24.4,10.1-34,0.9C1.2,36.1,0.8,20.8,10,11.2
			C19.1,1.5,34.4,1.1,44,10.2z"/>
		<path class="st2" d="M49.3,37.8c0.3-0.7,0.6-1.4,0.9-2.1c-2.7-7.1-6.9-13.6-12.6-19c-5.5-5.2-11.9-9-18.9-11.3
			c-0.7,0.3-1.4,0.6-2.1,0.9c7.4,2.2,14.2,6,20,11.5C42.5,23.4,46.8,30.2,49.3,37.8z M51.3,31.1c0.2-1.1,0.2-2.2,0.2-3.3
			c-2.6-5.4-6.1-10.4-10.6-14.7c-4.3-4-9.1-7.2-14.4-9.5c-1.1,0-2.2,0.2-3.2,0.4C29.4,6.2,35,9.7,39.9,14.2
			C44.9,19.1,48.8,24.8,51.3,31.1z M22.5,49.9c2.1,1,4.3,1.6,6.5,1.9c3.1-0.2,6.2-1,9.1-2.4c-4.8,1.6-10.1,1.4-15-0.8
			c-0.6-0.3-1.1-0.6-1.6-0.9c0.3-0.9,0.5-1.9,0.7-2.8c8,4.2,17.9,2.9,24.6-3c0,0.1,0.1,0.2,0.1,0.2c0.4-0.5,0.7-1,1.1-1.5
			c-2.8-7.7-7.3-14.8-13.4-20.6c-5.9-5.6-13-9.7-20.6-12.1c-0.5,0.4-1,0.7-1.5,1.2c1,0.3,2,0.6,3,0.9c-0.8,0.4-1.6,0.8-2.4,1.2
			c-1.5,0.7-2.9,1.2-4.4,1.7c-0.5,0.7-1,1.4-1.5,2.1c2.2-0.7,4.4-1.5,6.5-2.4c1.2-0.6,2.5-1.2,3.6-1.8c1.1,0.4,2.2,0.9,3.2,1.4
			c-2,1.3-4.1,2.4-6.3,3.4c-2.9,1.3-5.9,2.4-9,3.2c-0.2,0.6-0.4,1.1-0.6,1.7c3.5-0.8,6.9-2,10.2-3.5c2.5-1.1,5-2.5,7.3-4
			c1,0.6,2,1.1,3,1.8c-2.8,2-5.8,3.8-9,5.2c-4,1.8-8.2,3.1-12.4,3.8c-0.1,0.5-0.1,1-0.2,1.6c4.5-0.8,8.9-2.1,13.2-4
			c3.5-1.6,6.7-3.5,9.8-5.7c1,0.7,2,1.4,2.9,2.1c-3.4,2.8-7.1,5.1-11.2,6.9c-4.7,2.1-9.7,3.5-14.8,4.1c0,0.5,0.1,1,0.1,1.5
			c5.3-0.6,10.5-2,15.4-4.2c4.3-1.9,8.2-4.4,11.8-7.4c0.8,0.6,1.5,1.3,2.3,2c-3.7,3.5-8,6.3-12.7,8.4C15.1,31.3,9.6,32.7,4,33
			c0.2,1.1,0.6,2.1,1,3.2c0.1-0.6,0.2-1.2,0.3-1.7c1-0.1,2-0.2,2.9-0.3c-0.2,2.1-0.6,4.3-1.2,6.4c0.4,0.6,0.7,1.1,1.1,1.6
			c0.7-2.7,1.3-5.5,1.6-8.3c1.1-0.2,2.1-0.4,3.2-0.7c-0.2,4.1-0.9,8.1-2.1,12c0,0,0.1,0.1,0.1,0.1c0.4,0.3,0.8,0.7,1.1,1
			c1.4-4.4,2.3-8.9,2.4-13.4c0.5-0.1,1-0.3,1.5-0.5c0.4,0.8,0.8,1.5,1.3,2.3c-0.1,4.5-1,9.3-2.5,13.6c0.4,0.3,0.9,0.5,1.3,0.8
			c1.4-3.9,2.3-8.3,2.6-12.5c0.4,0.5,0.9,1,1.4,1.5c0.4,0.4,0.9,0.8,1.3,1.1c-0.2,3.8-1,7.6-2.3,11.3c0.5,0.2,1,0.3,1.4,0.5
			c0.2-0.5,0.4-1.1,0.5-1.6C21.5,49.4,22,49.7,22.5,49.9z M31.6,23.7c0.8-0.7,1.6-1.4,2.4-2.1c0.9,0.9,1.7,1.7,2.5,2.6
			C34.9,24.3,33.2,24.1,31.6,23.7z M30.2,24.9c2.4,0.8,5,1.1,7.6,0.8c0.5,0.6,1.1,1.3,1.6,2c-3.8,1-7.8,0.6-11.4-1.2
			C28.7,25.9,29.4,25.4,30.2,24.9z M24.2,28.7c0.8-0.4,1.5-0.9,2.3-1.3c4.2,2.3,9.1,2.9,13.8,1.5c0.5,0.7,0.9,1.4,1.4,2.1
			C35.9,33.7,29.1,32.8,24.2,28.7z M20.9,30.4c0.6-0.3,1.3-0.6,1.9-0.9c5.4,4.9,13.1,6,19.6,2.8c0.3,0.6,0.6,1.1,0.9,1.7
			c-6.2,4.5-15,4-20.7-1.4C22,32,21.4,31.2,20.9,30.4C20.8,30.4,20.9,30.4,20.9,30.4z M21.1,36.8c-1.5-1.4-2.8-3.1-3.7-5
			c0.7-0.2,1.3-0.5,2-0.8c0.7,1,1.4,1.9,2.3,2.7c6.1,5.8,15.6,6.4,22.4,1.6c0.3,0.6,0.6,1.2,0.9,1.8C38.1,43.2,27.7,43.1,21.1,36.8z
			 M22.4,43.2c0.2-1.1,0.3-2.1,0.4-3.2c7,4.5,16.3,4.1,22.8-1.4c0.2,0.5,0.4,1.1,0.6,1.6c-6.3,5.9-16,7.2-23.7,3.1
			C22.5,43.3,22.4,43.3,22.4,43.2z M50.2,19.9C49,16.3,46.9,13,44,10.2c-2.7-2.6-5.9-4.4-9.3-5.4c2.9,1.7,5.7,3.7,8.2,6.1
			C45.8,13.6,48.2,16.6,50.2,19.9z"/>
	</g>
	<path class="st3" d="M11.6,67.7c1.6-1.1,1.5-3.6-0.3-4.7c-1.8-1.1-4.1-2.8-4.1-5.1c0-2.3,1.1-5.2,5.5-5.6c4.4-0.4,9.3,5.3,13,8.8
		c3.6,3.5,8.5,5.2,16.8,5.2c8.9,0,17.5,0,17.5,0c4,0,7.2-3.2,7.2-7.2l0,0c0-4-3.2-7.2-7.2-7.2h-8.5"/>
	<g>
		<path class="st4" d="M36.3,41.3c-0.2-8.7,6.7-16,15.4-16.3c8.7-0.2,16,6.7,16.3,15.4c0.2,8.7-6.7,16-15.4,16.3
			C43.8,57,36.5,50.1,36.3,41.3z"/>
		<path class="st5" d="M46.6,26.1c-0.5,0.2-0.9,0.4-1.4,0.6c-2.1,4.6-3.1,9.6-3,14.7c0.1,5,1.4,9.7,3.5,14.1
			c0.5,0.2,0.9,0.4,1.4,0.5c-2.4-4.4-3.8-9.4-3.9-14.6C43.1,36,44.3,30.7,46.6,26.1z M42.6,28.3c-0.6,0.4-1.1,0.9-1.6,1.4
			c-1.3,3.7-2,7.7-1.9,11.8c0.1,3.9,0.9,7.6,2.3,11.1c0.5,0.5,1.1,0.9,1.7,1.3c-1.8-3.8-2.8-8.1-3-12.5
			C39.9,36.8,40.8,32.3,42.6,28.3z M64.7,32.9c-0.5-1.4-1.3-2.7-2.2-3.9c-1.5-1.4-3.4-2.4-5.3-3.1c3,1.5,5.4,4.1,6.6,7.3
			c0.1,0.4,0.3,0.8,0.4,1.2c-0.6,0.3-1.1,0.7-1.6,1c-1.8-5.7-7-9.7-12.9-10.1c0,0,0-0.1,0.1-0.1c-0.4,0.1-0.8,0.1-1.2,0.2
			c-2.3,4.9-3.5,10.3-3.3,15.8c0.1,5.3,1.5,10.5,3.9,15.2c0.4,0.1,0.8,0.1,1.2,0.2c-0.3-0.6-0.7-1.2-1-1.8c0.5,0.2,1.1,0.4,1.6,0.6
			c1,0.4,1.9,0.8,2.9,1.2c0.6-0.1,1.1-0.2,1.6-0.3c-1.3-0.7-2.7-1.4-4.2-1.9c-0.8-0.3-1.7-0.6-2.5-0.9c-0.3-0.7-0.6-1.4-0.8-2.2
			c1.5,0.4,3,0.8,4.5,1.4c2,0.7,3.8,1.6,5.6,2.7c0.4-0.2,0.7-0.3,1.1-0.5c-2-1.2-4.1-2.3-6.4-3.1c-1.7-0.6-3.5-1.2-5.2-1.5
			c-0.2-0.7-0.4-1.5-0.6-2.2c2.2,0.4,4.5,1,6.6,1.8c2.7,1,5.2,2.4,7.6,4c0.3-0.2,0.5-0.4,0.8-0.6c-2.5-1.7-5.1-3.2-8-4.3
			c-2.3-0.9-4.8-1.5-7.2-1.9c-0.2-0.8-0.3-1.5-0.4-2.3c2.9,0.3,5.7,0.9,8.4,2c3.2,1.2,6.2,2.9,8.8,5c0.2-0.2,0.4-0.5,0.6-0.8
			c-2.7-2.2-5.8-3.9-9.1-5.2c-2.9-1.1-5.9-1.8-8.9-2.1c-0.1-0.7-0.1-1.3-0.1-2c3.3,0.1,6.6,0.8,9.8,2c3.5,1.3,6.7,3.3,9.4,5.7
			c0.4-0.6,0.7-1.3,1-1.9c-0.3,0.2-0.6,0.4-1,0.7c-0.5-0.4-1-0.8-1.5-1.2c1.1-0.9,2.3-1.7,3.5-2.4c0.1-0.4,0.2-0.9,0.2-1.3
			c-1.6,0.9-3.2,1.9-4.6,3.1c-0.6-0.4-1.2-0.8-1.8-1.2c2-1.8,4.2-3.3,6.6-4.6c0,0,0-0.1,0-0.1c0-0.3,0-0.7-0.1-1
			c-2.7,1.4-5.2,3.1-7.4,5.1c-0.3-0.2-0.6-0.3-0.9-0.5c0.2-0.5,0.3-1.1,0.5-1.6c2.2-2,4.8-3.8,7.5-5.1c-0.1-0.3-0.2-0.7-0.3-1
			c-2.5,1.2-4.9,2.8-7,4.6c0-0.4,0-0.9,0-1.3c0-0.4,0-0.8-0.1-1.1c1.9-1.7,4-3.1,6.3-4.1c-0.1-0.3-0.3-0.6-0.5-0.9
			c-0.3,0.2-0.7,0.3-1,0.5C64.9,33.6,64.8,33.3,64.7,32.9z M48.3,40.8c-0.7-0.1-1.4-0.1-2.1-0.1c0-0.8,0-1.6,0.1-2.4
			C47.1,39,47.7,39.9,48.3,40.8z M49.5,41c-0.8-1.5-1.8-2.8-3.1-3.9c0.1-0.5,0.1-1.1,0.2-1.6c2.2,1.3,3.9,3.4,4.7,5.8
			C50.7,41.2,50.1,41.1,49.5,41z M54.1,42c-0.6-0.2-1.1-0.3-1.7-0.5c-0.9-3-2.9-5.6-5.7-7.1c0.1-0.5,0.2-1.1,0.3-1.6
			C51,34.2,53.7,37.8,54.1,42z M56.4,42.7c-0.4-0.2-0.9-0.3-1.3-0.5c-0.2-4.8-3.3-8.9-7.8-10.4c0.1-0.4,0.2-0.8,0.3-1.2
			c5,0.8,8.8,5.1,9,10.2C56.6,41.5,56.5,42.1,56.4,42.7C56.4,42.7,56.4,42.7,56.4,42.7z M59.3,39.7c0,1.4-0.2,2.7-0.6,4
			c-0.4-0.2-0.9-0.4-1.3-0.5c0.1-0.8,0.2-1.5,0.2-2.3c-0.2-5.5-4.3-10.2-9.7-11.2c0.1-0.4,0.3-0.8,0.4-1.3
			C54.3,28.7,59.1,33.6,59.3,39.7z M61.7,36.1c-0.6,0.4-1.1,0.8-1.7,1.3c-1.1-5.4-5.7-9.5-11.3-9.9c0.1-0.4,0.3-0.7,0.5-1
			c5.7,0.2,10.8,4.1,12.4,9.6C61.6,36,61.6,36,61.7,36.1z M37.8,34c-1.1,2.2-1.7,4.7-1.6,7.4c0.1,2.5,0.7,4.8,1.8,6.8
			c-0.6-2.2-0.9-4.4-1-6.7C37,38.9,37.3,36.4,37.8,34z"/>
	</g>
</g>
</svg>
