<?xml version="1.0" encoding="utf-8"?>
<!-- Generator: Adobe Illustrator 27.6.1, SVG Export Plug-In . SVG Version: 6.00 Build 0)  -->
<svg version="1.1" id="Layer_1" xmlns="http://www.w3.org/2000/svg" xmlns:xlink="http://www.w3.org/1999/xlink" x="0px" y="0px"
	 viewBox="0 0 72 72" style="enable-background:new 0 0 72 72;" xml:space="preserve">
<style type="text/css">
	.st0{fill:#D7C593;}
	.st1{fill:#71624F;}
	.st2{fill:#C04040;}
	.st3{fill:#E8E6DD;}
	.st4{fill:#FFF8DF;}
	.st5{fill:#FFFFFF;}
</style>
<g>
	<path class="st0" d="M63,72H9c-5,0-9-4-9-9V9c0-5,4-9,9-9h54c5,0,9,4,9,9v54C72,68,68,72,63,72z"/>
	<path class="st1" d="M22.7,25.9l-4.5-0.8l-2.7-2.7l-2-0.7l-0.2-0.2l0,0l-0.7-0.7l-0.7-0.7l0,0l-3.4-3.4l1.3-1.3l3.3,3.4l1.3-1.3
		l-3.4-3.4l1.3-1.3l3.3,3.4l1.3-1.3l-3.4-3.4l1.3-1.3l3.3,3.4l1.3-1.3l-3.4-3.4l1.3-1.3l3.3,3.4l1.3-1.3l-3.4-3.4l1.3-1.3L24,8.2
		l0,0l1.5,1.5l0.7,2l2.7,2.7l0.9,5.4L22.7,25.9z M23.8,24.2c-0.3-0.6-0.5-1.3-0.4-2L20,21.6l-3.4-3.4l-1.9,1.9l1.8,0.6l2.6,2.6
		L23.8,24.2z M23.9,10.9l-1.3,1.3l0,0l-0.6,0.6L22,12.9l3.4,3.4l0.5,2.9c0.7,0,1.4,0.3,2,0.6l-0.8-4.4l-2.6-2.6L23.9,10.9z
		 M17.9,16.9l3,3l3,0.5l0.1-0.6l-0.5-2.6l-3-3L20,14.9l0,0l-0.5,0.5l-0.4,0.4L17.9,16.9L17.9,16.9z"/>
	<path class="st1" d="M66.1,63.9c-0.5,1.3-1.7,2-3.1,2h-6.2c-4.8,0-9.3-1.9-12.7-5.3l-29-29c-1.7-1.7-4.5-1.7-6.2,0
		c-0.8,0.8-1.3,1.9-1.3,3.1c0,1.2,0.5,2.3,1.3,3.1L27,56c1-0.4,2.3-0.3,3.2,0.6l2,2l0,0l1.3,1.3l-1.3,1.3l-1.3-1.3l-1.3,1.3l1.3,1.3
		L29.5,64l-1.3-1.3l-2-2c-0.9-0.9-1.1-2.2-0.5-3.3L7.5,39.2c-1.2-1.2-1.8-2.8-1.8-4.4c0-1.7,0.7-3.3,1.8-4.4c2.5-2.5,6.4-2.5,8.9,0
		l29,29c3,3,7.1,4.7,11.4,4.7H63c0.6,0,1.1-0.3,1.4-0.9c0.2-0.6,0.1-1.2-0.3-1.6L61.6,59l1.3-1.3l2.4,2.5
		C66.4,61.2,66.6,62.6,66.1,63.9z"/>
	<g>
		<path class="st2" d="M38.7,24.3L38.7,24.3L38.7,24.3l-4.8-4.1c-1.2-1-3.5-1.8-5.6-0.9l0,0c-0.6-0.5-1.5-0.9-2.4-0.9
			c-2.1,0-3.7,1.7-3.7,3.7c0,0.9,0.3,1.8,0.9,2.4l0,0c-0.8,1.6-0.1,4.4,0.9,5.6l4,4.8l16.8,16.8L55.5,41L38.7,24.3z"/>
	</g>
	<g>
		<path class="st1" d="M59.5,61.1L59.5,61.1c-0.7,0.7-1.7,1.1-2.7,1.1c-1,0-2-0.4-2.7-1.1L43.4,50.4l10.8-10.7l0,0l10.7,10.7
			c1.5,1.5,1.5,3.9,0,5.4L59.5,61.1z"/>
		<path class="st3" d="M58.1,59.8L47.4,49.1l-0.8,0.8l-0.5,0.5l0,0l9.4,9.4C56.2,60.5,57.4,60.5,58.1,59.8L58.1,59.8z"/>
		<path class="st3" d="M63.5,51.8l-9.4-9.4l-0.4,0.4l-0.9,0.9l0,0l5.4,5.4l5.4,5.4C64.2,53.7,64.2,52.5,63.5,51.8z"/>
		<polygon class="st3" points="59.5,58.5 62.2,55.8 62.2,55.8 57.1,50.7 51.4,45 51.4,45 50.1,46.4 48.8,47.7 48.8,47.7 59.5,58.5 
					"/>
	</g>
	<circle class="st1" cx="27.4" cy="21.3" r="0"/>
	<path class="st3" d="M24.2,22.7c0.1,0.3,0.2,0.6,0.5,0.8l0,0l0.4,0.4c0.1-0.5,0.3-1,0.6-1.4c0.1-0.1,0.2-0.3,0.3-0.4c0,0,0,0,0,0
		c0,0,0,0,0,0c0.1-0.1,0.2-0.2,0.4-0.3c0.4-0.3,0.9-0.5,1.4-0.6l-0.4-0.4l0,0c-0.2-0.2-0.5-0.4-0.8-0.5c-0.1,0-0.3-0.1-0.4-0.1
		c0,0-0.1,0-0.1,0c-0.3,0-0.6,0.1-0.8,0.2c-0.2,0.1-0.4,0.2-0.5,0.4c-0.2,0.2-0.3,0.3-0.4,0.5c-0.1,0.3-0.2,0.6-0.2,0.9
		C24.1,22.5,24.1,22.6,24.2,22.7z"/>
	<path class="st4" d="M28.5,23.2c-0.1,0-0.1,0-0.2,0c0,0,0,0,0,0c-0.4,0-0.7,0.1-1,0.4c-0.3,0.3-0.5,0.8-0.4,1.2
		c0,0.3,0.2,0.6,0.4,0.8c0.1,0.1,0.2,0.2,0.4,0.3c0.2,0.1,0.4,0.2,0.6,0.2h0c0.1,0,0.1,0,0.2,0c0.2,0,0.4-0.1,0.6-0.2
		c0.1-0.1,0.1-0.1,0.2-0.2c0,0,0,0,0,0c0.1-0.1,0.1-0.1,0.2-0.2c0.1-0.2,0.2-0.4,0.2-0.6c0-0.3,0-0.5-0.1-0.8
		c-0.1-0.1-0.2-0.3-0.3-0.4C29.1,23.4,28.8,23.2,28.5,23.2z"/>
	<path class="st3" d="M25.4,29c-0.6-0.8-0.9-1.8-0.8-2.7c0,0,0,0,0-0.1l0.1,0.1l0.7,0.7c0.7,0.7,1.7,1.1,2.7,1.1c0,0,0,0,0,0
		c0.8,0,1.6-0.3,2.3-0.8c0.1,0,0.1-0.1,0.2-0.1c0.1-0.1,0.2-0.1,0.2-0.2c0,0,0,0,0,0c0,0,0,0,0,0c0,0,0,0,0.1-0.1
		c0.1-0.1,0.1-0.1,0.2-0.2c0,0,0.1-0.1,0.1-0.1c1.1-1.5,1-3.6-0.3-5L30,20.9l-0.1-0.1c0,0,0,0,0.1,0c0.1,0,0.2,0,0.3,0
		c0.8,0,1.7,0.3,2.4,0.9l4.7,3.9h0h0l-4,4l-4,4L25.4,29z"/>
	<rect x="45.1" y="40.5" transform="matrix(0.7072 -0.707 0.707 0.7072 -16.4587 44.9885)" class="st3" width="1.9" height="3.8"/>
	<path class="st5" d="M63.4,17.3c1.2,0,2.3-0.5,2.9-1.7c0.6-1.1,0.7-2.9-0.2-4.5c-0.9-1.6-2.5-2.4-3.7-2.5c-1.3,0-2.4,0.7-2.9,1.7
		l0,0l0,0l0,0c0.6-1,0.7-2.3,0-3.4c-0.7-1.1-2.2-2-4-2c-1.8,0-3.3,0.9-4,2c-0.7,1.1-0.6,2.4,0,3.4l0,0l0,0l0,0
		c-0.6-1-1.6-1.7-2.9-1.7c-1.3,0-2.8,0.9-3.7,2.5c-0.9,1.6-0.9,3.3-0.2,4.5c0.6,1.2,1.8,1.7,2.9,1.7c-1.2,0-2.3,0.5-2.9,1.7
		c-0.6,1.1-0.7,2.9,0.2,4.5c0.9,1.6,2.5,2.4,3.7,2.5c1.3,0,2.4-0.7,2.9-1.7l0,0l0,0l0,0c-0.6,1-0.7,2.3,0,3.4c0.7,1.1,2.2,2,4,2
		c1.8,0,3.3-0.9,4-2c0.7-1.1,0.6-2.4,0-3.4l0,0l0,0l0,0c0.6,1,1.6,1.7,2.9,1.7c1.3,0,2.8-0.9,3.7-2.5c0.9-1.6,0.9-3.3,0.2-4.5
		C65.8,17.8,64.6,17.3,63.4,17.3z"/>
	<path class="st5" d="M16,61c0.7,0,1.4-0.3,1.7-1c0.4-0.7,0.4-1.7-0.1-2.6c-0.5-0.9-1.4-1.4-2.2-1.4c-0.8,0-1.4,0.4-1.7,1l0,0l0,0
		l0,0c0.4-0.6,0.4-1.3,0-2c-0.4-0.7-1.3-1.2-2.4-1.2c-1.1,0-2,0.5-2.4,1.2c-0.4,0.7-0.4,1.4,0,2l0,0l0,0l0,0c-0.3-0.6-0.9-1-1.7-1
		c-0.8,0-1.7,0.5-2.2,1.4c-0.5,0.9-0.5,2-0.1,2.6c0.4,0.7,1,1,1.7,1c-0.7,0-1.4,0.3-1.7,1c-0.4,0.7-0.4,1.7,0.1,2.6
		c0.5,0.9,1.4,1.4,2.2,1.4c0.8,0,1.4-0.4,1.7-1l0,0l0,0l0,0c-0.4,0.6-0.4,1.3,0,2c0.4,0.7,1.3,1.2,2.4,1.2c1.1,0,2-0.5,2.4-1.2
		c0.4-0.7,0.4-1.4,0-2l0,0l0,0l0,0c0.3,0.6,0.9,1,1.7,1c0.8,0,1.7-0.5,2.2-1.4c0.5-0.9,0.5-2,0.1-2.6C17.3,61.3,16.7,61,16,61z"/>
</g>
</svg>
