<?xml version="1.0" encoding="utf-8"?>
<!-- Generator: Adobe Illustrator 27.6.1, SVG Export Plug-In . SVG Version: 6.00 Build 0)  -->
<svg version="1.1" id="Layer_1" xmlns="http://www.w3.org/2000/svg" xmlns:xlink="http://www.w3.org/1999/xlink" x="0px" y="0px"
	 viewBox="0 0 72 72" style="enable-background:new 0 0 72 72;" xml:space="preserve">
<style type="text/css">
	.st0{fill:#D7C593;}
	.st1{fill:#FFF8DF;}
	.st2{fill:#43AA96;}
	.st3{fill:#C04040;}
</style>
<g>
	<path class="st0" d="M63,72H9c-5,0-9-4-9-9V9c0-5,4-9,9-9h54c5,0,9,4,9,9v54C72,68,68,72,63,72z"/>
	<path class="st1" d="M28.8,59.1h29.8c1.3,0,2.3-1,2.3-2.3V14.4c0-1.3-1-2.3-2.3-2.3H28.8c-1.3,0-2.3,1-2.3,2.3v42.5
		C26.5,58.1,27.6,59.1,28.8,59.1z"/>
	<path class="st2" d="M41,64.4l18.3-4.9c1-0.3,1.7-1.1,1.7-2V14.2c0-1.4-1.5-2.4-3-2l-18.3,4.9c-1,0.3-1.7,1.1-1.7,2v43.4
		C38,63.8,39.5,64.8,41,64.4z"/>
	<g>
		<polygon class="st3" points="21.7,24 16.2,32.4 33.9,32.4 33.9,39.6 16.2,39.6 21.7,48 15,48 7.2,36 15,24 		"/>
	</g>
</g>
</svg>
