<?xml version="1.0" encoding="utf-8"?>
<!-- Generator: Adobe Illustrator 27.6.1, SVG Export Plug-In . SVG Version: 6.00 Build 0)  -->
<svg version="1.1" id="Layer_1" xmlns="http://www.w3.org/2000/svg" xmlns:xlink="http://www.w3.org/1999/xlink" x="0px" y="0px"
	 viewBox="0 0 72 72" style="enable-background:new 0 0 72 72;" xml:space="preserve">
<style type="text/css">
	.st0{fill:#D7C593;}
	.st1{fill:#DC574B;}
	.st2{fill:#FFF8DF;}
	.st3{fill:#7C6B66;}
	.st4{fill:#43AA96;}
	.st5{fill:#4D4E4E;}
	.st6{fill:#C04040;}
	.st7{fill:none;stroke:#71624F;stroke-width:2;stroke-miterlimit:10;}
</style>
<g>
	<path class="st0" d="M63,72H9c-5,0-9-4-9-9V9c0-5,4-9,9-9h54c5,0,9,4,9,9v54C72,68,68,72,63,72z"/>
	
		<g id="g2993_00000017516444729679841820000012340316353607257259_" transform="matrix(0.513025,0,0,0.513025,439.89075,383.86462)">
		
			<g id="g5193_00000031901497638683238630000005088105279494952070_" transform="matrix(1.1111123,0,0,1.1111123,-4098.2471,-2288.3408)">
			<path id="path5086_00000079481303065751283360000002741594376279018895_" class="st1" d="M2936.5,1449.9c-0.8,0-1.6,0.8-1.6,1.6
				v33.1c0,0.8,0.8,1.6,1.6,1.6h14.9c0.8,0,1.6-0.8,1.6-1.6v-33.1c0-0.8-0.8-1.6-1.6-1.6H2936.5z"/>
			<path id="path5088_00000132049450224163986520000008118681953143194757_" class="st2" d="M2960.6,1436c-0.8,0-1.6,0.8-1.6,1.6v47
				c0,0.8,0.8,1.6,1.6,1.6h14.9c0.8,0,1.6-0.8,1.6-1.6v-47c0-0.8-0.8-1.6-1.6-1.6H2960.6z"/>
			<path id="path5090_00000160156984762579258060000011274512405474883714_" class="st3" d="M2984.7,1441.1c-0.8,0-1.6,0.8-1.6,1.6
				v41.9c0,0.8,0.8,1.6,1.6,1.6h14.9c0.8,0,1.6-0.8,1.6-1.6v-41.9c0-0.8-0.8-1.6-1.6-1.6H2984.7z"/>
			<path id="path5092_00000008124612175891798100000009403686246209264813_" class="st4" d="M3008.8,1428.5c-0.8,0-1.6,0.8-1.6,1.6
				v54.6c0,0.8,0.8,1.6,1.6,1.6h14.9c0.8,0,1.6-0.8,1.6-1.6v-54.6c0-0.8-0.8-1.6-1.6-1.6H3008.8z"/>
			<path id="path5175_00000142139169612352032530000006689649773126136705_" class="st5" d="M2968,1415.2c-0.3,0-0.6,0.1-0.9,0.2
				l-23.4,14c-0.8,0.5-1,1.4-0.6,2.2s1.4,1,2.2,0.6c0,0,0,0,0,0l23.4-14c0.8-0.4,1-1.4,0.6-2.2
				C2969.1,1415.5,2968.6,1415.2,2968,1415.2z"/>
			<path id="path5177_00000173872948662774049340000012475825698937719449_" class="st5" d="M2968.4,1415.3
				c-0.9,0.1-1.6,0.8-1.5,1.7c0,0.7,0.5,1.3,1.2,1.5l23.4,5.6c0.9,0.2,1.7-0.3,1.9-1.2s-0.3-1.7-1.2-1.9c0,0,0,0,0,0l-23.4-5.6
				C2968.7,1415.3,2968.5,1415.3,2968.4,1415.3z"/>
			<path id="path5179_00000147182450181089024620000014862177991276635056_" class="st5" d="M3016,1408.3c-0.3,0-0.5,0.1-0.7,0.2
				l-23.5,12.6c-0.8,0.4-1.1,1.4-0.7,2.2c0.4,0.8,1.4,1.1,2.2,0.7l23.5-12.6c0.8-0.4,1.1-1.4,0.7-2.2
				C3017.2,1408.6,3016.7,1408.3,3016,1408.3z"/>
			<path id="path5130_00000028296911298556056010000009372273420262597042_" class="st6" d="M2940.3,1425.1c3.4-2,7.8-0.8,9.7,2.6
				c2,3.4,0.8,7.8-2.6,9.7c0,0,0,0,0,0c-3.4,2-7.8,0.8-9.7-2.6C2935.8,1431.4,2936.9,1427.1,2940.3,1425.1
				C2940.3,1425.1,2940.3,1425.1,2940.3,1425.1z"/>
			<path id="path5130-1_00000127724751239586746220000005539829686923607183_" class="st2" d="M2964.4,1410.8c3.4-2,7.8-0.8,9.7,2.6
				c2,3.4,0.8,7.8-2.6,9.7c0,0,0,0,0,0c-3.4,2-7.8,0.8-9.7-2.6C2959.9,1417.2,2961,1412.8,2964.4,1410.8
				C2964.4,1410.8,2964.4,1410.8,2964.4,1410.8z"/>
			<path id="path5130-15_00000023254553423818152070000005175525941140205192_" class="st3" d="M2988.5,1416.4
				c3.4-2,7.8-0.8,9.7,2.6s0.8,7.8-2.6,9.7c0,0,0,0,0,0c-3.4,2-7.8,0.8-9.7-2.6S2985.1,1418.4,2988.5,1416.4
				C2988.5,1416.4,2988.5,1416.4,2988.5,1416.4z"/>
			<path id="path5130-2_00000086669015940885773220000002790406680244973734_" class="st4" d="M3012.6,1403.8c3.4-2,7.8-0.8,9.7,2.6
				c2,3.4,0.8,7.8-2.6,9.7c0,0,0,0,0,0c-3.4,2-7.8,0.8-9.7-2.6S3009.2,1405.8,3012.6,1403.8
				C3012.6,1403.8,3012.6,1403.8,3012.6,1403.8z"/>
		</g>
	</g>
	<line class="st7" x1="10.3" y1="61.3" x2="61.9" y2="61.3"/>
</g>
</svg>
