<?xml version="1.0" encoding="UTF-8"?>
<svg xmlns="http://www.w3.org/2000/svg" width="1in" height="1in" version="1.1" viewBox="0 0 72 72">
  <defs>
    <style>
      .cls-1 {
        fill: #d7c593;
      }

      .cls-2 {
        fill: #dc574b;
      }

      .cls-3 {
        fill: #43aa96;
      }

      .cls-4 {
        fill: #71624f;
      }
    </style>
  </defs>
  <!-- Generator: Adobe Illustrator 28.7.1, SVG Export Plug-In . SVG Version: 1.2.0 Build 142)  -->
  <g>
    <g id="Layer_1">
      <rect class="cls-1" x="0" width="72" height="72" rx="9" ry="9"/>
      <g>
        <path class="cls-4" d="M50.6,35.6c-4.3,2.7-9.5,3.1-13.8,5.8-5.1,3.1-8.9,7.5-12.6,12.2,0,0,0,0,0,0-.9,1.5-2,2.8-3.1,4.1-.8.8-1.6,1.6-2.5,2.3-.3.2-.6.5-.9.7-2.8,2.2-5.9,4.1-8.9,6.1-1.2.8-1.7-.7-.7-1.4,3.2-2.1,6.6-4.1,9.5-6.6.3-.3.6-.5.9-.8,1.5-1.4,2.9-2.9,4-4.7.1-.2.2-.4.4-.6,0,0,.1-.2.2-.2t0,0c2.5-4,4.7-8.2,7.2-12.1.6-1,1.3-2,2-3,0,0,0,0,0-.1h.8s.8,0,.8,0c-1.7,2.6-3.3,5.3-4.9,7.9-.1.2-.3.4-.4.6,1.8-1.9,3.8-3.6,5.9-5,2.6-1.7,5.6-2.6,8.6-3.5h0c.6-.2,1.2-.4,1.8-.5h0c.2,0,.3,0,.5-.1,1.6-.5,3.2-1.1,4.7-1.8,1.3-.6,1.5,0,.4.7Z"/>
        <path class="cls-3" d="M45,35.8c0,0-.2,0-.3.1h0s.2,0,.2,0c0,0,0,0,.1,0Z"/>
        <path class="cls-3" d="M45.4,36.7c-.2,0-.3.1-.5.2h0c.2,0,.3-.1.5-.2Z"/>
        <path class="cls-3" d="M63.4,49.7c-4.2,1-8.1,1.4-12.4-.7-4-1.8-6.1-4.6-8.2-7.9,1.5.7,3.1,1.5,4.7,2.2,0,0,.1,0,.2.1,1.8.9,4.6,2,6.8,2.8.5.2.9.3,1.4.5.2,0,.3-.1.1-.2-.4-.1-.9-.3-1.4-.5-1.8-.8-4.1-1.9-5.7-2.8-.2-.1-.4-.2-.6-.3-2-1-4-1.9-6-2.9,1.7-.5,3.9,0,5.4.2,3.6.6,6.6,1.6,9.5,3.8,2.2,1.8,4.3,3.6,6.2,5.6Z"/>
        <path class="cls-3" d="M62.3,17.6c-.5,4.9-4,10-7.1,13-1.2,1.1-2.5,2.2-3.8,3.1h0c-.1,0-.3,0-.4,0-.4,0-.8.1-1.3.4-1,.5-2.1.9-3.5,1.4.9-1.2,1.6-2.6,2.5-3.7,2.2-2.9,4.6-5.8,7.6-7.8,0,0,0,0,0,0,.2-.2.2-.4,0-.3h-.2c-2.6,1.9-5.3,4.2-7.2,6.6-1.4,1.7-2.5,4-4,5.7t0,0c0,0-.2,0-.3.1h0s-.2,0-.2,0c-.3,0-.5.2-.7.2.3-4.7,4-10,7.5-12.3.2-.1.4-.2.5-.3,1.3-.2,2.5-.6,3.7-1.1.3-.1.6-.3.8-.4.6-.3,1.2-.7,1.8-1.1h0l.3-.3c1-.7,1.8-1.6,2.6-2.5.5-.2.9-.4,1.4-.6Z"/>
        <path class="cls-3" d="M42.5,49.8c-2.3,2-5.2,3.5-7.6,4.8-2.7,1.4-7.7,1.7-10.8-.3,1.9-.8,4.2-.4,6.2-.7,2.2-.3,4.5-1.2,6.5-2.1,0,0,0,0,.1,0,.2,0,0-.2-.2-.1,0,0,0,0,0,0-2.3,1.1-4.9,1.6-7.4,1.8-1.5.2-3.1,0-4.6.4,2-1.9,4.6-3.4,7.3-4.2,2.9-.8,7.3-1.1,10.6.5Z"/>
        <path class="cls-3" d="M65.5,8.5c-2.1,4.1-4.2,8.7-7.9,11.4,0,0,0,0,0,0-.6.5-1.2.8-1.9,1.2-.3.1-.5.3-.8.4-2.7,1.2-5.4,1.4-8.2,1.2.1,0,.2-.2.4-.3,3.1-2.7,6.3-5.3,9.6-7.7.1,0,0-.2,0-.3-3.3,2.3-7.5,5.1-10.3,7.5-.1,0-.2.2-.3.3,2.5-7.1,11.9-14,19.5-13.6Z"/>
        <path class="cls-3" d="M44.2,20.2c-.2,1.2-.3,2.6-.5,4.1,0,.5-.2,1-.3,1.5-.6,2.8-1.5,5.6-3.4,7.5-1.7,1.7-4,2.6-6.2,2.9,1.3-2.8,2.2-6,2.7-9,.3-1.9.4-3.9,1.1-5.8.4-1.1,1.4-3.2,2.1-5,.4-.8.7-1.6.8-2.1,0-.3,0-.5-.2-.1-.2.5-.5,1.2-.8,1.9-.7,1.4-1.7,3-2.1,4,0,.1,0,.2-.1.3-.7,1.6-.9,3.2-1.1,5-.5,3.7-1.6,7.5-3.2,10.8-.5-1.8-.5-3.7-.6-5.6-.4-5.7.5-9.2,3.5-14,2.1-3.6,5.2-6.1,8.6-8.4.4,4,0,8.2-.4,12.1Z"/>
        <g>
          <path class="cls-3" d="M23.3,48.4c-.8,3.3-2.6,5.7-4.8,7.8v-.5c0-1.6,0-3.3,0-4.9,0-1.5.1-3,.3-4.4,0-1,.2-2,.3-3,0-.1,0-.2-.2-.2,0,0,0,0-.1,0-.5,4-1.2,9-1.2,12.7,0,.2,0,.3,0,.4-3.7-6.6-2.5-18.2,2.8-23.6,1.9,5,4.3,10.5,2.9,15.7Z"/>
          <path class="cls-3" d="M18.6,50.7c0-1.5.1-3,.3-4.4-.1,1.5-.2,3-.3,4.4Z"/>
          <path class="cls-3" d="M18.9,43.2s0,0-.1,0h0s0,0,.1,0Z"/>
        </g>
        <path class="cls-4" d="M49.4,36.2c1.1,1.4,2.9,2.4,4.6,2.7.3,0,.9-.8.6-.9-1.7-.3-3.4-1.3-4.5-2.6-.2-.2-.9.5-.7.8h0Z"/>
        <path class="cls-4" d="M50.6,35.8c.9,0,1.7-.2,2.5-.4.5,0,.8-1,.1-.9-.8.2-1.5.4-2.3.4-.5,0-.9.9-.3.9h0Z"/>
        <path class="cls-4" d="M36.9,41.2c.6.8,2,1.2,2.9,1.2.2,0,.4-.2.5-.4,0,0,.3-.5,0-.4-.9,0-2.3-.3-2.8-1.1-.1-.2-.9.5-.7.8h0Z"/>
        <path class="cls-2" d="M53.7,39.5c-.3.6-1.3.4-1.7,0-.4-.5,0-1.3.7-1.6.7.3,1.4,1,1,1.7Z"/>
        <path class="cls-2" d="M55.3,35c0,.8-1.1,1.2-1.8,1-.6-.1-.8-.7-.7-1.3.8-.6,2.4-.8,2.4.3Z"/>
        <path class="cls-2" d="M38.9,43.9c.6.4,1.1-.3,1.1-.9,0-.5-.4-.9-.8-1.1-.6.3-1.1,1.5-.3,1.9Z"/>
        <path class="cls-2" d="M54.5,39.1c-.4-.2-.6-.5-.7-.9.6-.6,1.9-.7,2.2.2.4.9-1,1-1.5.7Z"/>
        <path class="cls-2" d="M40.6,42.4c-.4,0-.8,0-1-.4.2-.8,1.1-1.6,1.9-1.1.8.6-.2,1.4-.9,1.5Z"/>
      </g>
    </g>
  </g>
</svg>