<?xml version="1.0" encoding="UTF-8"?>
<svg xmlns="http://www.w3.org/2000/svg" width="1in" height="1in" version="1.1" viewBox="0 0 72 72">
  <defs>
    <style>
      .cls-1 {
        fill: #d7c593;
      }

      .cls-2 {
        fill: #c04040;
      }

      .cls-3 {
        fill: #71624f;
      }
    </style>
  </defs>
  <!-- Generator: Adobe Illustrator 28.7.1, SVG Export Plug-In . SVG Version: 1.2.0 Build 142)  -->
  <g>
    <g id="Layer_1">
      <rect class="cls-1" x="0" width="72" height="72" rx="9" ry="9"/>
      <g>
        <path class="cls-2" d="M51.1,48.8c0,.9-.7,1.6-1.6,1.6s-1.6-.7-1.6-1.6.7-1.6,1.6-1.6,1.6.7,1.6,1.6Z"/>
        <path class="cls-2" d="M21.2,43.4c-3,0-5.4,2.4-5.4,5.4s2.4,5.4,5.4,5.4,5.4-2.4,5.4-5.4-2.4-5.4-5.4-5.4ZM21.2,52.1c-1.9,0-3.4-1.5-3.4-3.4s1.5-3.4,3.4-3.4,3.4,1.5,3.4,3.4-1.5,3.4-3.4,3.4Z"/>
        <path class="cls-2" d="M49.5,43.4c-3,0-5.4,2.4-5.4,5.4s2.4,5.4,5.4,5.4,5.4-2.4,5.4-5.4-2.4-5.4-5.4-5.4ZM49.5,52.1c-1.9,0-3.4-1.5-3.4-3.4s1.5-3.4,3.4-3.4,3.4,1.5,3.4,3.4-1.5,3.4-3.4,3.4Z"/>
        <path class="cls-2" d="M67.1,32.9l-5.3-11c-.8-1.6-2.4-2.6-4.2-2.6h-12.9c-.7,0-1.2.5-1.2,1.2v18.3c0,.6.5,1.1,1.1,1.1h7.4c1.1,0,2.1.6,2.6,1.6l1.1,2.3c.4.8,1.3,1.4,2.3,1.4h8.9c.6,0,1.1-.5,1.1-1.1v-7.7c0-1.2-.3-2.3-.8-3.4ZM51.4,36c0,.2-.2.4-.4.4h-3.1c-.2,0-.4-.2-.4-.4v-.8c0-.2.2-.4.4-.4h2.1c.2,0,.4,0,.6.2l.6.4c.2.1.3.3.3.6h0ZM60.3,32.4l-10.7-3.6c-.9-.3-1.5-1.1-1.5-2v-2.5c0-1.2,1-2.1,2.1-2.1h6.1c1.3,0,2.5.7,3,1.9l2.9,6c.6,1.3-.6,2.8-2,2.3Z"/>
        <path class="cls-2" d="M16.4,44c1.3-1.3,3-2,4.8-2s3.5.7,4.8,2,.6.7.9,1.1h17c.3-.4.5-.7.9-1.1,1.3-1.3,3-2,4.8-2s3.5.7,4.7,2c0,0-.9-2-.9-2-.3-.5-.8-.8-1.4-.8H7.1v2.4c0,.8.7,1.5,1.5,1.5h7c.3-.4.5-.7.9-1.1Z"/>
        <circle class="cls-2" cx="21.2" cy="48.8" r="1.6"/>
      </g>
      <path class="cls-3" d="M41.7,39.7v-18.7h-1.2v1.7H5.7v-1.7h-1.2v17.2h-.3v1.5h37.6ZM40.5,38.2H5.7v-1.9h34.8v1.9ZM40.5,33.4H5.7v-2.4h34.8v2.4ZM40.5,28.1H5.7v-2.4h34.8v2.4Z"/>
    </g>
  </g>
</svg>