<?xml version="1.0" encoding="UTF-8"?>
<svg xmlns="http://www.w3.org/2000/svg" width="1in" height="1in" version="1.1" viewBox="0 0 72 72">
  <defs>
    <style>
      .cls-1 {
        fill: #c04040;
      }

      .cls-1, .cls-2, .cls-3, .cls-4 {
        fill-rule: evenodd;
      }

      .cls-5 {
        fill: #d7c593;
      }

      .cls-2 {
        fill: #fff;
      }

      .cls-3 {
        fill: #43aa96;
      }

      .cls-4 {
        fill: #71624f;
      }
    </style>
  </defs>
  <!-- Generator: Adobe Illustrator 28.7.1, SVG Export Plug-In . SVG Version: 1.2.0 Build 142)  -->
  <g>
    <g id="Layer_1">
      <rect class="cls-5" x="0" width="72" height="72" rx="9" ry="9"/>
      <g>
        <path class="cls-4" d="M31.2,9.9c-3,1.3-5.9,6.8-4.9,10,1.5,4.9,10.5,4.4,9.4-3.2-.4-2.8-2-5.5-4.3-6.8,0,0-.1,0-.2-.1h0ZM50.7,28c0-.6,0-1.2,0-1.8-.6-8.8-7.9-18.6-17.6-16.8,2.4,1.6,3.9,4.6,4.1,7.5.9,9-10.5,10.1-12.1,3.4-.8-3.6.3-7.2,4.5-11.1-5.9-.2-9,2.9-12.8,5.9,2.9-4,8.9-8.3,14.4-6.6,11.3-3.6,20.1,7.9,20.8,17.7,0,.6,0,1.2,0,1.9h-1.4Z"/>
        <g>
          <path class="cls-1" d="M44,29.1c2.4-.4,4.6,1.5,5,4.2.4,2.7-1.1,5.1-3.5,5.5-2.4.4-4.6-1.5-5-4.2-.4-2.7,1.1-5.1,3.5-5.5h0Z"/>
          <path class="cls-1" d="M50.7,26.7c2.5-.8,5.2.9,6,3.6s-.4,5.7-2.8,6.4-5.2-.9-6-3.6.4-5.7,2.8-6.4h0Z"/>
          <path class="cls-1" d="M45.6,36.6c2.5-.8,5.2.9,6,3.6s-.4,5.7-2.8,6.4-5.2-.9-6-3.6.4-5.7,2.8-6.4h0Z"/>
          <path class="cls-1" d="M51.7,43.8c2.5-.8,5.2.9,6,3.6s-.4,5.7-2.8,6.4-5.2-.9-6-3.6.4-5.7,2.8-6.4h0Z"/>
          <path class="cls-1" d="M53.3,34.8c2.3-.7,4.8.8,5.6,3.4s-.4,5.3-2.7,6-4.8-.8-5.6-3.4.4-5.3,2.7-6h0Z"/>
          <path class="cls-1" d="M58.3,25.3c2.3-.7,4.8.8,5.7,3.4s-.4,5.3-2.7,6-4.8-.8-5.7-3.4.4-5.3,2.7-6h0Z"/>
          <path class="cls-1" d="M60.8,32.3c2.5-.8,5.2.9,6,3.6s-.4,5.7-2.8,6.4-5.2-.9-6-3.6.4-5.7,2.8-6.4h0Z"/>
          <path class="cls-1" d="M59.6,41.6c2.5-.8,5.2.9,6,3.6s-.4,5.7-2.8,6.4-5.2-.9-6-3.6.4-5.7,2.8-6.4h0Z"/>
          <path class="cls-1" d="M58.3,50.2c2.6-.8,5.4.9,6.3,3.8s-.4,5.9-3,6.8-5.4-.9-6.3-3.8.4-5.9,3-6.8h0Z"/>
        </g>
        <path class="cls-2" d="M45.5,30.2c.6-.3,1.5.4,2,1.5.5,1.1.3,2.2-.3,2.4-.6.3-1.1-.6-1.6-1.7-.5-1.1-.7-2-.1-2.3h0Z"/>
        <path class="cls-2" d="M52.4,27.6c.6-.4,1.7.2,2.3,1.3.7,1.1.7,2.3.1,2.7-.6.4-1.3-.5-1.9-1.5-.7-1.1-1.1-2-.5-2.4h0Z"/>
        <path class="cls-2" d="M47.4,37.5c.6-.4,1.7.2,2.3,1.3.7,1.1.7,2.3.1,2.7-.6.4-1.3-.5-1.9-1.5-.7-1.1-1.1-2-.5-2.4h0Z"/>
        <path class="cls-2" d="M53.4,44.7c.6-.4,1.7.2,2.3,1.3.7,1.1.7,2.3.1,2.7-.6.4-1.3-.5-1.9-1.5-.7-1.1-1.1-2-.5-2.4h0Z"/>
        <path class="cls-2" d="M54.9,35.6c.6-.4,1.6.2,2.2,1.2.6,1,.7,2.1.1,2.5-.6.4-1.2-.4-1.8-1.4-.6-1-1-1.9-.5-2.2h0Z"/>
        <path class="cls-3" d="M30.4,31.6c-.4-3.7-2-5.8-4-6.8-2.5-1.3-5.5-1.5-7.3-2.5-.4,3.5-.2,8.4,3.7,12.1-11.4-10-16.4-5.8-17.3,3.4-.2,2.8-.7,5.5-1.2,8.1,4.2-.2,7.2-1.5,11.2-4.3-4.6,3-8.3,6.5-7.6,10.5.6,3.5,1.3,7.2,1.5,10.8,5.2-.5,9-1.4,12-2.5,4.6-1.7,4-8,2.6-13.8.6,3,1.7,6.2,2.4,8.8.4,1.6.7,2.8,1,4.2,4.8-3,8.3-4.4,10.8-6,6.2-4.2,1.5-9.7-9.4-13.6,2.9.9,5.7,1.7,8.5,1.8,1.5,0,2.6-.5,4.5-.6-1.7-2.6-2.4-4.9-3.8-6.4-1.5-1.5-3.2-2.3-5.1-1.9-2.7.5-12.5,12.7-14.6,15.4-2.3,3.1-4.5,6.7-6.7,11.4.8-2.9,1.7-5.5,3.1-7.7,9-13.7,19.7-25.4,35-27.7-1.1-.2-2.2-.4-3.3-.6-5.2,1.1-11.6,4.3-15.9,7.9h0Z"/>
        <path class="cls-2" d="M60,26.2c.6-.4,1.6.2,2.2,1.2.6,1,.7,2.1.1,2.5-.6.4-1.2-.4-1.8-1.5-.6-1-1-1.9-.5-2.2h0Z"/>
        <path class="cls-2" d="M62.6,33.2c.6-.4,1.7.2,2.3,1.3.7,1.1.7,2.3.1,2.7-.6.4-1.3-.5-1.9-1.5-.7-1.1-1.1-2-.5-2.4h0Z"/>
        <path class="cls-2" d="M61.3,42.5c.6-.4,1.7.2,2.3,1.3.7,1.1.7,2.3.1,2.7-.6.4-1.3-.5-1.9-1.5-.7-1.1-1.1-2-.5-2.4h0Z"/>
        <path class="cls-2" d="M60.2,51.1c.6-.4,1.7.2,2.4,1.3.7,1.1.8,2.4.1,2.8-.6.4-1.3-.5-2-1.6-.7-1.1-1.2-2.1-.5-2.5h0Z"/>
      </g>
    </g>
  </g>
</svg>