<?xml version="1.0" encoding="utf-8"?>
<!-- Generator: Adobe Illustrator 27.6.1, SVG Export Plug-In . SVG Version: 6.00 Build 0)  -->
<svg version="1.1" id="Layer_1" xmlns="http://www.w3.org/2000/svg" xmlns:xlink="http://www.w3.org/1999/xlink" x="0px" y="0px"
	 viewBox="0 0 72 72" style="enable-background:new 0 0 72 72;" xml:space="preserve">
<style type="text/css">
	.st0{fill:#D7C593;}
	.st1{fill:#56BFAB;}
	.st2{fill:#71624F;}
	.st3{fill:#FFF8DF;}
	.st4{fill:#C04040;}
</style>
<g>
	<path class="st0" d="M63,72H9c-5,0-9-4-9-9V9c0-5,4-9,9-9h54c5,0,9,4,9,9v54C72,68,68,72,63,72z"/>
	<path class="st1" d="M15.6,50.8c1.2-0.7,3.9-1.9,7.8-3c-0.4-1.6-0.7-3.3-0.9-5H11.6C12.5,45.7,13.9,48.5,15.6,50.8z"/>
	<path class="st1" d="M25.7,47.4c0.3-0.1,0.7-0.1,1-0.2c2.7-0.5,5.5-0.7,8.3-0.8v-3.6H24.8C25,44.4,25.3,45.9,25.7,47.4z"/>
	<path class="st1" d="M25.8,54.6c-0.7-1.5-1.4-3.2-1.9-4.9c-3.4,0.9-5.9,2-7.1,2.6c3.4,3.9,7.9,6.7,13,8C28.3,58.9,27,57,25.8,54.6z
		"/>
	<path class="st1" d="M46,54.6c-1.2,2.4-2.6,4.4-4.1,5.8c5.2-1.2,9.8-4.1,13.3-8c-2.6-1-5-1.9-7.4-2.5C47.3,51.6,46.7,53.2,46,54.6z
		"/>
	<path class="st1" d="M26.2,49.2c2,6.8,5.4,11.1,8.8,11.8V48.3c-3,0-5.7,0.3-7.9,0.7C26.8,49,26.5,49.1,26.2,49.2z"/>
	<path class="st1" d="M36.8,48.3V61c3.4-0.7,6.7-4.9,8.7-11.6C42.4,48.8,39.5,48.4,36.8,48.3z"/>
	<path class="st1" d="M36.8,46.4c1,0,2.1,0.1,3.2,0.2c2,0.2,4.1,0.5,6.1,1c0.4-1.5,0.7-3.1,0.9-4.8H36.8V46.4z"/>
	<path class="st1" d="M48.3,48.2c2.2,0.6,4.5,1.3,6.7,2.2l-2.4-6.5l6.6,2.5c0.5-1.1,1-2.3,1.3-3.5H49.3
		C49.1,44.7,48.7,46.5,48.3,48.2z"/>
	<path class="st1" d="M36.8,22.8v5.6H47c-0.3-2.3-0.8-4.4-1.3-6.3C42.5,22.5,39.5,22.7,36.8,22.8z"/>
	<path class="st1" d="M34.6,22.8c-3.2,0-5.9-0.2-8.2-0.4c-0.1,0-0.2,0-0.3,0c-0.5,1.8-0.9,3.9-1.2,6H35v-5.6
		C34.8,22.8,34.7,22.8,34.6,22.8z"/>
	<path class="st1" d="M15.7,20.3c-1.8,2.4-3.2,5.2-4.1,8.1h10.9c0.3-2.2,0.7-4.3,1.3-6.3C19.7,21.5,16.9,20.7,15.7,20.3z"/>
	<path class="st1" d="M36.8,10.2v10.7c2.5-0.1,5.3-0.3,8.3-0.6C43.1,14.5,39.9,10.8,36.8,10.2z"/>
	<path class="st1" d="M25.8,16.6c1.2-2.4,2.5-4.3,4-5.7c-5,1.3-9.5,4-12.8,7.8c1.4,0.4,3.9,1.1,7.3,1.6C24.8,19,25.3,17.7,25.8,16.6
		z"/>
	<path class="st1" d="M26.6,20.5c2.3,0.2,5.1,0.4,8.3,0.4V10.2C31.8,10.8,28.7,14.6,26.6,20.5C26.6,20.5,26.6,20.5,26.6,20.5z"/>
	<path class="st1" d="M48,21.8c0.6,2.1,1,4.3,1.4,6.6h11.2c-0.9-3-2.3-5.8-4.1-8.2C53.4,20.9,50.6,21.4,48,21.8z"/>
	<path class="st1" d="M46,16.6c0.5,1.1,1,2.2,1.4,3.4c2.4-0.3,5-0.8,7.6-1.4c-3.4-3.8-8-6.6-13.1-7.8C43.4,12.2,44.8,14.1,46,16.6z"
		/>
	<path class="st2" d="M64.6,43.8h-57l-1-8.2l1-8.2h57l0.1,0.8c0,0.2,1,5.5,1,7.4c0,1.9-1,7.2-1,7.4L64.6,43.8z M9.2,41.9H63
		c0.3-1.8,0.8-5.1,0.8-6.3c0-1.2-0.5-4.5-0.8-6.3H9.2l-0.8,6.3L9.2,41.9z"/>
	<g>
		<path class="st3" d="M29.6,32l-2.1,7.9h-2l-1.1-4.4l-1,4.4h-2.1L19.1,32h2.3l1.1,4.6l1.1-4.6h1.9l1.2,4.6l1.1-4.6H29.6z"/>
		<path class="st3" d="M41.3,32l-2.1,7.9h-2l-1.1-4.4l-1,4.4h-2.1L30.8,32h2.3l1.1,4.6l1.1-4.6h1.9l1.2,4.6l1.1-4.6H41.3z"/>
		<path class="st3" d="M53,32l-2.1,7.9h-2l-1.1-4.4l-1,4.4h-2.1L42.5,32h2.3l1.1,4.6L47,32h1.9l1.2,4.6l1.1-4.6H53z"/>
	</g>
	<path class="st2" d="M36.1,5.9C19.7,5.9,6.3,19.2,6.3,35.6c0,16.4,13.3,29.7,29.7,29.7c8.3,0,15.8-3.4,21.2-8.9l-0.9-2.4
		c-5,5.5-12.3,9-20.3,9c-12.6,0-23.3-8.6-26.5-20.2c-0.6-2.3-1-4.7-1-7.2s0.3-4.9,1-7.2C12.7,16.7,23.4,8.2,36.1,8.2
		c12.6,0,23.3,8.6,26.5,20.2c0.6,2.3,1,4.7,1,7.2s-0.3,4.9-1,7.2c-0.4,1.4-0.9,2.8-1.5,4.2l2.1,0.8c1.7-3.7,2.6-7.8,2.6-12.2
		C65.8,19.2,52.4,5.9,36.1,5.9z"/>
	<polygon class="st4" points="67.6,57.4 63,52.8 66.7,50.8 55.2,46.5 59.5,57.9 61.5,54.3 66.1,58.9 	"/>
</g>
</svg>
