<?xml version="1.0" encoding="UTF-8"?>
<svg xmlns="http://www.w3.org/2000/svg" width="1in" height="1in" version="1.1" viewBox="0 0 72 72">
  <defs>
    <style>
      .cls-1 {
        fill: #c04040;
      }

      .cls-1, .cls-2, .cls-3, .cls-4 {
        fill-rule: evenodd;
      }

      .cls-5 {
        fill: #d7c593;
      }

      .cls-2 {
        fill: #dc574b;
      }

      .cls-3 {
        fill: #fff;
      }

      .cls-4 {
        fill: #43aa96;
      }
    </style>
  </defs>
  <!-- Generator: Adobe Illustrator 28.7.1, SVG Export Plug-In . SVG Version: 1.2.0 Build 142)  -->
  <g>
    <g id="Layer_1">
      <rect class="cls-5" x="0" width="72" height="72" rx="9" ry="9"/>
      <path class="cls-4" d="M50.4,41.6c-.6,1.6-.4,2.9.2,3.8.8,1.1,2,1.8,2.6,2.6.9-1.4,1.9-3.5,1-5.9,2.7,6.7,5.8,5.9,8.1,2.2.7-1.1,1.4-2.2,2.2-3.2-1.8-.8-3.4-.9-5.7-.5,2.6-.3,4.9-1,5.5-2.9.5-1.6,1-3.3,1.7-4.9-2.3-.9-4.1-1.3-5.6-1.5-2.3-.3-3.4,2.5-4.1,5.3.4-1.4.6-3,.9-4.3.2-.8.3-1.3.5-2-2.7.2-4.5,0-5.9.3-3.5.5-2.7,3.8,1.1,7.8-1-1-2.1-2-3.2-2.6-.6-.3-1.2-.3-2-.7.2,1.5,0,2.6.3,3.6.3,1,.9,1.6,1.8,1.9,1.3.4,8-2.7,9.5-3.5,1.6-.8,3.4-1.9,5.3-3.4-.9,1.1-1.9,2-3,2.6-6.7,3.9-13.8,6.6-20.8,4.4.4.3.9.6,1.3.9,2.5.6,5.9.6,8.4,0h0Z"/>
      <path class="cls-4" d="M49.7,50.8c-.4,1.6-1.9,3-3.3,3.4-4,1.1-5.5-5.3-.6-5.5,1.4,0,2.9.8,3.8,2,0,0,0,0,0,.1h0ZM38.7,41.9c.3,0,.6,0,1-.1,4.7-.3,10.4,2.7,10.2,8-1.1-1.2-2.7-1.9-4.1-1.9-5.7,0-4.6,8.5.6,7,1.6-.4,3.1-1.8,3.9-3.4.5,3.1-4.9,7.6-3.1,10.9-1-3.4,5.4-8.5,3.4-11.8,1-6.2-5.7-10-10.9-9.6-.3,0-.7,0-1,.1v.7Z"/>
      <path class="cls-4" d="M28.3,43.8c.3-2.5-.4-4.2-1.6-5.2-1.4-1.2-3.5-1.9-4.5-2.9-.9,2.3-1.5,5.6.5,8.7-6-8.6-10.1-6.5-12.1-.5-.6,1.8-1.3,3.6-2.1,5.2,2.8.5,5.1.2,8.2-1.1-3.5,1.2-6.7,3-6.8,5.8-.1,2.5-.3,5-.7,7.5,3.6.5,6.3.5,8.4.3,3.4-.4,4-4.7,4-8.9,0,2.1.1,4.4.1,6.3,0,1.2,0,2,0,3,3.7-1.2,6.3-1.6,8.2-2.3,4.8-1.8,2.6-6.2-4.1-10.7,1.8,1.1,3.6,2.1,5.4,2.6,1,.3,1.8,0,3.1.3-.7-2-.8-3.7-1.5-4.9-.7-1.3-1.7-2-3.1-2.1-1.9,0-10.5,6.5-12.3,8-2,1.7-4.1,3.7-6.4,6.6,1-1.8,2-3.4,3.3-4.7,8.3-7.8,17.4-13.9,28-12.9-.7-.3-1.4-.6-2.1-.9-3.7,0-8.5,1-11.9,2.7h0Z"/>
      <path class="cls-1" d="M25.3,62.6c0-.5.4-.9,2-1.1,4.6-.6,7.5-.3,7.7-6.7.9-19.4-19.3-14.9-8.6-43.7.5-1.7,18.6-1.7,19.1,0,10.8,28.8-9.4,24.3-8.6,43.7.3,6.4,3.2,6.1,7.7,6.7,1.5.2,2,.6,2,1.1-2.6,2.2-19.2,2.3-21.4,0h0Z"/>
      <path class="cls-2" d="M48.2,59.3c.7-1.1,2.3-1.3,3.6-.4,1.2.8,1.6,2.4.9,3.5-.7,1.1-2.3,1.3-3.6.4-1.2-.8-1.6-2.4-.9-3.5h0Z"/>
      <path class="cls-3" d="M49.2,59.1c.1-.3.7-.4,1.3-.2.6.2,1,.7.9,1-.1.3-.7.2-1.3,0-.6-.2-1.1-.5-.9-.8h0Z"/>
      <path class="cls-2" d="M53.3,60.8c.2-1.2,1.4-2,2.8-1.9,1.4.2,2.4,1.3,2.2,2.5-.2,1.2-1.4,2-2.8,1.9-1.4-.2-2.4-1.3-2.2-2.5h0Z"/>
      <path class="cls-3" d="M54,60.3c0-.3.4-.7,1-.7.6,0,1.1.1,1.2.5,0,.3-.5.5-1.1.5-.6,0-1.1,0-1.1-.3h0Z"/>
      <path class="cls-2" d="M39.9,57.5c.2-1.4,1.6-2.4,3.2-2.2,1.6.2,2.8,1.5,2.6,2.9-.2,1.4-1.6,2.4-3.2,2.2-1.6-.2-2.8-1.5-2.6-2.9h0Z"/>
      <path class="cls-3" d="M40.7,56.8c0-.4.5-.8,1.2-.9.7,0,1.3.2,1.4.5,0,.4-.5.5-1.2.6-.7,0-1.3.1-1.3-.3h0Z"/>
      <path class="cls-3" d="M42.2,23.9c1.7,7.8-.7,11.3-3.2,15.3,4.7-3.3,7-6.7,7.7-12.5.2-1.6.2-3.3,0-5.3,0-.6-.4-1.3-1.2-.7l-2.7,1.7c-.5.3-.7.8-.6,1.5h0ZM39,12.9c.6,1.5,1.3,4.5,2,6.6.1.4.9,1.3,1.7.8l2.2-1.5c.5-.3,1.2-.7.8-2.2-.4-1.4-.6-2.2-1.3-3.9-.1-.5-.6-1-1.4-1.1-.8-.1-1.6-.2-3.1-.3-.9,0-1.3.4-.9,1.5Z"/>
    </g>
  </g>
</svg>